<svg width="25" height="25" viewBox="0 0 25 25" fill="none" xmlns="http://www.w3.org/2000/svg">
<path d="M12 19.5652C11.713 19.5652 11.4439 19.5224 11.1928 19.4368C10.9417 19.3512 10.7085 19.2041 10.4933 18.9957L0.591927 9.46896C0.197309 9.08927 0 8.60603 0 8.01924C0 7.43245 0.197309 6.94922 0.591927 6.56953C0.986546 6.18984 1.48879 6 2.09865 6C2.70852 6 3.21076 6.18984 3.60538 6.56953L12 14.6465L20.3946 6.56953C20.7892 6.18984 21.2915 6 21.9013 6C22.5112 6 23.0135 6.18984 23.4081 6.56953C23.8027 6.94922 24 7.43245 24 8.01924C24 8.60603 23.8027 9.08927 23.4081 9.46896L13.5067 18.9957C13.2915 19.2028 13.0583 19.3498 12.8072 19.4368C12.5561 19.5238 12.287 19.5666 12 19.5652Z" fill="#0A0A0A"/>
</svg>
