<svg width="20" height="20" viewBox="0 0 20 20" fill="none" xmlns="http://www.w3.org/2000/svg">
<path fill-rule="evenodd" clip-rule="evenodd" d="M1.05715 1.05721C1.57785 0.536512 2.42207 0.536512 2.94277 1.05721L9.99996 8.1144L17.0572 1.05721C17.5779 0.536513 18.4221 0.536513 18.9428 1.05721C19.4635 1.57791 19.4635 2.42213 18.9428 2.94283L11.8856 10L18.9428 17.0572C19.4635 17.5779 19.4635 18.4221 18.9428 18.9428C18.4221 19.4635 17.5778 19.4635 17.0571 18.9428L9.99996 11.8856L2.94277 18.9428C2.42207 19.4635 1.57785 19.4635 1.05715 18.9428C0.536451 18.4221 0.536451 17.5779 1.05715 17.0572L8.11434 10L1.05715 2.94283C0.536451 2.42213 0.536451 1.57791 1.05715 1.05721Z" fill="#2a2a2a"/>
</svg>
