<svg width="23" height="23" viewBox="0 0 23 23" fill="none" xmlns="http://www.w3.org/2000/svg">
<g clip-path="url(#clip0_1176_2894)">
<path d="M11.0664 0.078125C8.08128 0.078125 7.70591 0.091875 6.53303 0.144125C5.36016 0.199125 4.56128 0.383375 3.86141 0.655625C3.12729 0.931751 2.46233 1.36489 1.91303 1.92475C1.35351 2.47433 0.920429 3.1392 0.643906 3.87313C0.371656 4.57163 0.186031 5.37187 0.132406 6.54062C0.0801563 7.71625 0.0664062 8.09025 0.0664062 11.0795C0.0664062 14.066 0.0801563 14.44 0.132406 15.6129C0.187406 16.7844 0.371656 17.5833 0.643906 18.2831C0.925781 19.0064 1.30116 19.6196 1.91303 20.2315C2.52353 20.8434 3.13678 21.2201 3.86003 21.5006C4.56128 21.7729 5.35878 21.9585 6.53028 22.0121C7.70453 22.0644 8.07853 22.0781 11.0664 22.0781C14.0543 22.0781 14.4269 22.0644 15.6012 22.0121C16.7713 21.9571 17.5729 21.7729 18.2728 21.5006C19.0064 21.2244 19.6709 20.7912 20.2198 20.2315C20.8317 19.6196 21.207 19.0064 21.4889 18.2831C21.7598 17.5833 21.9454 16.7844 22.0004 15.6129C22.0527 14.44 22.0664 14.066 22.0664 11.0781C22.0664 8.09025 22.0527 7.71625 22.0004 6.542C21.9454 5.37188 21.7598 4.57163 21.4889 3.87313C21.2124 3.13918 20.7793 2.4743 20.2198 1.92475C19.6706 1.36468 19.0056 0.931512 18.2714 0.655625C17.5702 0.383375 16.7699 0.19775 15.5998 0.144125C14.4255 0.091875 14.0529 0.078125 11.0637 0.078125H11.0678H11.0664ZM10.0805 2.06088H11.0678C14.0048 2.06088 14.3527 2.0705 15.5118 2.12413C16.5843 2.17225 17.1673 2.35238 17.555 2.50225C18.0679 2.70163 18.435 2.94088 18.82 3.32588C19.205 3.71088 19.4429 4.07663 19.6423 4.59088C19.7935 4.97725 19.9723 5.56025 20.0204 6.63275C20.074 7.79188 20.085 8.13975 20.085 11.0754C20.085 14.011 20.074 14.3602 20.0204 15.5194C19.9723 16.5919 19.7922 17.1735 19.6423 17.5613C19.4659 18.0389 19.1844 18.4707 18.8187 18.8249C18.4337 19.2099 18.0679 19.4478 17.5537 19.6471C17.1687 19.7984 16.5857 19.9771 15.5118 20.0266C14.3527 20.0789 14.0048 20.0913 11.0678 20.0913C8.13078 20.0913 7.78153 20.0789 6.62241 20.0266C5.54991 19.9771 4.96828 19.7984 4.58053 19.6471C4.10272 19.471 3.67045 19.19 3.31553 18.8249C2.94944 18.4702 2.66753 18.0379 2.49053 17.5599C2.34066 17.1735 2.16053 16.5905 2.11241 15.518C2.06016 14.3589 2.04916 14.011 2.04916 11.0726C2.04916 8.13562 2.06016 7.78912 2.11241 6.63C2.16191 5.5575 2.34066 4.9745 2.49191 4.58675C2.69128 4.07387 2.93053 3.70675 3.31553 3.32175C3.70053 2.93675 4.06628 2.69887 4.58053 2.4995C4.96828 2.34825 5.54991 2.1695 6.62241 2.12C7.63716 2.07325 8.03041 2.0595 10.0805 2.05813V2.06088ZM16.939 3.88687C16.7657 3.88687 16.594 3.92102 16.4339 3.98735C16.2737 4.05369 16.1282 4.15092 16.0057 4.27349C15.8831 4.39607 15.7858 4.54158 15.7195 4.70173C15.6532 4.86188 15.619 5.03353 15.619 5.20687C15.619 5.38022 15.6532 5.55187 15.7195 5.71202C15.7858 5.87217 15.8831 6.01768 16.0057 6.14026C16.1282 6.26283 16.2737 6.36006 16.4339 6.4264C16.594 6.49273 16.7657 6.52688 16.939 6.52688C17.2891 6.52688 17.6249 6.3878 17.8724 6.14026C18.12 5.89271 18.259 5.55696 18.259 5.20687C18.259 4.85679 18.12 4.52104 17.8724 4.27349C17.6249 4.02595 17.2891 3.88687 16.939 3.88687ZM11.0678 5.42963C10.3185 5.41793 9.57439 5.55542 8.87875 5.83407C8.18312 6.11272 7.54986 6.52697 7.01586 7.05271C6.48186 7.57844 6.05778 8.20515 5.76831 8.89636C5.47884 9.58756 5.32977 10.3294 5.32977 11.0788C5.32977 11.8282 5.47884 12.5701 5.76831 13.2613C6.05778 13.9525 6.48186 14.5792 7.01586 15.1049C7.54986 15.6307 8.18312 16.0449 8.87875 16.3236C9.57439 16.6022 10.3185 16.7397 11.0678 16.728C12.5508 16.7049 13.9652 16.0995 15.0057 15.0426C16.0463 13.9857 16.6295 12.562 16.6295 11.0788C16.6295 9.59564 16.0463 8.17194 15.0057 7.11503C13.9652 6.05812 12.5508 5.45276 11.0678 5.42963ZM11.0678 7.411C12.0404 7.411 12.9731 7.79736 13.6608 8.48508C14.3485 9.1728 14.7349 10.1055 14.7349 11.0781C14.7349 12.0507 14.3485 12.9835 13.6608 13.6712C12.9731 14.3589 12.0404 14.7452 11.0678 14.7452C10.0952 14.7452 9.16245 14.3589 8.47473 13.6712C7.78701 12.9835 7.40066 12.0507 7.40066 11.0781C7.40066 10.1055 7.78701 9.1728 8.47473 8.48508C9.16245 7.79736 10.0952 7.411 11.0678 7.411Z" fill="white"/>
</g>
<defs>
<clipPath id="clip0_1176_2894">
<rect width="22" height="22" fill="white" transform="translate(0.0664062 0.078125)"/>
</clipPath>
</defs>
</svg>
