<svg width="18" height="16" viewBox="0 0 18 16" fill="none" xmlns="http://www.w3.org/2000/svg">
<path fill-rule="evenodd" clip-rule="evenodd" d="M0.599976 1.9998C0.599976 1.33706 1.13723 0.799805 1.79998 0.799805H16.2C16.8627 0.799805 17.4 1.33706 17.4 1.9998C17.4 2.66255 16.8627 3.1998 16.2 3.1998H1.79998C1.13723 3.1998 0.599976 2.66255 0.599976 1.9998Z" fill="#D4D4D4"/>
<path fill-rule="evenodd" clip-rule="evenodd" d="M0.599976 7.9998C0.599976 7.33706 1.13723 6.7998 1.79998 6.7998H16.2C16.8627 6.7998 17.4 7.33706 17.4 7.9998C17.4 8.66255 16.8627 9.19981 16.2 9.19981H1.79998C1.13723 9.19981 0.599976 8.66255 0.599976 7.9998Z" fill="#D4D4D4"/>
<path fill-rule="evenodd" clip-rule="evenodd" d="M0.599976 13.9998C0.599976 13.3371 1.13723 12.7998 1.79998 12.7998H8.99998C9.66272 12.7998 10.2 13.3371 10.2 13.9998C10.2 14.6625 9.66272 15.1998 8.99998 15.1998H1.79998C1.13723 15.1998 0.599976 14.6625 0.599976 13.9998Z" fill="#D4D4D4"/>
</svg>
