<svg xmlns="http://www.w3.org/2000/svg" width="32" height="32" fill="none"><rect width="32" height="32" fill="#F4F4F4" rx="6.095"/><path stroke="#AAA" stroke-linecap="round" stroke-linejoin="round" stroke-width="2" d="M25.333 4H6.667A2.667 2.667 0 0 0 4 6.667v18.666A2.667 2.667 0 0 0 6.667 28h18.666A2.667 2.667 0 0 0 28 25.333V6.667A2.667 2.667 0 0 0 25.333 4Z"/><path stroke="#AAA" stroke-linecap="round" stroke-linejoin="round" stroke-width="2" d="M11.334 13.334a2 2 0 1 0 0-4 2 2 0 0 0 0 4ZM28 20l-6.667-6.666L6.667 28"/></svg>