<svg width="26" height="23" viewBox="0 0 26 23" fill="none" xmlns="http://www.w3.org/2000/svg">
<g clip-path="url(#clip0_1176_2887)">
<path d="M8.97726 14.0722C9.90585 14.0722 10.6586 13.3298 10.6586 12.414C10.6586 11.4983 9.90585 10.7559 8.97726 10.7559C8.04867 10.7559 7.2959 11.4983 7.2959 12.414C7.2959 13.3298 8.04867 14.0722 8.97726 14.0722Z" fill="white"/>
<path d="M15.7028 14.0722C16.6314 14.0722 17.3842 13.3298 17.3842 12.414C17.3842 11.4983 16.6314 10.7559 15.7028 10.7559C14.7743 10.7559 14.0215 11.4983 14.0215 12.414C14.0215 13.3298 14.7743 14.0722 15.7028 14.0722Z" fill="white"/>
<path d="M16.2634 18.4939L17.3843 20.7048C17.3843 20.7048 22.0596 19.2368 23.5493 16.8358C23.5493 15.7303 24.1434 7.82963 20.1866 5.22849C18.5052 4.12304 15.7029 3.57031 15.7029 3.57031L14.582 5.78122H12.3402M8.44843 18.4939L7.32753 20.7048C7.32753 20.7048 2.65223 19.2368 1.16254 16.8358C1.16254 15.7303 0.568462 7.82963 4.52526 5.22849C6.20662 4.12304 9.00889 3.57031 9.00889 3.57031L10.1298 5.78122H12.3716" stroke="white" stroke-width="2" stroke-linecap="round" stroke-linejoin="round"/>
<path d="M5.05469 16.8359C10.6592 19.5996 14.0219 19.5996 19.6265 16.8359" stroke="white" stroke-width="2" stroke-linecap="round" stroke-linejoin="round"/>
</g>
<defs>
<clipPath id="clip0_1176_2887">
<rect width="24.9333" height="22" fill="white" transform="translate(0.132812 0.078125)"/>
</clipPath>
</defs>
</svg>
