<svg width="24" height="20" viewBox="0 0 24 20" fill="none" xmlns="http://www.w3.org/2000/svg">
<path fill-rule="evenodd" clip-rule="evenodd" d="M0 2.00002C0 1.26364 0.596954 0.666687 1.33333 0.666687H22.6667C23.403 0.666687 24 1.26364 24 2.00002C24 2.7364 23.403 3.33335 22.6667 3.33335H1.33333C0.596954 3.33335 0 2.7364 0 2.00002ZM0 10C0 9.26364 0.596954 8.66669 1.33333 8.66669H22.6667C23.403 8.66669 24 9.26364 24 10C24 10.7364 23.403 11.3334 22.6667 11.3334H1.33333C0.596954 11.3334 0 10.7364 0 10ZM0 18C0 17.2636 0.596954 16.6667 1.33333 16.6667H22.6667C23.403 16.6667 24 17.2636 24 18C24 18.7364 23.403 19.3334 22.6667 19.3334H1.33333C0.596954 19.3334 0 18.7364 0 18Z" fill="white"/>
</svg>
