<svg width="25" height="23" viewBox="0 0 25 23" fill="none" xmlns="http://www.w3.org/2000/svg">
<g clip-path="url(#clip0_1176_2899)">
<path d="M12.6125 3.19336H12.7512C14.0322 3.19803 20.5226 3.24478 22.2727 3.7154C22.8017 3.85903 23.2838 4.13899 23.6707 4.52731C24.0577 4.91562 24.3359 5.39869 24.4777 5.92823C24.6351 6.5204 24.7457 7.30424 24.8205 8.11302L24.8361 8.27508L24.8704 8.68025L24.8829 8.84232C24.9842 10.2666 24.9966 11.6006 24.9982 11.892V12.0089C24.9966 12.3112 24.9826 13.7355 24.8704 15.219L24.8579 15.3826L24.8439 15.5447C24.766 16.4361 24.6507 17.3212 24.4777 17.9726C24.3364 18.5024 24.0583 18.9856 23.6712 19.374C23.2842 19.7624 22.8019 20.0422 22.2727 20.1854C20.465 20.6716 13.5943 20.7059 12.6422 20.7075H12.4209C11.9393 20.7075 9.9478 20.6981 7.85963 20.6264L7.59471 20.6171L7.45914 20.6109L7.19266 20.5999L6.92619 20.589C5.19644 20.5127 3.54928 20.3896 2.79037 20.1839C2.2613 20.0408 1.77912 19.7612 1.39212 19.3731C1.00512 18.985 0.726901 18.5021 0.585331 17.9726C0.412356 17.3228 0.29704 16.4361 0.219123 15.5447L0.206656 15.3811L0.19419 15.219C0.117282 14.1631 0.0746652 13.1049 0.0664062 12.0463L0.0664063 11.8546C0.0695229 11.5195 0.0819896 10.3617 0.16614 9.08386L0.177048 8.92335L0.181723 8.84232L0.19419 8.68025L0.228473 8.27508L0.244056 8.11302C0.318856 7.30424 0.429498 6.51884 0.58689 5.92823C0.72822 5.39848 1.00633 4.91518 1.39335 4.5268C1.78036 4.13842 2.26267 3.8586 2.79193 3.7154C3.55084 3.51282 5.198 3.38815 6.92775 3.31023L7.19266 3.29933L7.4607 3.28998L7.59471 3.2853L7.86119 3.27439C9.34427 3.22667 10.828 3.20017 12.3118 3.19492H12.6125V3.19336ZM10.0397 8.19561V15.7037L16.5177 11.9512L10.0397 8.19561Z" fill="white"/>
</g>
<defs>
<clipPath id="clip0_1176_2899">
<rect width="24.9333" height="22" fill="white" transform="translate(0.0664062 0.078125)"/>
</clipPath>
</defs>
</svg>
