<svg width="23" height="23" viewBox="0 0 23 23" fill="none" xmlns="http://www.w3.org/2000/svg">
<path d="M18.8759 18.8258H15.6181V13.7209C15.6181 12.5035 15.5933 10.937 13.9204 10.937C12.2218 10.937 11.9624 12.2615 11.9624 13.631V18.8258H8.70456V8.32812H11.8341V9.75904H11.8762C12.3135 8.93404 13.3768 8.06321 14.9654 8.06321C18.2663 8.06321 18.8768 10.2357 18.8768 13.0636L18.8759 18.8258ZM5.02506 6.89171C4.77653 6.89183 4.53042 6.84294 4.30081 6.74783C4.0712 6.65272 3.8626 6.51327 3.68695 6.33744C3.5113 6.16162 3.37204 5.95289 3.27716 5.72318C3.18227 5.49348 3.13362 5.24732 3.13398 4.99879C3.13416 4.62459 3.2453 4.25884 3.45335 3.94781C3.66139 3.63677 3.957 3.39441 4.30279 3.25138C4.64858 3.10834 5.02901 3.07106 5.39599 3.14424C5.76297 3.21742 6.1 3.39778 6.36447 3.66251C6.62895 3.92724 6.80898 4.26445 6.8818 4.6315C6.95463 4.99854 6.91698 5.37894 6.77361 5.72459C6.63024 6.07024 6.38759 6.36561 6.07636 6.57336C5.76512 6.7811 5.39926 6.89189 5.02506 6.89171ZM6.65856 18.8258H3.39156V8.32812H6.65856V18.8258ZM20.5057 0.078125H1.75623C0.858813 0.078125 0.132812 0.787625 0.132812 1.66304V20.4932C0.132812 21.3695 0.858813 22.0781 1.75623 22.0781H20.503C21.3995 22.0781 22.1328 21.3695 22.1328 20.4932V1.66304C22.1328 0.787625 21.3995 0.078125 20.503 0.078125H20.5057Z" fill="white"/>
</svg>
