<svg width="203" height="31" viewBox="0 0 203 31" fill="none" xmlns="http://www.w3.org/2000/svg">
<g clip-path="url(#clip0_1176_2823)">
<path d="M84.1422 21.1321V10.0238H81.5674V8.5408H84.1422V4.27832H85.8491V8.5408H89.0056V10.0238H85.8491V20.8738C85.8491 22.1319 86.3641 23.0074 87.4607 23.0074C88.1998 23.0074 88.8435 22.6534 89.2011 22.2659L89.8448 23.5575C89.2345 24.1364 88.4907 24.5287 87.2033 24.5287C85.1434 24.5287 84.1469 23.2705 84.1469 21.1369L84.1422 21.1321Z" fill="white"/>
<path d="M91.127 16.3194C91.127 11.7651 94.0546 8.14844 98.5938 8.14844C103.133 8.14844 106.094 11.7651 106.094 16.3194C106.094 20.8737 103.195 24.5238 98.5938 24.5238C93.9926 24.5238 91.127 20.8737 91.127 16.3194ZM104.292 16.3194C104.292 12.8654 102.265 9.66494 98.5938 9.66494C94.9224 9.66494 92.9293 12.8606 92.9293 16.3194C92.9293 19.7782 94.9891 23.0025 98.5938 23.0025C102.198 23.0025 104.292 19.8069 104.292 16.3194Z" fill="white"/>
<path d="M111.434 21.6152V30.078H109.761V8.53594H111.434V10.9901C112.526 9.40661 114.524 8.14844 116.841 8.14844C120.994 8.14844 123.793 11.3154 123.793 16.3194C123.793 21.3234 120.994 24.5238 116.841 24.5238C114.653 24.5238 112.688 23.3948 111.434 21.6152ZM121.991 16.3194C121.991 12.5401 120.026 9.66494 116.551 9.66494C114.395 9.66494 112.336 10.9566 111.434 12.4444V20.1609C112.336 21.6439 114.395 23.0025 116.551 23.0025C120.026 23.0025 121.991 20.0939 121.991 16.3194Z" fill="white"/>
<path d="M126.469 16.3194C126.469 11.7651 129.463 8.14844 134.031 8.14844C136.734 8.14844 138.279 9.21525 139.533 10.7987L138.375 11.8321C137.249 10.2821 135.833 9.66973 134.126 9.66973C130.488 9.66973 128.266 12.5784 128.266 16.3242C128.266 20.07 130.488 23.0073 134.126 23.0073C135.833 23.0073 137.249 22.3615 138.375 20.8115L139.533 21.8448C138.279 23.4618 136.734 24.5238 134.031 24.5238C129.458 24.5238 126.469 20.8737 126.469 16.3194Z" fill="white"/>
<path d="M141.722 16.3194C141.722 11.7651 144.649 8.14844 149.189 8.14844C153.728 8.14844 156.689 11.7651 156.689 16.3194C156.689 20.8737 153.79 24.5238 149.189 24.5238C144.587 24.5238 141.722 20.8737 141.722 16.3194ZM154.886 16.3194C154.886 12.8654 152.86 9.66494 149.189 9.66494C145.517 9.66494 143.524 12.8606 143.524 16.3194C143.524 19.7782 145.584 23.0025 149.189 23.0025C152.793 23.0025 154.886 19.8069 154.886 16.3194Z" fill="white"/>
<path d="M171.813 24.1367V21.6491C170.721 23.2661 168.723 24.5242 166.406 24.5242C162.286 24.5242 159.454 21.3573 159.454 16.3533C159.454 11.3493 162.286 8.14886 166.406 8.14886C168.628 8.14886 170.559 9.27787 171.813 11.0575V2.59473H173.52V24.1367H171.813ZM171.813 20.2283V12.5118C170.912 10.9953 168.885 9.67015 166.697 9.67015C163.254 9.67015 161.256 12.5788 161.256 16.3533C161.256 20.1278 163.254 23.0077 166.697 23.0077C168.885 23.0077 170.912 21.7161 171.813 20.2283Z" fill="white"/>
<path d="M177.187 16.3194C177.187 11.7986 180.372 8.14844 184.687 8.14844C189.417 8.14844 192.025 11.9277 192.025 16.4151V16.8695H179.022C179.184 20.2613 181.435 23.0695 185.106 23.0695C187.071 23.0695 188.873 22.328 190.194 20.9072L191.062 22.0027C189.517 23.6197 187.552 24.5238 184.978 24.5238C180.438 24.5238 177.187 21.132 177.187 16.3194ZM184.653 9.60275C180.982 9.60275 179.151 12.8319 179.022 15.5444H190.318C190.284 12.8941 188.549 9.60275 184.653 9.60275Z" fill="white"/>
<path d="M195.696 24.1366V8.53624H197.37V11.2152C198.691 9.46911 200.459 8.21094 202.615 8.21094V10.0527C202.324 9.98577 202.1 9.98577 201.775 9.98577C200.197 9.98577 198.075 11.4066 197.365 12.7652V24.1318H195.691L195.696 24.1366Z" fill="white"/>
<path d="M28.9551 10.7031C29.0983 10.7459 29.2463 10.7887 29.3847 10.8362C29.2415 10.7935 29.0983 10.7459 28.9551 10.7031Z" fill="#C7C7C7"/>
<path d="M31.6045 11.5547C31.7334 11.5975 31.8623 11.645 31.9864 11.6878C31.8575 11.645 31.7334 11.5975 31.6045 11.5547Z" fill="#C7C7C7"/>
<path d="M35.0758 12.8378C35.0758 12.8378 35.0663 12.8378 35.0615 12.833C35.0615 12.833 35.0711 12.833 35.0758 12.8378H35.0854C35.3289 12.9376 35.5866 13.0374 35.854 13.142C35.854 13.142 35.854 13.142 35.8588 13.142C35.8779 13.1468 35.8922 13.1563 35.9113 13.161C35.916 13.161 35.9256 13.1658 35.9304 13.1706C35.6344 13.0517 35.348 12.9424 35.0758 12.833V12.8378Z" fill="#C7C7C7"/>
<path d="M26.4775 9.98047C27.0934 10.1516 27.7044 10.3275 28.3059 10.5034C27.7044 10.3228 27.0934 10.1516 26.4775 9.98047Z" fill="#C7C7C7"/>
<path d="M32.6934 11.9346C32.8223 11.9821 32.9511 12.0249 33.08 12.0724C32.9511 12.0249 32.8223 11.9774 32.6934 11.9346Z" fill="#C7C7C7"/>
<path d="M9.24413 24.7615C10.7574 18.2673 14.2662 12.529 18.7489 8.22652C10.0939 6.68141 1.93533 6.81453 0.293118 11.1313C-0.862159 14.174 1.50091 18.7665 5.56347 23.302C6.67579 24.5428 7.95518 24.9993 9.17252 25.0468L9.24413 24.7568V24.7615Z" fill="#C7C7C7"/>
<path d="M23.623 9.24414C23.7997 9.28693 23.9763 9.32971 24.1482 9.3725C23.9715 9.32971 23.7997 9.28693 23.623 9.24414Z" fill="#C7C7C7"/>
<path d="M21.0449 8.66406C21.6989 8.80193 22.3577 8.94456 23.007 9.09669C22.353 8.94456 21.6989 8.79718 21.0449 8.66406Z" fill="#C7C7C7"/>
<path d="M73.5525 11.1316C71.915 6.81479 63.7565 6.68167 55.0967 8.22202C59.5793 12.5293 63.0881 18.2628 64.6015 24.757L64.6731 25.047C65.8952 24.9948 67.1698 24.5431 68.2821 23.3023C72.3447 18.7715 74.7078 14.179 73.5525 11.1316Z" fill="#C7C7C7"/>
<path d="M36.9235 13.5661C31.3046 14.4504 21.7473 19.2711 13.8991 23.6354C13.2833 23.9777 11.3164 25.133 9.17773 25.0427L9.24934 24.7527C10.7627 18.2585 14.2762 12.5202 18.7589 8.21289C19.4798 8.34125 20.2102 8.48388 20.9358 8.63126C20.9406 8.63126 20.9453 8.63126 20.9549 8.63126C20.9549 8.63126 20.9644 8.63126 20.9692 8.63126C21.6948 8.78339 22.4157 8.94028 23.1365 9.11143C23.1365 9.11143 23.1461 9.11143 23.1509 9.11143C23.5089 9.197 23.8669 9.28258 24.225 9.37291C24.2345 9.37291 24.2441 9.37291 24.2536 9.37766C24.9602 9.55357 25.6571 9.73423 26.3494 9.92439C26.3685 9.92915 26.3923 9.9339 26.4114 9.94341C26.4162 9.94341 26.421 9.94341 26.4257 9.94341C27.1036 10.1288 27.7767 10.3237 28.4355 10.5187C28.4451 10.5187 28.4546 10.5234 28.4642 10.5282C28.4785 10.5282 28.4928 10.5377 28.5119 10.5424C28.8318 10.6375 29.1468 10.7374 29.4619 10.8324C29.4762 10.8324 29.4858 10.8419 29.5001 10.8467C29.524 10.8562 29.5478 10.861 29.5717 10.8705C30.1971 11.0654 30.8081 11.2651 31.4049 11.4647C31.424 11.4695 31.4431 11.479 31.4669 11.4838C31.4956 11.4933 31.5242 11.5028 31.5529 11.5123C31.8393 11.6121 32.1257 11.7072 32.4074 11.807C32.4408 11.8166 32.4695 11.8308 32.5029 11.8403C32.7607 11.9307 33.0185 12.0257 33.2715 12.1161C33.3049 12.1303 33.3431 12.1398 33.3765 12.1541C33.3813 12.1541 33.3908 12.1541 33.3956 12.1589C33.6581 12.2539 33.9207 12.3538 34.1737 12.4536C34.1928 12.4631 34.2119 12.4679 34.231 12.4774C34.2644 12.4916 34.2979 12.5012 34.3313 12.5154C34.5891 12.6153 34.8468 12.7151 35.0951 12.8149H35.1046C35.3481 12.9148 35.6059 13.0146 35.8732 13.1192C35.8732 13.1192 35.8732 13.1192 35.878 13.1192C35.8971 13.124 35.9114 13.1335 35.9305 13.1382" fill="#A6A6A6"/>
<path d="M36.9234 13.5661C42.5422 14.4504 52.0995 19.2711 59.9478 23.6354C60.5636 23.9777 62.5304 25.133 64.6691 25.0427L64.5975 24.7527C63.0842 18.2585 59.5706 12.5202 55.088 8.21289C54.3671 8.34125 53.6367 8.48388 52.9111 8.63126C52.9063 8.63126 52.9015 8.63126 52.892 8.63126C52.892 8.63126 52.8825 8.63126 52.8777 8.63126C52.152 8.78339 51.4312 8.94028 50.7103 9.11143C50.7103 9.11143 50.7008 9.11143 50.696 9.11143C50.338 9.197 49.9799 9.28258 49.6219 9.37291C49.6123 9.37291 49.6028 9.37291 49.5932 9.37766C48.8867 9.55357 48.1897 9.73423 47.4975 9.92439C47.4784 9.92915 47.4546 9.9339 47.4355 9.94341C47.4307 9.94341 47.4259 9.94341 47.4211 9.94341C46.7432 10.1288 46.0701 10.3237 45.4113 10.5187C45.4018 10.5187 45.3922 10.5234 45.3827 10.5282C45.3684 10.5282 45.3541 10.5377 45.335 10.5424C45.0151 10.6375 44.7 10.7374 44.385 10.8324C44.3706 10.8324 44.3611 10.8419 44.3468 10.8467C44.3229 10.8562 44.299 10.861 44.2752 10.8705C43.6498 11.0654 43.0387 11.2651 42.442 11.4647C42.4229 11.4695 42.4038 11.479 42.3799 11.4838C42.3513 11.4933 42.3226 11.5028 42.294 11.5123C42.0076 11.6121 41.7211 11.7072 41.4395 11.807C41.4061 11.8166 41.3774 11.8308 41.344 11.8403C41.0862 11.9307 40.8284 12.0257 40.5754 12.1161C40.542 12.1303 40.5038 12.1398 40.4704 12.1541C40.4656 12.1541 40.4561 12.1541 40.4513 12.1589C40.1887 12.2539 39.9262 12.3538 39.6731 12.4536C39.654 12.4631 39.635 12.4679 39.6159 12.4774C39.5824 12.4916 39.549 12.5012 39.5156 12.5154C39.2578 12.6153 39 12.7151 38.7518 12.8149H38.7422C38.4988 12.9148 38.241 13.0146 37.9736 13.1192C37.9736 13.1192 37.9736 13.1192 37.9689 13.1192C37.9498 13.124 37.9355 13.1335 37.9164 13.1382L36.9043 13.5328L36.9234 13.5661Z" fill="#F2F2F2"/>
<path d="M37.9161 13.1806C38.2121 13.0618 38.4985 12.9477 38.7706 12.8383C43.2199 11.0508 49.2684 9.25844 55.0925 8.22203C49.8222 3.16358 43.2103 0.078125 36.9232 0.078125C30.636 0.078125 24.0242 3.15883 18.749 8.22203C24.5731 9.25844 30.6264 11.0508 35.0757 12.8383C35.639 13.0665 36.2596 13.309 36.9232 13.5657C37.0711 13.5087 37.2096 13.4564 37.3528 13.3993L37.9161 13.1806Z" fill="#C7C7C7"/>
</g>
<defs>
<clipPath id="clip0_1176_2823">
<rect width="202.615" height="30" fill="white" transform="translate(0 0.078125)"/>
</clipPath>
</defs>
</svg>
