<svg xmlns="http://www.w3.org/2000/svg" width="212" height="32" fill="none"><g clip-path="url(#a)"><path fill="#58595B" d="M88.04 22.458V10.609h-2.694V9.027h2.694V4.48h1.786v4.547h3.302v1.582h-3.302v11.573c0 1.342.539 2.276 1.686 2.276a2.53 2.53 0 0 0 1.821-.79l.674 1.377c-.64.617-1.417 1.036-2.764 1.036-2.156 0-3.198-1.342-3.198-3.618l-.005-.005ZM95.349 17.324c0-4.858 3.063-8.716 7.812-8.716 4.75 0 7.848 3.858 7.848 8.716 0 4.858-3.033 8.752-7.848 8.752-4.814 0-7.812-3.894-7.812-8.752Zm13.774 0c0-3.684-2.12-7.098-5.962-7.098-3.841 0-5.927 3.409-5.927 7.098 0 3.69 2.156 7.129 5.927 7.129 3.772 0 5.962-3.409 5.962-7.129ZM116.596 22.973V32h-1.751V9.022h1.751v2.617c1.143-1.689 3.233-3.03 5.658-3.03 4.345 0 7.274 3.377 7.274 8.715s-2.929 8.752-7.274 8.752c-2.29 0-4.346-1.205-5.658-3.103Zm11.046-5.649c0-4.031-2.056-7.098-5.693-7.098-2.255 0-4.41 1.378-5.353 2.965v8.23c.943 1.582 3.098 3.032 5.353 3.032 3.637 0 5.693-3.103 5.693-7.129ZM132.327 17.324c0-4.858 3.133-8.716 7.912-8.716 2.829 0 4.445 1.138 5.757 2.827l-1.212 1.103c-1.177-1.654-2.659-2.307-4.445-2.307-3.807 0-6.131 3.103-6.131 7.098 0 3.996 2.324 7.129 6.131 7.129 1.786 0 3.268-.689 4.445-2.342l1.212 1.102c-1.312 1.725-2.928 2.858-5.757 2.858-4.784 0-7.912-3.894-7.912-8.752ZM148.286 17.324c0-4.858 3.063-8.716 7.813-8.716 4.749 0 7.847 3.858 7.847 8.716 0 4.858-3.033 8.752-7.847 8.752-4.815 0-7.813-3.894-7.813-8.752Zm13.775 0c0-3.684-2.121-7.098-5.962-7.098-3.842 0-5.927 3.409-5.927 7.098 0 3.69 2.155 7.129 5.927 7.129 3.771 0 5.962-3.409 5.962-7.129ZM179.771 25.662V23.01c-1.142 1.724-3.233 3.067-5.657 3.067-4.311 0-7.274-3.378-7.274-8.716 0-5.338 2.963-8.752 7.274-8.752 2.325 0 4.345 1.205 5.657 3.103V2.684h1.786v22.978h-1.786Zm0-4.169v-8.23c-.943-1.618-3.063-3.032-5.353-3.032-3.602 0-5.692 3.103-5.692 7.129s2.09 7.098 5.692 7.098c2.29 0 4.41-1.378 5.353-2.965ZM185.394 17.324c0-4.822 3.333-8.716 7.848-8.716 4.949 0 7.678 4.032 7.678 8.818v.485h-13.605c.169 3.618 2.524 6.613 6.366 6.613 2.055 0 3.941-.79 5.323-2.306l.908 1.168c-1.617 1.725-3.672 2.69-6.366 2.69-4.749 0-8.152-3.619-8.152-8.752Zm7.813-7.164c-3.842 0-5.758 3.444-5.892 6.337h11.819c-.035-2.827-1.851-6.337-5.927-6.337ZM204.761 25.662V9.022h1.751v2.857c1.382-1.862 3.233-3.204 5.488-3.204v1.964c-.305-.071-.539-.071-.878-.071-1.652 0-3.872 1.516-4.615 2.965v12.124h-1.751l.005.005Z"/><path fill="#2BA9E0" d="M30.258 11.405c.15.046.304.092.449.143-.15-.046-.3-.097-.45-.143ZM33.027 12.318c.135.046.27.097.399.143-.135-.046-.264-.097-.4-.143ZM36.654 13.696s-.01 0-.015-.005c0 0 .01 0 .015.005h.01c.254.107.523.214.803.327h.005c.02.005.035.015.055.02.005 0 .015.005.02.01-.31-.127-.609-.245-.893-.362v.005ZM27.669 10.629ZM34.164 12.727c.135.05.27.096.404.147-.134-.05-.27-.101-.404-.147ZM9.659 26.494c1.581-6.97 5.248-13.13 9.933-17.748C10.547 7.088 2.02 7.231.304 11.864c-1.207 3.266 1.263 8.195 5.508 13.063 1.163 1.332 2.5 1.822 3.772 1.873l.075-.311v.005ZM24.686 9.838l.548.138-.549-.138ZM21.991 9.215Z"/><path fill="#F69322" d="M76.865 11.864c-1.711-4.633-10.237-4.776-19.287-3.123 4.684 4.623 8.351 10.778 9.933 17.748l.074.311c1.278-.056 2.61-.54 3.772-1.872 4.246-4.863 6.715-9.793 5.508-13.064Z"/><path fill="#0E73BA" d="M38.585 14.477c-5.872.949-15.86 6.123-24.062 10.808-.644.367-2.7 1.607-4.934 1.51l.075-.311c1.581-6.97 5.253-13.13 9.938-17.753.753.138 1.516.29 2.275.449h.035c.758.163 1.511.332 2.265.515h.015c.374.092.748.184 1.122.281.01 0 .02 0 .03.005.738.189 1.467.383 2.19.587.02.005.045.01.065.02h.015a103.754 103.754 0 0 1 2.13.628c.015 0 .03.01.05.015.334.102.664.21.993.312.015 0 .025.01.04.015.025.01.05.015.075.026.653.209 1.292.423 1.915.637.02.005.04.016.065.02l.09.031c.3.107.599.21.893.317.035.01.065.025.1.035.27.097.539.2.803.296.035.016.075.026.11.041a30.555 30.555 0 0 1 .833.322c.02.01.04.015.06.025.035.015.07.026.105.041.269.107.538.214.798.322h.01c.254.107.524.214.803.326h.005c.02.005.035.015.055.02"/><path fill="#FFD600" d="M38.584 14.477c5.872.949 15.86 6.123 24.062 10.808.644.367 2.7 1.607 4.934 1.51l-.075-.311c-1.581-6.97-5.253-13.13-9.938-17.753a94.01 94.01 0 0 0-2.275.449h-.035c-.758.163-1.511.332-2.264.515h-.016c-.374.092-.748.184-1.122.281-.01 0-.02 0-.03.005-.738.189-1.467.383-2.19.587-.02.005-.045.01-.065.02h-.015c-.708.2-1.412.409-2.1.618-.01 0-.02.005-.03.01-.015 0-.03.01-.05.015-.334.102-.664.21-.993.312-.015 0-.025.01-.04.015-.025.01-.05.015-.075.026a94.93 94.93 0 0 0-1.915.637c-.02.005-.04.016-.065.02l-.09.031c-.3.107-.599.21-.893.317-.035.01-.065.025-.1.035-.27.097-.539.2-.803.296-.035.016-.075.026-.11.041a30.29 30.29 0 0 0-.833.322c-.02.01-.04.015-.06.025-.035.015-.07.026-.105.041-.269.107-.538.214-.798.322h-.01c-.254.107-.524.214-.803.326h-.005c-.02.005-.035.015-.055.02l-1.057.424.02.036Z"/><path fill="#8CC542" d="m39.622 14.063.893-.367c4.65-1.919 10.971-3.842 17.058-4.955C52.065 3.311 45.155 0 38.585 0s-13.48 3.307-18.993 8.741c6.086 1.113 12.412 3.036 17.062 4.955.589.245 1.237.505 1.93.78.155-.06.3-.117.45-.178l.588-.235Z"/></g><defs><clipPath id="a"><path fill="#fff" d="M0 0h212v32H0z"/></clipPath></defs></svg>
