<svg xmlns="http://www.w3.org/2000/svg" width="77" height="26" fill="none"><path fill="#2BA9E0" d="M29.927 11.064c.148.044.3.09.444.139-.148-.045-.296-.095-.444-.139ZM32.665 11.95c.133.045.267.094.395.139-.134-.045-.262-.094-.395-.139ZM36.252 13.287s-.01 0-.015-.005c0 0 .01 0 .015.005h.01c.252.104.518.208.794.316h.005c.02.005.035.015.055.02.005 0 .014.005.02.01-.307-.123-.603-.237-.884-.351v.005ZM27.366 10.312ZM33.79 12.346c.133.05.267.094.4.144-.133-.05-.267-.1-.4-.144ZM9.554 25.703c1.564-6.763 5.19-12.738 9.824-17.218C10.433 6.875 2 7.015.303 11.51c-1.194 3.168 1.248 7.95 5.447 12.673C6.9 25.475 8.222 25.95 9.48 26l.074-.302v.005ZM24.416 9.544l.543.134c-.183-.044-.36-.089-.543-.134ZM21.751 8.94Z"/><path fill="#F69322" d="M76.021 11.51C74.33 7.015 65.897 6.876 56.946 8.48c4.633 4.485 8.26 10.456 9.824 17.218l.074.302c1.263-.055 2.58-.525 3.73-1.817 4.199-4.718 6.641-9.5 5.447-12.673Z"/><path fill="#0E73BA" d="M38.162 14.044c-5.807.921-15.685 5.94-23.797 10.485-.636.357-2.67 1.56-4.88 1.466l.074-.302c1.565-6.763 5.196-12.738 9.829-17.223.745.134 1.5.282 2.25.436h.034c.75.158 1.495.322 2.24.5h.015c.37.089.74.178 1.11.272a92.355 92.355 0 0 1 2.196.574c.02.005.045.01.064.02h.015a103.406 103.406 0 0 1 2.107.61c.015 0 .03.009.05.014.33.099.655.203.981.302.015 0 .025.01.04.015.024.01.049.015.074.025.646.203 1.278.41 1.894.618.02.005.04.015.065.02l.088.03c.296.104.592.203.884.307.034.01.064.025.098.034.267.095.533.194.795.287.034.015.074.025.108.04a30.47 30.47 0 0 1 .824.312c.02.01.04.015.06.025.034.015.068.024.103.04.266.103.533.207.79.311h.01c.25.104.517.208.794.317h.005c.02.005.034.015.054.02"/><path fill="#FFD600" d="M38.162 14.044c5.808.921 15.686 5.94 23.797 10.485.637.357 2.67 1.56 4.88 1.466l-.074-.302C65.201 18.93 61.57 12.955 56.936 8.47c-.745.134-1.5.282-2.25.436h-.034a86.11 86.11 0 0 0-2.24.5h-.015c-.37.089-.74.178-1.11.272a92.346 92.346 0 0 0-2.196.574c-.02.005-.044.01-.064.02h-.015a103.395 103.395 0 0 0-2.106.61c-.015 0-.03.009-.05.014-.33.099-.656.203-.982.302-.015 0-.024.01-.04.015-.024.01-.049.015-.073.025-.647.203-1.278.41-1.895.618-.02.005-.04.015-.064.02l-.089.03c-.296.104-.592.203-.883.307-.035.01-.064.025-.099.034-.266.095-.533.194-.794.287-.035.015-.074.025-.109.04a30.47 30.47 0 0 0-.824.312c-.02.01-.04.015-.059.025-.034.015-.069.024-.103.04a66.02 66.02 0 0 0-.79.311h-.01c-.251.104-.518.208-.794.317h-.005c-.02.005-.035.015-.054.02l-1.046.41.02.035Z"/><path fill="#8CC542" d="m39.188 13.643.883-.356c4.599-1.861 10.85-3.728 16.87-4.807C51.494 3.213 44.66 0 38.16 0c-6.497 0-13.33 3.208-18.783 8.48 6.02 1.08 12.276 2.946 16.874 4.807.583.238 1.224.49 1.91.757.153-.059.296-.114.444-.173l.582-.228Z"/></svg>
