<svg width="202" height="64" viewBox="0 0 202 64" fill="none" xmlns="http://www.w3.org/2000/svg">
<g clip-path="url(#clip0_2043_2399)">
<path d="M157.881 54.877C158.958 54.877 159.594 55.3172 160.046 55.9044L159.435 56.4669C159.043 55.9288 158.542 55.6963 157.93 55.6963C156.67 55.6963 155.887 56.6623 155.887 57.9707C155.887 59.2794 156.67 60.2575 157.93 60.2575C158.542 60.2575 159.043 60.013 159.435 59.4869L160.046 60.0494C159.594 60.6366 158.958 61.0769 157.881 61.0769C156.119 61.0769 154.932 59.7317 154.932 57.9707C154.932 56.2224 156.119 54.877 157.881 54.877Z" fill="#58595B"/>
<path d="M160.744 57.9707C160.744 56.2588 161.869 54.877 163.668 54.877C165.466 54.877 166.592 56.2588 166.592 57.9707C166.592 59.6826 165.466 61.0769 163.668 61.0769C161.869 61.0769 160.744 59.6826 160.744 57.9707ZM165.625 57.9707C165.625 56.7725 164.928 55.6963 163.668 55.6963C162.408 55.6963 161.698 56.7725 161.698 57.9707C161.698 59.1813 162.408 60.2575 163.668 60.2575C164.928 60.2575 165.625 59.1813 165.625 57.9707Z" fill="#58595B"/>
<path d="M174.973 56.9189C174.973 56.173 174.642 55.696 173.884 55.696C173.272 55.696 172.624 56.1363 172.318 56.6009V60.9299H171.4V56.9189C171.4 56.173 171.082 55.696 170.311 55.696C169.712 55.696 169.076 56.1363 168.758 56.6133V60.9299H167.84V55.0236H168.758V55.8797C169.002 55.5006 169.798 54.877 170.666 54.877C171.571 54.877 172.085 55.3663 172.257 55.9776C172.587 55.4397 173.382 54.877 174.239 54.877C175.315 54.877 175.89 55.4762 175.89 56.6623V60.9302H174.973L174.973 56.9189Z" fill="#58595B"/>
<path d="M177.481 63.1802V55.0239H178.399V55.9044C178.827 55.3051 179.561 54.877 180.393 54.877C181.947 54.877 183.023 56.051 183.023 57.9707C183.023 59.8784 181.947 61.0769 180.393 61.0769C179.586 61.0769 178.876 60.6977 178.399 60.0374V63.1802H177.481ZM180.16 55.6963C179.439 55.6963 178.717 56.1242 178.399 56.6379V59.3038C178.717 59.8175 179.439 60.2578 180.16 60.2578C181.347 60.2578 182.057 59.2794 182.057 57.971C182.057 56.6626 181.347 55.6963 180.16 55.6963Z" fill="#58595B"/>
<path d="M187.954 60.2578C187.465 60.7959 186.792 61.0771 185.996 61.0771C184.993 61.0771 183.929 60.4047 183.929 59.1204C183.929 57.7997 184.993 57.176 185.996 57.176C186.804 57.176 187.477 57.4329 187.954 57.9831V56.9192C187.954 56.1245 187.318 55.6719 186.462 55.6719C185.752 55.6719 185.177 55.9288 184.651 56.4913L184.223 55.8553C184.859 55.1949 185.617 54.877 186.584 54.877C187.832 54.877 188.872 55.4395 188.872 56.8701V60.9302H187.954V60.2578ZM187.954 58.5703C187.599 58.0809 186.975 57.8364 186.327 57.8364C185.47 57.8364 184.871 58.3745 184.871 59.1328C184.871 59.8787 185.471 60.4168 186.327 60.4168C186.976 60.4168 187.6 60.1722 187.954 59.6829V58.5703Z" fill="#58595B"/>
<path d="M194.451 57.0665C194.451 56.0271 193.925 55.697 193.129 55.697C192.408 55.697 191.723 56.1373 191.38 56.6142V60.9309H190.462V55.0246H191.38V55.8807C191.796 55.3914 192.603 54.8779 193.484 54.8779C194.72 54.8779 195.369 55.5016 195.369 56.7856V60.9312H194.451L194.451 57.0665Z" fill="#58595B"/>
<path d="M197.277 62.5073C197.681 62.5073 197.95 62.373 198.158 61.8837L198.55 60.9912L196.078 55.0234H197.069L199.039 59.8661L200.997 55.0234H202L199.039 62.1282C198.684 62.9843 198.085 63.3144 197.302 63.3264C197.106 63.3264 196.8 63.2897 196.629 63.2409L196.776 62.4095C196.91 62.4706 197.13 62.5073 197.277 62.5073Z" fill="#58595B"/>
<path d="M147.85 54.8389C146.179 54.8389 144.823 56.232 144.823 57.9486C144.823 59.6681 146.179 61.0612 147.85 61.0612C149.521 61.0612 150.876 59.6681 150.876 57.9486C150.876 56.232 149.521 54.8389 147.85 54.8389ZM147.85 59.5927C146.992 59.5927 146.293 58.8546 146.293 57.9486C146.293 57.0443 146.992 56.3074 147.85 56.3074C148.708 56.3074 149.406 57.0443 149.406 57.9486C149.406 58.8546 148.708 59.5927 147.85 59.5927Z" fill="#58595B"/>
<path d="M131.37 52.4315C130.886 52.3017 130.388 52.5897 130.258 53.0731C130.129 53.5574 130.416 54.0546 130.899 54.1847C131.384 54.3145 131.881 54.0274 132.012 53.5431C132.142 53.0585 131.854 52.5614 131.37 52.4315Z" fill="#58595B"/>
<path d="M130.313 54.9756V60.6292V60.8889H130.572H131.697H131.956V60.6292V54.9756H130.313Z" fill="#58595B"/>
<path d="M144.244 54.9302C143.969 54.8567 143.723 54.8312 143.502 54.8337C143.495 54.8337 143.486 54.832 143.479 54.832C143.463 54.832 143.45 54.8348 143.435 54.8348C143.417 54.8357 143.4 54.8357 143.382 54.8365C143.206 54.8455 143.042 54.8755 142.893 54.9229C142.635 55.0011 142.458 55.1102 142.368 55.1755C141.987 55.4245 141.859 55.7181 141.859 55.7181L141.838 54.9675H140.547L140.572 60.6293V60.89H140.831H141.955H142.214V60.6293V57.2604C142.214 56.9761 142.346 56.7007 142.581 56.5406L142.586 56.5389C142.897 56.3426 143.403 56.1861 144.114 56.4834C144.122 56.487 144.13 56.4907 144.138 56.4935L144.508 55.6548C144.549 55.5594 144.587 55.4747 144.612 55.4175C144.612 55.4167 144.612 55.4167 144.612 55.4158L144.756 55.0894C144.599 55.0339 144.43 54.9801 144.244 54.9302Z" fill="#58595B"/>
<path d="M124.252 54.976L123.167 58.2922L122.156 54.9688H120.512L122.349 60.8905H123.697L124.93 57.209L126.163 60.8905H127.512L129.348 54.9688H127.705L126.693 58.2922L125.601 54.976H124.252Z" fill="#58595B"/>
<path d="M136.611 54.8379C135.837 54.8379 135.137 55.2341 134.783 55.7784L134.786 54.9649H133.412V63.7404V63.9995H133.671H134.796H135.055V63.7404V60.5605C135.055 60.5605 135.785 61.0613 136.611 61.0613C138.187 61.0613 139.465 59.6683 139.465 57.9488C139.464 56.2318 138.187 54.8379 136.611 54.8379ZM136.474 59.6254C135.614 59.6254 134.917 58.8893 134.917 57.9821C134.917 57.0753 135.615 56.3409 136.474 56.3409C137.333 56.3409 138.03 57.0753 138.03 57.9821C138.03 58.8893 137.333 59.6254 136.474 59.6254Z" fill="#58595B"/>
<path d="M115.865 60.2578C115.375 60.7959 114.703 61.0771 113.907 61.0771C112.904 61.0771 111.84 60.4047 111.84 59.1204C111.84 57.7997 112.904 57.176 113.907 57.176C114.715 57.176 115.388 57.4329 115.865 57.9831V56.9192C115.865 56.1245 115.229 55.6719 114.373 55.6719C113.663 55.6719 113.088 55.9288 112.562 56.4913L112.133 55.8553C112.77 55.1949 113.528 54.877 114.495 54.877C115.743 54.877 116.783 55.4395 116.783 56.8701V60.9302H115.865V60.2578ZM115.865 58.5703C115.51 58.0809 114.886 57.8364 114.238 57.8364C113.381 57.8364 112.782 58.3745 112.782 59.1328C112.782 59.8787 113.382 60.4168 114.238 60.4168C114.886 60.4168 115.51 60.1722 115.865 59.6829V58.5703Z" fill="#58595B"/>
<path d="M87.5999 36.825V26.3973H85.1199V25.0051H87.5999V21.0039H89.2445V25.0051H92.2848V26.3973H89.2445V36.5824C89.2445 37.7635 89.7408 38.5854 90.7968 38.5854C91.5088 38.5854 92.1286 38.2531 92.4728 37.8894L93.0926 39.1019C92.5051 39.6454 91.7883 40.0136 90.5485 40.0136C88.5645 40.0136 87.6044 38.8325 87.6044 36.8295L87.5999 36.825Z" fill="#58595B"/>
<path d="M94.3284 32.3078C94.3284 28.0326 97.1487 24.6377 101.521 24.6377C105.894 24.6377 108.746 28.0326 108.746 32.3078C108.746 36.5829 105.954 40.0096 101.521 40.0096C97.0887 40.0093 94.3284 36.5829 94.3284 32.3078ZM107.01 32.3078C107.01 29.0654 105.057 26.0611 101.521 26.0611C97.9845 26.0611 96.0644 29.0609 96.0644 32.3078C96.0644 35.5547 98.049 38.5814 101.521 38.5814C104.993 38.5814 107.01 35.5816 107.01 32.3078Z" fill="#58595B"/>
<path d="M113.889 37.2789V45.2233H112.277V25.0014H113.889V27.3053C114.941 25.8188 116.866 24.6377 119.098 24.6377C123.098 24.6377 125.794 27.6106 125.794 32.3078C125.794 37.005 123.098 40.0096 119.098 40.0096C116.99 40.0093 115.097 38.9496 113.889 37.2789ZM124.058 32.3078C124.058 28.76 122.166 26.0611 118.818 26.0611C116.742 26.0611 114.757 27.2736 113.889 28.6703V35.9139C114.757 37.3058 116.742 38.5814 118.818 38.5814C122.166 38.5814 124.058 35.8511 124.058 32.3078Z" fill="#58595B"/>
<path d="M128.371 32.3078C128.371 28.0326 131.255 24.6377 135.654 24.6377C138.259 24.6377 139.747 25.639 140.955 27.1255L139.839 28.0954C138.755 26.6404 137.391 26.0656 135.746 26.0656C132.242 26.0656 130.102 28.7959 130.102 32.3123C130.102 35.8286 132.242 38.5859 135.746 38.5859C137.391 38.5859 138.755 37.9797 139.839 36.5246L140.955 37.4946C139.747 39.0124 138.259 40.0093 135.654 40.0093C131.25 40.0093 128.371 36.5829 128.371 32.3078Z" fill="#58595B"/>
<path d="M143.063 32.3078C143.063 28.0326 145.883 24.6377 150.256 24.6377C154.628 24.6377 157.48 28.0326 157.48 32.3078C157.48 36.5829 154.688 40.0096 150.256 40.0096C145.823 40.0093 143.063 36.5829 143.063 32.3078ZM155.744 32.3078C155.744 29.0654 153.792 26.0611 150.256 26.0611C146.719 26.0611 144.799 29.0609 144.799 32.3078C144.799 35.5547 146.783 38.5814 150.256 38.5814C153.727 38.5814 155.744 35.5816 155.744 32.3078Z" fill="#58595B"/>
<path d="M172.048 39.645V37.3097C170.996 38.8276 169.072 40.0087 166.84 40.0087C162.872 40.0087 160.144 37.0358 160.144 32.3386C160.144 27.6414 162.872 24.6368 166.84 24.6368C168.98 24.6368 170.84 25.6965 172.048 27.3672V19.4229H173.693V39.6447L172.048 39.645ZM172.048 35.9761V28.7325C171.18 27.3089 169.228 26.065 167.12 26.065C163.804 26.065 161.88 28.7953 161.88 32.3386C161.88 35.8819 163.804 38.5853 167.12 38.5853C169.228 38.5853 171.18 37.3728 172.048 35.9761Z" fill="#58595B"/>
<path d="M177.225 32.3078C177.225 28.064 180.292 24.6377 184.449 24.6377C189.005 24.6377 191.517 28.1855 191.517 32.3978V32.8243H178.993C179.149 36.0084 181.317 38.6442 184.853 38.6442C186.745 38.6442 188.482 37.9483 189.754 36.6144L190.589 37.6426C189.102 39.1605 187.209 40.0093 184.729 40.0093C180.357 40.0093 177.225 36.8255 177.225 32.3078ZM184.417 26.0027C180.88 26.0027 179.116 29.034 178.993 31.5804H189.873C189.841 29.0923 188.169 26.0027 184.417 26.0027Z" fill="#58595B"/>
<path d="M195.054 39.6452V25.0007H196.666V27.5154C197.938 25.8764 199.642 24.6953 201.718 24.6953V26.4243C201.438 26.3615 201.222 26.3615 200.91 26.3615C199.39 26.3615 197.346 27.6952 196.661 28.9707V39.6407H195.049L195.054 39.6452Z" fill="#58595B"/>
<path d="M34.4059 27.0986C34.5436 27.139 34.6862 27.1794 34.8191 27.2245C34.6814 27.1839 34.5436 27.139 34.4059 27.0986Z" fill="#2BA9E0"/>
<path d="M36.9547 27.9023C37.0787 27.9427 37.2027 27.9876 37.3222 28.0282C37.1982 27.9876 37.0787 27.9427 36.9547 27.9023Z" fill="#2BA9E0"/>
<path d="M40.2938 29.1148C40.2938 29.1148 40.2845 29.1148 40.28 29.1104C40.28 29.1104 40.289 29.1104 40.2938 29.1148H40.303C40.5373 29.2091 40.7853 29.3036 41.0426 29.4023C41.0426 29.4023 41.0426 29.4023 41.0471 29.4023C41.0656 29.4067 41.0793 29.4157 41.0976 29.4202C41.102 29.4202 41.1113 29.4247 41.1161 29.4292C40.8313 29.317 40.5558 29.2135 40.2941 29.1104L40.2938 29.1148Z" fill="#2BA9E0"/>
<path d="M32.022 26.416C32.6145 26.5778 33.2022 26.7438 33.781 26.9101C33.2022 26.7393 32.6145 26.5778 32.022 26.416Z" fill="#2BA9E0"/>
<path d="M38.002 28.2617C38.126 28.3066 38.25 28.347 38.374 28.3918C38.25 28.3472 38.126 28.3024 38.002 28.2617Z" fill="#2BA9E0"/>
<path d="M29.2754 25.7197C29.4454 25.7601 29.6154 25.8005 29.7807 25.8409C29.6106 25.8005 29.4454 25.7601 29.2754 25.7197Z" fill="#2BA9E0"/>
<path d="M26.7954 25.1719C27.4247 25.302 28.0584 25.4369 28.683 25.5804C28.054 25.4369 27.4247 25.2975 26.7954 25.1719Z" fill="#2BA9E0"/>
<path d="M9.69359 41.4136C11.2804 34.7275 14.9598 28.8195 19.6604 24.3898C10.5846 22.799 2.02951 22.9362 0.307489 27.3804C-0.903928 30.5132 1.57389 35.2412 5.83405 39.9109C7.0003 41.1884 8.3419 41.6584 9.6184 41.7072L9.69359 41.4085V41.4136Z" fill="#2BA9E0"/>
<path d="M77.1289 27.3798C75.4113 22.9355 66.8562 22.7984 57.7756 24.3841C62.4763 28.8188 66.1557 34.7218 67.7425 41.4079L67.8174 41.7065C69.0989 41.6527 70.4355 41.1878 71.602 39.9102C75.8622 35.2456 78.34 30.5173 77.1289 27.3798Z" fill="#F69322"/>
<path d="M38.7181 29.8862C32.8263 30.7967 22.8042 35.7597 14.5745 40.2533C13.9287 40.6058 11.8664 41.795 9.62366 41.7022L9.69884 41.4035C11.2856 34.7174 14.9701 28.8094 19.6707 24.375C20.4265 24.5071 21.1924 24.654 21.9533 24.8057C21.9583 24.8057 21.9634 24.8057 21.9735 24.8057C21.9735 24.8057 21.9836 24.8057 21.9884 24.8057C22.7492 24.9625 23.5053 25.124 24.2611 25.3001C24.2611 25.3001 24.2712 25.3001 24.276 25.3001C24.6513 25.3881 25.027 25.4762 25.4024 25.5693C25.4125 25.5693 25.4226 25.5693 25.4324 25.574C26.1733 25.7552 26.9042 25.9411 27.6299 26.1368C27.6499 26.1416 27.6751 26.1466 27.695 26.1565C27.7001 26.1565 27.7051 26.1565 27.7099 26.1565C28.4208 26.3474 29.1267 26.5482 29.8174 26.7487C29.8275 26.7487 29.8373 26.7537 29.8474 26.7585C29.8626 26.7585 29.8774 26.7683 29.8974 26.7731C30.2329 26.8709 30.5631 26.9739 30.8936 27.0717C30.9087 27.0717 30.9186 27.0815 30.9337 27.0866C30.9587 27.0964 30.9836 27.1012 31.0089 27.111C31.6645 27.3117 32.3053 27.5173 32.9312 27.7228C32.9514 27.7276 32.9713 27.7374 32.9963 27.7425C33.0263 27.7523 33.0564 27.7621 33.0864 27.7719C33.3868 27.8748 33.687 27.9727 33.9825 28.0753C34.0175 28.0851 34.0475 28.0997 34.0826 28.1095C34.3531 28.2026 34.6232 28.3005 34.8886 28.3933C34.9237 28.4079 34.9635 28.4177 34.9986 28.4326C35.0037 28.4326 35.0138 28.4326 35.0188 28.4376C35.294 28.5355 35.5695 28.6384 35.8346 28.741C35.8548 28.7508 35.8748 28.7556 35.8947 28.7654C35.9298 28.78 35.9648 28.7898 35.9999 28.8047C36.2703 28.9076 36.5405 29.0102 36.8009 29.1131H36.811C37.0663 29.216 37.3364 29.3187 37.617 29.4263C37.617 29.4263 37.617 29.4263 37.622 29.4263C37.642 29.4314 37.6571 29.4409 37.677 29.446" fill="#0E73BA"/>
<path d="M38.7182 29.8862C44.61 30.7967 54.6321 35.7597 62.8618 40.2533C63.5076 40.6058 65.57 41.795 67.8127 41.7022L67.7375 41.4035C66.1507 34.7174 62.4662 28.8094 57.7656 24.375C57.0098 24.5071 56.2436 24.654 55.4828 24.8057C55.4777 24.8057 55.4727 24.8057 55.4626 24.8057C55.4626 24.8057 55.4525 24.8057 55.4477 24.8057C54.6868 24.9625 53.931 25.124 53.1749 25.3001C53.1749 25.3001 53.1649 25.3001 53.1598 25.3001C52.7844 25.3881 52.4088 25.4762 52.0334 25.5693C52.0233 25.5693 52.0132 25.5693 52.0034 25.574C51.2624 25.7552 50.5316 25.9411 49.8058 26.1368C49.7859 26.1416 49.7607 26.1466 49.7407 26.1565C49.7357 26.1565 49.7306 26.1565 49.7259 26.1565C49.0149 26.3474 48.3091 26.5482 47.6184 26.7487C47.6083 26.7487 47.5984 26.7537 47.5883 26.7585C47.5735 26.7585 47.5583 26.7683 47.5384 26.7731C47.2032 26.8709 46.8727 26.9739 46.5422 27.0717C46.5273 27.0717 46.5172 27.0815 46.5021 27.0866C46.4771 27.0964 46.4521 27.1012 46.4269 27.111C45.7712 27.3117 45.1304 27.5173 44.5045 27.7228C44.4846 27.7276 44.4644 27.7374 44.4395 27.7425C44.4094 27.7523 44.3794 27.7621 44.3494 27.7719C44.0489 27.8748 43.7487 27.9727 43.4533 28.0753C43.4182 28.0851 43.3882 28.0997 43.3532 28.1095C43.0827 28.2026 42.8125 28.3005 42.5471 28.3933C42.5121 28.4079 42.472 28.4177 42.4372 28.4326C42.4321 28.4326 42.4223 28.4326 42.4172 28.4376C42.142 28.5355 41.8665 28.6384 41.6011 28.741C41.5812 28.7508 41.561 28.7556 41.5411 28.7654C41.506 28.78 41.4709 28.7898 41.4359 28.8047C41.1654 28.9076 40.8953 29.0102 40.6349 29.1131H40.6248C40.3695 29.216 40.0993 29.3187 39.8188 29.4263C39.8188 29.4263 39.8188 29.4263 39.8137 29.4263C39.7935 29.4314 39.7787 29.4409 39.7585 29.446L38.6971 29.8523L38.7182 29.8862Z" fill="#FFD600"/>
<path d="M39.7593 29.4898C40.0696 29.3675 40.37 29.25 40.6554 29.1373C45.3209 27.2969 51.6633 25.4516 57.7706 24.3846C52.2441 19.1768 45.3108 16 38.7182 16C32.1252 16 25.192 19.1717 19.6606 24.3846C25.7679 25.4516 32.1154 27.2969 36.781 29.1373C37.3715 29.3723 38.0224 29.6218 38.7182 29.8863C38.8733 29.8274 39.0186 29.7735 39.1687 29.7149L39.7593 29.4898Z" fill="#8CC542"/>
</g>
<defs>
<clipPath id="clip0_2043_2399">
<rect width="202" height="48" fill="white" transform="translate(0 16)"/>
</clipPath>
</defs>
</svg>
