<svg width="57" height="22" viewBox="0 0 57 22" fill="none" xmlns="http://www.w3.org/2000/svg">
<path fill-rule="evenodd" clip-rule="evenodd" d="M42.0984 7.30606C38.5389 3.37563 33.7574 0.969727 28.5 0.969727C23.2426 0.969727 18.4611 3.37563 14.9016 7.30606C17.0238 7.70242 19.1859 8.22758 21.351 8.85764C23.2008 9.39594 24.9412 9.98168 26.4001 10.5373C26.983 10.7593 28.4428 11.4071 28.5 11.4366C28.5572 11.4071 30.017 10.7593 30.5999 10.5373C32.0588 9.98168 33.7992 9.39594 35.649 8.85764C37.8141 8.22758 39.9762 7.70242 42.0984 7.30606ZM8.98969 14.5081C8.21309 16.5828 7.6829 18.7729 7.41471 21.0304C3.03711 20.5459 0 13.6143 0 11.9577C0 9.21069 3.1874 7.8372 6.5241 7.8372C8.45189 7.8372 10.417 8.0051 12.3354 8.27817C10.98 10.1256 9.8467 12.2186 8.98969 14.5081ZM27.8133 12.6444C27.1265 12.6444 21.3445 14.3789 17.3404 16.5932C16.4476 17.0869 15.5738 17.6122 14.7249 18.1225C12.558 19.4252 10.5531 20.6304 8.80656 20.9653C9.0732 18.8702 9.57383 16.8655 10.276 14.9896C11.1714 12.5976 12.3945 10.415 13.8781 8.52123C21.3966 9.81739 27.8133 12.5142 27.8133 12.6444ZM47.8102 13.9897C48.696 16.2157 49.2945 18.5831 49.5853 21.0304C53.9629 20.5459 57 13.6143 57 11.9577C57 9.21069 53.8126 7.8372 50.4759 7.8372C48.548 7.8372 46.5829 8.00511 44.6644 8.2782C45.9161 9.98456 46.979 11.9011 47.8102 13.9897ZM39.6596 16.5932C35.6555 14.3789 29.8735 12.6444 29.1867 12.6444C29.1867 12.5142 35.6034 9.81739 43.1219 8.52123C44.5032 10.2844 45.6586 12.2978 46.534 14.4975C47.3363 16.5135 47.9033 18.6859 48.1934 20.9653C46.4469 20.6304 44.442 19.4252 42.2751 18.1225C41.4262 17.6122 40.5524 17.087 39.6596 16.5932Z" fill="white"/>
</svg>
