<svg width="40" height="40" viewBox="0 0 40 40" fill="none" xmlns="http://www.w3.org/2000/svg">
<rect width="40" height="40" rx="20" fill="url(#paint0_linear_88_3594)"/>
<path d="M19.0966 11.2607C17.2274 11.2607 15.5669 12.4915 14.9882 14.3091L14.7796 15.5573V19.6944C14.7796 19.9013 14.8834 20.085 15.0571 20.1914L18.3093 22.1107V16.4255H18.3102V16.1558L21.602 14.2086C21.9203 14.0198 22.267 13.8909 22.626 13.8235L22.3091 12.7225C21.4915 11.7866 20.3219 11.2549 19.0966 11.2607ZM19.0966 12.3967L19.0909 12.4025C19.8433 12.4025 20.5664 12.6684 21.1451 13.1605C21.1215 13.1721 21.0752 13.2021 21.0413 13.2195L17.6381 15.2267C17.4644 15.3272 17.3605 15.5167 17.3605 15.7236V20.435L15.8964 19.5707V15.6762C15.8954 13.8673 17.3275 12.3996 19.0966 12.3967Z" fill="white"/>
<path d="M26.938 14.829C26.0035 13.1712 24.1325 12.3137 22.3062 12.7093L21.1464 13.1483L17.6481 15.2169C17.4732 15.3204 17.3698 15.5043 17.3667 15.7116L17.3698 19.5558L22.1771 16.7132L22.1776 16.714L22.4057 16.5791L25.6981 18.5252C26.0168 18.7132 26.2992 18.9562 26.5357 19.2409L27.3082 18.4093C27.6908 17.2163 27.5556 15.913 26.938 14.829ZM25.9774 15.3971L25.9697 15.3949C26.3459 16.0623 26.4826 16.8366 26.3558 17.5959C26.3342 17.5808 26.2858 17.5548 26.254 17.5333L22.8552 15.5184C22.6834 15.4146 22.4712 15.4173 22.2963 15.5207L18.3124 17.8764L18.3112 16.1456L21.6042 14.1983C23.1334 13.293 25.0904 13.8294 25.9774 15.3971Z" fill="white"/>
<path d="M27.8415 23.5683C28.776 21.9104 28.5656 19.8222 27.3179 18.4001L26.3668 17.5909L22.8685 15.5223C22.6936 15.4189 22.4863 15.4191 22.3096 15.52L19.0605 17.4449L23.8678 20.2875L23.8673 20.2883L24.0954 20.4232L24.0961 24.3165C24.0965 24.6932 24.0322 25.0652 23.9097 25.4173L24.9991 25.6867C26.1992 25.4295 27.2337 24.658 27.8415 23.5683ZM26.8809 23.0002L26.8788 22.9923C26.5026 23.6596 25.9162 24.1681 25.2107 24.4353C25.2127 24.4086 25.2105 24.3525 25.2128 24.3137L25.2172 20.2916C25.219 20.0873 25.1107 19.9004 24.9357 19.797L20.9518 17.4413L22.4148 16.5748L25.7079 18.522C27.2379 19.4256 27.7629 21.4297 26.8809 23.0002Z" fill="white"/>
<path d="M20.9034 28.7393C22.7726 28.7393 24.4331 27.5085 25.0118 25.6909L25.2204 24.4427V20.3056C25.2204 20.0987 25.1166 19.915 24.9429 19.8086L21.6907 17.8893V23.5745H21.6898V23.8442L18.398 25.7914C18.0797 25.9802 17.733 26.1091 17.374 26.1765L17.6909 27.2775C18.5085 28.2134 19.6781 28.7451 20.9034 28.7393ZM20.9034 27.6033L20.9091 27.5975C20.1567 27.5975 19.4336 27.3316 18.8549 26.8395C18.8785 26.8279 18.9248 26.7979 18.9587 26.7805L22.3619 24.7733C22.5356 24.6728 22.6395 24.4833 22.6395 24.2764V19.565L24.1036 20.4293V24.3238C24.1046 26.1327 22.6725 27.6004 20.9034 27.6033Z" fill="white"/>
<path d="M13.062 25.171C13.9965 26.8288 15.8675 27.6863 17.6938 27.2907L18.8536 26.8517L22.3519 24.7831C22.5268 24.6796 22.6302 24.4957 22.6333 24.2884L22.6302 20.4442L17.8229 23.2868L17.8224 23.286L17.5943 23.4209L14.3019 21.4748C13.9832 21.2868 13.7008 21.0438 13.4643 20.7591L12.6918 21.5907C12.3092 22.7837 12.4444 24.087 13.062 25.171ZM14.0226 24.6029L14.0303 24.6051C13.6541 23.9377 13.5174 23.1634 13.6442 22.4041C13.6658 22.4192 13.7142 22.4452 13.746 22.4667L17.1448 24.4816C17.3166 24.5854 17.5288 24.5827 17.7037 24.4793L21.6876 22.1236L21.6888 23.8544L18.3958 25.8017C16.8666 26.707 14.9096 26.1706 14.0226 24.6029Z" fill="white"/>
<path d="M12.1585 16.4316C11.224 18.0895 11.4344 20.1777 12.6821 21.5998L13.6332 22.409L17.1315 24.4775C17.3064 24.581 17.5137 24.5807 17.6904 24.4798L20.9395 22.555L16.1322 19.7124L16.1327 19.7115L15.9046 19.5767L15.9039 15.6834C15.9035 15.3067 15.9678 14.9347 16.0903 14.5826L15.0009 14.3132C13.8008 14.5703 12.7663 15.3419 12.1585 16.4316ZM13.1191 16.9996L13.1212 17.0076C13.4974 16.3402 14.0838 15.8318 14.7893 15.5646C14.7873 15.5913 14.7895 15.6473 14.7872 15.6862L14.7828 19.7083C14.781 19.9126 14.8893 20.0995 15.0643 20.2029L19.0482 22.5586L17.5852 23.4251L14.2921 21.4779C12.7621 20.5743 12.2371 18.5702 13.1191 16.9996Z" fill="white"/>
<defs>
<linearGradient id="paint0_linear_88_3594" x1="20" y1="0" x2="20" y2="40" gradientUnits="userSpaceOnUse">
<stop stop-color="#1C6DFF"/>
<stop offset="1" stop-color="#C025FF"/>
</linearGradient>
</defs>
</svg>
