<svg width="32" height="32" viewBox="0 0 32 32" fill="none" xmlns="http://www.w3.org/2000/svg">
<g clip-path="url(#clip0_1758_6893)">
<rect width="32" height="32" rx="4" fill="url(#paint0_linear_1758_6893)"/>
<g style="mix-blend-mode:soft-light" opacity="0.45">
<circle cx="-3.5" cy="-3.5" r="32.5" fill="url(#paint1_linear_1758_6893)"/>
</g>
<g clip-path="url(#clip1_1758_6893)">
<path d="M24.1576 14.1585C23.3467 14.1585 22.6569 14.6853 22.4114 15.4145H16.5795V14.0751H19.1333C19.2888 14.0751 19.438 14.0133 19.5479 13.9033L20.8254 12.6258C22.0178 13.2422 23.5059 12.325 23.4879 10.9765C23.4879 9.96064 22.6614 9.13414 21.6455 9.13414C20.2971 9.11623 19.3797 10.6041 19.9963 11.7966L18.8904 12.9024H16.5795V9.72048C16.4499 5.10949 9.95051 4.66599 9.16641 9.17416C5.77768 9.66896 4.82601 14.1788 7.70811 16.0009C4.82452 17.8243 5.77963 22.3337 9.16637 22.8277C9.95231 27.338 16.4503 26.8902 16.5795 22.2812V19.0994H18.8904L19.9963 20.2052C19.3798 21.3976 20.297 22.8857 21.6455 22.8676C22.6614 22.8676 23.4879 22.0411 23.4879 21.0252C23.5058 19.6769 22.0179 18.7594 20.8255 19.376L19.5479 18.0985C19.438 17.9885 19.2888 17.9267 19.1333 17.9267H16.5795V16.5872H22.4115C23.0999 18.5374 25.959 18.0936 26.0001 16.0008C26 14.985 25.1735 14.1585 24.1576 14.1585ZM21.6455 10.3069C22.0147 10.3069 22.3152 10.6073 22.3152 10.9766C22.2815 11.8639 21.0093 11.8637 20.9757 10.9766C20.9757 10.6073 21.2761 10.3069 21.6455 10.3069ZM15.4068 10.9766C15.4068 11.6922 14.8246 12.2744 14.109 12.2744C13.7852 12.2744 13.5227 12.5369 13.5227 12.8607C13.5227 13.1845 13.7852 13.4471 14.109 13.4471C14.5848 13.4471 15.0294 13.3115 15.4068 13.0775V18.9243C15.0294 18.6903 14.5848 18.5548 14.109 18.5548C13.7852 18.5548 13.5227 18.8173 13.5227 19.1411C13.5227 19.4649 13.7852 19.7274 14.109 19.7274C14.8246 19.7274 15.4068 20.3096 15.4068 21.0252V22.2813C15.4068 23.6895 14.2611 24.8351 12.853 24.8351C10.4215 24.9101 9.1869 21.212 11.5969 20.9834C11.9207 20.9835 12.1833 20.721 12.1833 20.3971C12.1833 20.0733 11.9207 19.8108 11.5969 19.8108C10.4547 19.8108 9.49144 20.5901 9.20996 21.6449C6.22752 20.9767 6.62893 16.6662 9.71284 16.5872C10.4284 16.5872 11.0106 17.1694 11.0106 17.885C11.0106 18.2088 11.2731 18.4713 11.5969 18.4713C11.9207 18.4713 12.1833 18.2088 12.1833 17.885C12.1833 17.1308 11.8434 16.4544 11.309 16.0009C11.8434 15.5474 12.1833 14.871 12.1833 14.1168C12.1833 13.793 11.9207 13.5304 11.5969 13.5304C11.2731 13.5304 11.0106 13.793 11.0106 14.1168C11.0106 14.8324 10.4284 15.4145 9.71281 15.4145C6.62889 15.3359 6.22775 11.0243 9.20996 10.3569C9.4914 11.4116 10.4547 12.191 11.5969 12.191C11.9207 12.191 12.1833 11.9284 12.1833 11.6046C12.1833 11.2808 11.9207 11.0183 11.5969 11.0183C10.8813 11.0183 10.2991 10.4361 10.2991 9.72052C10.4272 6.33756 15.2789 6.33772 15.4068 9.72055C15.4068 9.72055 15.4068 10.9766 15.4068 10.9766ZM21.6455 20.3554C22.0147 20.3554 22.3152 20.6559 22.3152 21.0252C22.2815 21.9124 21.0093 21.9122 20.9757 21.0252C20.9757 20.6559 21.2761 20.3554 21.6455 20.3554ZM24.1576 16.6706C23.7883 16.6706 23.4879 16.3702 23.4879 16.0009C23.5215 15.1136 24.7938 15.1139 24.8273 16.0009C24.8273 16.3702 24.5269 16.6706 24.1576 16.6706Z" fill="white"/>
</g>
</g>
<defs>
<linearGradient id="paint0_linear_1758_6893" x1="5.5" y1="32" x2="39.4088" y2="13.8143" gradientUnits="userSpaceOnUse">
<stop stop-color="#7B21A7"/>
<stop offset="1" stop-color="#1974AD"/>
</linearGradient>
<linearGradient id="paint1_linear_1758_6893" x1="24.1852" y1="13.3519" x2="-23.3611" y2="-29.3796" gradientUnits="userSpaceOnUse">
<stop stop-color="white"/>
<stop offset="1" stop-color="white" stop-opacity="0"/>
</linearGradient>
<clipPath id="clip0_1758_6893">
<rect width="32" height="32" fill="white"/>
</clipPath>
<clipPath id="clip1_1758_6893">
<rect width="20" height="20" fill="white" transform="translate(6 6)"/>
</clipPath>
</defs>
</svg>
