<svg xmlns="http://www.w3.org/2000/svg" width="32" height="32" fill="none"><g clip-path="url(#clip0_1277_48957)"><rect width="32" height="32" fill="url(#paint0_linear_1277_48957)" rx="4"/><circle cx="-3.5" cy="-3.5" r="32.5" fill="url(#paint1_linear_1277_48957)" opacity=".45" style="mix-blend-mode:soft-light"/><path fill="#fff" fill-rule="evenodd" d="M6 10a3 3 0 0 1 3-3h10a3 3 0 0 1 3 3h1a3 3 0 0 1 3 3v9a3 3 0 0 1-3 3H9a3 3 0 0 1-3-3V10Zm14.17 13H9a1 1 0 0 1-1-1V10a1 1 0 0 1 1-1h10a1 1 0 0 1 1 1v12c0 .35.06.687.17 1ZM22 12v10a1 1 0 1 0 2 0v-9a1 1 0 0 0-1-1h-1Zm-12 0a1 1 0 0 1 1-1h6a1 1 0 0 1 1 1v4a1 1 0 0 1-1 1h-6a1 1 0 0 1-1-1v-4Zm2 1v2h4v-2h-4Zm-2 7a1 1 0 0 1 1-1h6a1 1 0 1 1 0 2h-6a1 1 0 0 1-1-1Z" clip-rule="evenodd"/></g><defs><linearGradient id="paint0_linear_1277_48957" x1="32" x2="-1.054" y1="8.521" y2="11.19" gradientUnits="userSpaceOnUse"><stop stop-color="#26B3C5"/><stop offset="1" stop-color="#2C95D7"/></linearGradient><linearGradient id="paint1_linear_1277_48957" x1="24.185" x2="-23.361" y1="13.352" y2="-29.38" gradientUnits="userSpaceOnUse"><stop stop-color="#fff"/><stop offset="1" stop-color="#fff" stop-opacity="0"/></linearGradient><clipPath id="clip0_1277_48957"><path fill="#fff" d="M0 0h32v32H0z"/></clipPath></defs></svg>