<svg xmlns="http://www.w3.org/2000/svg" width="32" height="32" fill="none"><g clip-path="url(#clip0_1273_48550)"><rect width="32" height="32" fill="#2C95D7" rx="4"/><circle cx="-3.5" cy="-3.5" r="32.5" fill="url(#paint0_linear_1273_48550)" opacity=".45" style="mix-blend-mode:soft-light"/><path fill="#fff" fill-rule="evenodd" d="M6 9a3 3 0 0 1 3-3h14a3 3 0 0 1 3 3v10a3 3 0 0 1-3 3h-3.47l.373 1.489.804.804A1 1 0 0 1 20 26h-8a1 1 0 0 1-.707-1.707l.804-.804.372-1.489H9a3 3 0 0 1-3-3V9Zm2 9v1a1 1 0 0 0 1 1H23a1 1 0 0 0 1-1v-1H8Zm16-2H8V9a1 1 0 0 1 1-1h14a1 1 0 0 1 1 1v7Zm-6.53 6h-2.94l-.5 2h3.94l-.5-2Z" clip-rule="evenodd"/></g><defs><linearGradient id="paint0_linear_1273_48550" x1="24.185" x2="-23.361" y1="13.352" y2="-29.38" gradientUnits="userSpaceOnUse"><stop stop-color="#fff"/><stop offset="1" stop-color="#fff" stop-opacity="0"/></linearGradient><clipPath id="clip0_1273_48550"><path fill="#fff" d="M0 0h32v32H0z"/></clipPath></defs></svg>