<svg width="32" height="32" viewBox="0 0 32 32" fill="none" xmlns="http://www.w3.org/2000/svg">
<rect width="32" height="32" rx="4" fill="url(#paint0_linear_1025_7178)"/>
<path fill-rule="evenodd" clip-rule="evenodd" d="M7.6001 9.99998C7.6001 8.67449 8.67461 7.59998 10.0001 7.59998H22.0001C23.3256 7.59998 24.4001 8.67449 24.4001 9.99998V19.6C24.4001 20.9255 23.3256 22 22.0001 22H19.3371L19.4837 22.5865L20.4487 23.5514C20.7919 23.8946 20.8945 24.4108 20.7088 24.8592C20.5231 25.3076 20.0855 25.6 19.6001 25.6H12.4001C11.9148 25.6 11.4772 25.3076 11.2915 24.8592C11.1057 24.4108 11.2084 23.8946 11.5516 23.5514L12.5166 22.5865L12.6632 22H10.0001C8.67461 22 7.6001 20.9255 7.6001 19.6V9.99998ZM14.5257 18.4C14.508 18.3996 14.4904 18.3996 14.4728 18.4H10.0001V9.99998H22.0001V18.4H17.5275C17.5099 18.3996 17.4923 18.3996 17.4746 18.4H14.5257Z" fill="white"/>
<defs>
<linearGradient id="paint0_linear_1025_7178" x1="32" y1="8.52125" x2="-1.0543" y2="11.1897" gradientUnits="userSpaceOnUse">
<stop stop-color="#26B3C5"/>
<stop offset="1" stop-color="#2C95D7"/>
</linearGradient>
</defs>
</svg>
