<svg width="32" height="32" fill="none" xmlns="http://www.w3.org/2000/svg">
<g clip-path="url(#clip0_4683_36483)">
<rect width="32" height="32" rx="4" fill="url(#paint0_linear_4683_36483)"/>
<g style="mix-blend-mode:soft-light" opacity="0.45">
<circle cx="-3.5" cy="-3.5" r="32.5" fill="url(#paint1_linear_4683_36483)"/>
</g>
<path fill-rule="evenodd" clip-rule="evenodd" d="M8.25203 14H9C10.6569 14 12 15.3431 12 17V18C12 18.5523 12.4477 19 13 19C14.6569 19 16 20.3431 16 22V24C16.6906 24 17.3608 23.9125 18 23.748V22C18 20.3431 19.3431 19 21 19H23.4185C23.7935 18.0736 24 17.0609 24 16C24 14.9391 23.7935 13.9264 23.4185 13L23 13C22.4477 13 22 13.4477 22 14C22 15.6569 20.6569 17 19 17C17.3431 17 16 15.6569 16 14C16 13.4477 15.5523 13 15 13H14.5C12.6503 13 11.1357 11.5651 11.0086 9.74772C9.67527 10.8136 8.69034 12.2971 8.25203 14ZM11.5556 7.03942C8.26289 8.67574 6 12.0736 6 16C6 21.5228 10.4772 26 16 26C21.5228 26 26 21.5228 26 16C26 14.4039 25.6261 12.8951 24.961 11.5565C24.9607 11.5559 24.9604 11.5552 24.9601 11.5546C23.3236 8.26243 19.926 6 16 6C14.4035 6 12.8945 6.3741 11.5556 7.03942ZM13 8.58152V9.5C13 10.3284 13.6716 11 14.5 11H15C16.6569 11 18 12.3431 18 14C18 14.5523 18.4477 15 19 15C19.5523 15 20 14.5523 20 14C20 12.5811 20.9851 11.3922 22.3087 11.08C20.8446 9.20531 18.563 8 16 8C14.9391 8 13.9264 8.20651 13 8.58152ZM22.2454 21H21C20.4477 21 20 21.4477 20 22V22.9297C20.8634 22.4303 21.6249 21.7741 22.2454 21ZM14 23.748C10.5495 22.8599 8 19.7277 8 16H9C9.55228 16 10 16.4477 10 17V18C10 19.6569 11.3431 21 13 21C13.5523 21 14 21.4477 14 22V23.748Z" fill="white"/>
</g>
<defs>
<linearGradient id="paint0_linear_4683_36483" x1="6.01465e-08" y1="24.8" x2="33.5385" y2="21.0234" gradientUnits="userSpaceOnUse">
<stop stop-color="#7B21A7"/>
<stop offset="1" stop-color="#1974AD"/>
</linearGradient>
<linearGradient id="paint1_linear_4683_36483" x1="24.1852" y1="13.3519" x2="-23.3611" y2="-29.3796" gradientUnits="userSpaceOnUse">
<stop stop-color="white"/>
<stop offset="1" stop-color="white" stop-opacity="0"/>
</linearGradient>
<clipPath id="clip0_4683_36483">
<rect width="32" height="32" rx="4" fill="white"/>
</clipPath>
</defs>
</svg>
