<svg width="32" height="32" viewBox="0 0 32 32" fill="none" xmlns="http://www.w3.org/2000/svg">
<rect width="32" height="32" rx="4" fill="url(#paint0_linear_1025_7198)"/>
<path d="M6.3999 9.99998C6.3999 8.67449 7.47442 7.59998 8.7999 7.59998H17.1999C18.5254 7.59998 19.5999 8.67449 19.5999 9.99998V14.8C19.5999 16.1255 18.5254 17.2 17.1999 17.2H14.7999L11.1999 20.8V17.2H8.7999C7.47442 17.2 6.3999 16.1255 6.3999 14.8V9.99998Z" fill="white"/>
<path d="M21.9999 12.4V15.6C21.9999 17.8091 20.209 19.6 17.9999 19.6H15.794L13.674 21.72C14.0097 21.8987 14.393 22 14.7999 22H17.1999L20.7999 25.6V22H23.1999C24.5254 22 25.5999 20.9255 25.5999 19.6V14.8C25.5999 13.4745 24.5254 12.4 23.1999 12.4H21.9999Z" fill="white"/>
<defs>
<linearGradient id="paint0_linear_1025_7198" x1="32" y1="8.52125" x2="-1.0543" y2="11.1897" gradientUnits="userSpaceOnUse">
<stop stop-color="#EF476F"/>
<stop offset="1" stop-color="#9D41C9"/>
</linearGradient>
</defs>
</svg>
