<svg width="32" height="32" viewBox="0 0 32 32" fill="none" xmlns="http://www.w3.org/2000/svg">
<rect width="32" height="32" rx="4" fill="url(#paint0_linear_1025_7373)"/>
<path d="M24.3303 8.22781C22.7767 7.50093 21.1156 6.97267 19.3789 6.67188C19.1656 7.05749 18.9164 7.57614 18.7446 7.98873C16.8985 7.71109 15.0693 7.71109 13.2572 7.98873C13.0854 7.57614 12.8306 7.05749 12.6154 6.67188C10.8768 6.97267 9.21376 7.50287 7.66019 8.23166C4.52664 12.9669 3.67719 17.5845 4.10192 22.1365C6.18025 23.6885 8.19441 24.6313 10.1746 25.2483C10.6635 24.5754 11.0995 23.8601 11.4752 23.1063C10.7598 22.8344 10.0745 22.499 9.42707 22.1095C9.59884 21.9822 9.76686 21.8492 9.92918 21.7123C13.8782 23.5594 18.1689 23.5594 22.0707 21.7123C22.235 21.8492 22.403 21.9822 22.5728 22.1095C21.9235 22.5009 21.2364 22.8363 20.521 23.1082C20.8966 23.8601 21.3308 24.5774 21.8216 25.2502C23.8036 24.6333 25.8197 23.6905 27.898 22.1365C28.3964 16.8595 27.0467 12.2843 24.3303 8.22781ZM12.0132 19.337C10.8277 19.337 9.85555 18.2303 9.85555 16.8826C9.85555 15.535 10.807 14.4264 12.0132 14.4264C13.2194 14.4264 14.1916 15.533 14.1708 16.8826C14.1727 18.2303 13.2194 19.337 12.0132 19.337ZM19.9867 19.337C18.8013 19.337 17.8291 18.2303 17.8291 16.8826C17.8291 15.535 18.7805 14.4264 19.9867 14.4264C21.193 14.4264 22.1651 15.533 22.1444 16.8826C22.1444 18.2303 21.193 19.337 19.9867 19.337Z" fill="white"/>
<defs>
<linearGradient id="paint0_linear_1025_7373" x1="16" y1="0" x2="16" y2="32" gradientUnits="userSpaceOnUse">
<stop stop-color="#616BD5"/>
<stop offset="1" stop-color="#99A2FF"/>
</linearGradient>
</defs>
</svg>
