<svg xmlns="http://www.w3.org/2000/svg" width="32" height="32" fill="none"><g clip-path="url(#clip0_1273_48532)"><rect width="32" height="32" fill="#9D41C9" rx="4"/><circle cx="-3.5" cy="-3.5" r="32.5" fill="url(#paint0_linear_1273_48532)" opacity=".45" style="mix-blend-mode:soft-light"/><path fill="#fff" fill-rule="evenodd" d="M6 10a3 3 0 0 1 3-3h10a3 3 0 0 1 3 3v1h1a3 3 0 0 1 3 3v6a3 3 0 0 1-3 3h-1v3a1 1 0 0 1-1.707.707L16.586 23H13c-.463 0-.902-.105-1.293-.293A1 1 0 0 1 10 22v-3H9a3 3 0 0 1-3-3v-6Zm7.414 11H17a1 1 0 0 1 .707.293L20 23.586V22a1 1 0 0 1 1-1h2a1 1 0 0 0 1-1v-6a1 1 0 0 0-1-1h-1v3a3 3 0 0 1-3 3h-3.586l-2 2ZM20 10a1 1 0 0 0-1-1H9a1 1 0 0 0-1 1v6a1 1 0 0 0 1 1h2a1 1 0 0 1 1 1v1.586l2.293-2.293A1 1 0 0 1 15 17h4a1 1 0 0 0 1-1v-6Z" clip-rule="evenodd"/></g><defs><linearGradient id="paint0_linear_1273_48532" x1="24.185" x2="-23.361" y1="13.352" y2="-29.38" gradientUnits="userSpaceOnUse"><stop stop-color="#fff"/><stop offset="1" stop-color="#fff" stop-opacity="0"/></linearGradient><clipPath id="clip0_1273_48532"><path fill="#fff" d="M0 0h32v32H0z"/></clipPath></defs></svg>