<svg xmlns="http://www.w3.org/2000/svg" width="32" height="32" fill="none"><rect width="32" height="32" fill="#9D41C9" rx="4"/><path fill="#fff" fill-rule="evenodd" d="M6 10a3 3 0 0 1 3-3h10a3 3 0 0 1 3 3v1h1a3 3 0 0 1 3 3v6a3 3 0 0 1-3 3h-1v3a1 1 0 0 1-1.707.707L16.586 23H13c-.463 0-.902-.105-1.293-.293A1 1 0 0 1 10 22v-3H9a3 3 0 0 1-3-3v-6Zm7.414 11H17a1 1 0 0 1 .707.293L20 23.586V22a1 1 0 0 1 1-1h2a1 1 0 0 0 1-1v-6a1 1 0 0 0-1-1h-1v3a3 3 0 0 1-3 3h-3.586l-2 2ZM20 10a1 1 0 0 0-1-1H9a1 1 0 0 0-1 1v6a1 1 0 0 0 1 1h2a1 1 0 0 1 1 1v1.586l2.293-2.293A1 1 0 0 1 15 17h4a1 1 0 0 0 1-1v-6Z" clip-rule="evenodd"/></svg>