<svg width="32" height="32" viewBox="0 0 32 32" fill="none" xmlns="http://www.w3.org/2000/svg">
<rect width="32" height="32" rx="4" fill="url(#paint0_linear_1025_7218)"/>
<path fill-rule="evenodd" clip-rule="evenodd" d="M11.1999 11.2V10C11.1999 8.0118 12.8117 6.40002 14.7999 6.40002H17.1999C19.1881 6.40002 20.7999 8.0118 20.7999 10V11.2H23.1999C24.5254 11.2 25.5999 12.2745 25.5999 13.6V17.8849C22.6115 18.9937 19.3778 19.6 15.9999 19.6C12.6221 19.6 9.38834 18.9937 6.3999 17.8849V13.6C6.3999 12.2745 7.47442 11.2 8.7999 11.2H11.1999ZM13.5999 10C13.5999 9.33728 14.1372 8.80002 14.7999 8.80002H17.1999C17.8626 8.80002 18.3999 9.33728 18.3999 10V11.2H13.5999V10ZM14.7999 16C14.7999 15.3373 15.3372 14.8 15.9999 14.8H16.0119C16.6746 14.8 17.2119 15.3373 17.2119 16C17.2119 16.6628 16.6746 17.2 16.0119 17.2H15.9999C15.3372 17.2 14.7999 16.6628 14.7999 16Z" fill="white"/>
<path d="M6.3999 20.4307V23.2C6.3999 24.5255 7.47442 25.6 8.7999 25.6H23.1999C24.5254 25.6 25.5999 24.5255 25.5999 23.2V20.4308C22.5846 21.4486 19.3556 22 15.9999 22C12.6443 22 9.41526 21.4486 6.3999 20.4307Z" fill="white"/>
<defs>
<linearGradient id="paint0_linear_1025_7218" x1="6.01465e-08" y1="24.8" x2="33.5385" y2="21.0234" gradientUnits="userSpaceOnUse">
<stop stop-color="#7B21A7"/>
<stop offset="1" stop-color="#1974AD"/>
</linearGradient>
</defs>
</svg>
