<svg xmlns="http://www.w3.org/2000/svg" width="32" height="32" fill="none"><rect width="32" height="32" fill="#227681" rx="4"/><path fill="#fff" fill-rule="evenodd" d="M11 8a3 3 0 0 1 3-3h4a3 3 0 0 1 3 3v1h2a3 3 0 0 1 3 3v10a3 3 0 0 1-3 3H9a3 3 0 0 1-3-3V12a3 3 0 0 1 3-3h2V8Zm-2 3a1 1 0 0 0-1 1v4.57A22.95 22.95 0 0 0 16 18c2.815 0 5.51-.505 8-1.43V12a1 1 0 0 0-1-1H9Zm10-2h-6V8a1 1 0 0 1 1-1h4a1 1 0 0 1 1 1v1Zm5 9.692A24.971 24.971 0 0 1 16 20c-2.796 0-5.487-.46-8-1.308V22a1 1 0 0 0 1 1h14a1 1 0 0 0 1-1v-3.308ZM15 16a1 1 0 0 1 1-1h.01a1 1 0 1 1 0 2H16a1 1 0 0 1-1-1Z" clip-rule="evenodd"/></svg>