<svg width="32" height="32" viewBox="0 0 32 32" fill="none" xmlns="http://www.w3.org/2000/svg">
<g clip-path="url(#clip0_1758_6920)">
<rect width="32" height="32" rx="4" fill="url(#paint0_linear_1758_6920)"/>
<path fill-rule="evenodd" clip-rule="evenodd" d="M10.2397 7.78785V8.85714C10.2397 10.6414 11.0629 12.234 12.3564 13.2832C13.0388 13.8377 13.8414 14.229 14.7009 14.4259C15.5558 14.6215 16.4444 14.6215 17.2993 14.4259M13.7503 15.6443C12.9817 15.3936 12.2602 15.0154 11.6172 14.5249C10.2711 14.3622 9.00824 13.7844 8.00827 12.8704C6.95379 11.9066 6.25117 10.6231 6.01033 9.22093C5.94538 8.84278 6.19312 8.48126 6.57147 8.40206C7.30801 8.24788 8.05073 8.11095 8.79961 7.99224V7.16286C8.79961 6.80689 9.06382 6.50526 9.41913 6.45557C11.5704 6.15471 13.7679 6 16 6C18.233 6 20.4305 6.15471 22.5806 6.45458C22.936 6.50415 23.2004 6.80584 23.2004 7.1619V7.99215C23.9465 8.1103 24.6896 8.247 25.4289 8.40213C25.807 8.48148 26.0546 8.8429 25.9897 9.22092C25.7489 10.6229 25.0464 11.9063 23.9922 12.8701C22.9923 13.7842 21.7287 14.362 20.3828 14.5248C19.7398 15.0154 19.0187 15.3936 18.2499 15.6443C18.3549 16.264 18.5517 16.8653 18.834 17.4286H19.2402C20.2354 17.4286 21.0403 18.2288 21.0403 19.2143V21.7864C21.7268 21.9255 22.3631 22.2615 22.866 22.7603C23.5411 23.4301 23.9204 24.3385 23.9204 25.2857C23.9204 25.4752 23.8446 25.6568 23.7095 25.7908C23.5745 25.9247 23.3914 26 23.2004 26H8.79961C8.40195 26 8.07957 25.6802 8.07957 25.2857C8.07957 24.3385 8.45888 23.4301 9.13405 22.7603C9.63691 22.2615 10.2732 21.9255 10.9597 21.7864V19.2143C10.9597 18.2284 11.766 17.4286 12.7598 17.4286H13.1668C13.4489 16.8653 13.6455 16.264 13.7503 15.6443ZM14.74 17.4286H17.2606C17.0728 16.9516 16.9325 16.4571 16.8421 15.9523C16.2827 16.0175 15.7175 16.0175 15.1581 15.9523C15.0678 16.4571 14.9277 16.9516 14.74 17.4286ZM12.3998 21.7143H19.6002V19.2143C19.6002 19.0169 19.4392 18.8571 19.2402 18.8571H12.7598C12.5613 18.8571 12.3998 19.0173 12.3998 19.2143V21.7143ZM17.2993 14.4259C18.1588 14.2291 18.9604 13.8383 19.6432 13.2836C20.9367 12.2344 21.7603 10.6414 21.7603 8.85714V7.78712C19.8745 7.5504 17.9516 7.42857 16 7.42857C14.0491 7.42857 12.1262 7.55042 10.2397 7.78785M23.1771 9.43561C23.0907 10.5044 22.7671 11.5067 22.2588 12.3908C22.5275 12.2254 22.7812 12.0344 23.0162 11.8196C23.6642 11.2272 24.1414 10.4796 24.4055 9.65392C23.9971 9.57536 23.5876 9.50258 23.1771 9.43561ZM8.8229 9.43573C8.41164 9.5029 8.0022 9.57575 7.59459 9.65411C7.85878 10.4798 8.33601 11.2274 8.9841 11.8198C9.21908 12.0346 9.47274 12.2255 9.7412 12.3909C9.23291 11.5068 8.9093 10.5045 8.8229 9.43573ZM11.6798 23.1429C11.1069 23.1429 10.5574 23.3686 10.1523 23.7705C9.92235 23.9986 9.74958 24.2729 9.64319 24.5714H22.3568C22.2504 24.2729 22.0777 23.9986 21.8477 23.7705C21.4426 23.3686 20.8931 23.1429 20.3202 23.1429H11.6798Z" fill="white"/>
<g style="mix-blend-mode:soft-light" opacity="0.45">
<circle cx="-3.5" cy="-3.5" r="32.5" fill="url(#paint1_linear_1758_6920)"/>
</g>
</g>
<defs>
<linearGradient id="paint0_linear_1758_6920" x1="0" y1="16" x2="32" y2="16" gradientUnits="userSpaceOnUse">
<stop stop-color="#652385"/>
<stop offset="1" stop-color="#8C384C"/>
</linearGradient>
<linearGradient id="paint1_linear_1758_6920" x1="24.1852" y1="13.3519" x2="-23.3611" y2="-29.3796" gradientUnits="userSpaceOnUse">
<stop stop-color="white"/>
<stop offset="1" stop-color="white" stop-opacity="0"/>
</linearGradient>
<clipPath id="clip0_1758_6920">
<rect width="32" height="32" fill="white"/>
</clipPath>
</defs>
</svg>
