<svg xmlns="http://www.w3.org/2000/svg" width="32" height="32" fill="none"><g clip-path="url(#a)"><rect width="32" height="32" fill="url(#b)" rx="4"/><circle cx="-3.5" cy="-3.5" r="32.5" fill="url(#c)" opacity=".45" style="mix-blend-mode:soft-light"/><path fill="#fff" fill-rule="evenodd" d="M23.934 21.734a.481.481 0 0 0 .01-.015c.074-.125.076-.271 0-.452l-.009-.018-.001-.003h.01l-.002-.004a19.592 19.592 0 0 0-.503-1.062l-.16-.314a.42.42 0 0 1-.016-.036c-.04-.102-.121-.305-.45-.148l-.94.426c-.023.012-.122.07-.22.128a9.322 9.322 0 0 1-.22.128l-2.469 1.196-.679.344a563.202 563.202 0 0 0-1.093.605l-.003.002a49 49 0 0 1-1.631.857 30.31 30.31 0 0 1-.732.35l-.008.004a37.227 37.227 0 0 1-.553.249h-.002c-.297.127-.597.242-.9.343l-.023.007a10.647 10.647 0 0 1-1.322.346c-.303.057-.607.1-.915.126h-.005a13.627 13.627 0 0 1-.284.022c-.172.01-.319.016-.45.016a3.4 3.4 0 0 1-.733-.075h-.005l-.003-.002a11.735 11.735 0 0 1-.537-.129 8.609 8.609 0 0 0 .595.029h.016c.187 0 .378-.01.652-.029a10.176 10.176 0 0 0 .664-.069c.027-.003.055-.007.082-.012.005 0 .01 0 .015-.002.232-.035.457-.079.677-.131l.06-.015a8.632 8.632 0 0 0 1.192-.388 14.96 14.96 0 0 0 1.015-.447l.011-.006.33-.161c.157-.078.312-.158.467-.24a48.123 48.123 0 0 0 2.182-1.228c.295-.171.615-.357.954-.54l.02-.01c.171-.092.347-.183.528-.27l4.21-2.3c0-.126-.09-.242-.16-.305l-.009-.006c-.207-.136-.379-.376-.534-.664a9.415 9.415 0 0 1-.341-.733l-.03-.07a8.145 8.145 0 0 0-.44-.922l-.006-.009c-.37-.618-.843-.905-1.657-.12a4.087 4.087 0 0 0-.155.161 2.55 2.55 0 0 1-1.24.708l-.007.002a2.4 2.4 0 0 1-.708.055 7.872 7.872 0 0 0 .643-.379c.382-.251.695-.514.908-.772a1.81 1.81 0 0 0 .086-.112l-.08.027-.008.003-.053.018-.009.002c-.337.11-.666.187-.98.237h-.003a6.935 6.935 0 0 1-.974.089h-.024a9.095 9.095 0 0 1-1.025-.038.464.464 0 0 1-.071-.014 1.33 1.33 0 0 1-.198-.074c-.076-.034-.15-.072-.213-.104l-.03-.016a.85.85 0 0 1 .27-.05c.053-.003.108-.003.17-.003l.095-.001h.004l.113-.003c.202-.007.436-.024.688-.053l.03-.004h.01l.086-.011.014-.002a10.247 10.247 0 0 0 .954-.168c.222-.05.442-.113.66-.19l.017-.005.035-.013.008-.003.017-.006a6.072 6.072 0 0 0 2.277-1.475 5.083 5.083 0 0 0 .44-.529 3.885 3.885 0 0 0 .391-.665c.08-.17.145-.345.195-.523h-.003c-.02.007-.125.076-.24.15-.11.073-.23.15-.289.184a14.498 14.498 0 0 1-1.225.622 13.86 13.86 0 0 1-1.813.669c-.28.082-.552.152-.817.215l-.01.003a21.902 21.902 0 0 1-.835.181l-.07.015a.61.61 0 0 1-.133.006h-.006a1.974 1.974 0 0 1-.179-.018l-.148-.023-.028-.005a5.93 5.93 0 0 1-.039-.007l-.099-.016a.95.95 0 0 1 .437-.213l.133-.03h.003l.058-.014.008-.002a16.202 16.202 0 0 0 .378-.092l.065-.017.075-.02.303-.084.011-.003a15.417 15.417 0 0 0 3.285-1.375 3.457 3.457 0 0 0 .386-.25 4.435 4.435 0 0 0 .59-.53 4.726 4.726 0 0 0 .842-1.242c.19-.403.308-.82.333-1.215v-.01a2.288 2.288 0 0 0-.005-.345 2.47 2.47 0 0 1-.074.054.867.867 0 0 0-.12.096c-.411.4-.85.763-1.304 1.093-.472.344-.959.65-1.443.92-.768.43-1.531.77-2.218 1.025a13.999 13.999 0 0 1-1.232.394l-.018.005-.202.05-.015.004a.51.51 0 0 1-.064.01h-.01a.803.803 0 0 1-.112.002 2.822 2.822 0 0 1-.194-.018 4.132 4.132 0 0 0-.128-.014c.072-.08.088-.088.153-.12a2.328 2.328 0 0 0 .15-.078l.007-.004c.025-.013.077-.033.133-.053h.001c.076-.027.158-.054.192-.064.33-.127.65-.258.96-.394a23.17 23.17 0 0 0 3.054-1.63c.235-.146.47-.298.709-.455.287-.19.547-.442.767-.729.11-.143.209-.294.297-.45l.008-.016c.06-.108.116-.22.165-.332.2-.458.302-.94.27-1.368a2.466 2.466 0 0 0-.029-.22A1.552 1.552 0 0 0 22.491 6a1.947 1.947 0 0 1-.068.039c-.046.026-.088.05-.127.082a48.194 48.194 0 0 1-6.231 4.104l-.028.016-.034.019-.095.052-.022.011-.066.036-.009.005-.015.009c-.173.094-.348.188-.523.28l-.046.025c-.252.132-.504.263-.758.391l-.057.029c-1.258.63-1.514 1.322-.95 2.372a2.8 2.8 0 0 1 .296.59 5.33 5.33 0 0 1 .127.364c.038.111.066.218.09.325a3.904 3.904 0 0 1 .094 1.355 4.132 4.132 0 0 1-.26 1.08 3.625 3.625 0 0 1-.517.908l-.006.007-.004.005h.01l-.004.005-.006.008c-.106.156-.217.316-.327.47l-.004.006-.185.258c-.298.417-.597.835-.903 1.247l-.423.543s-.63.561-1.181.91c0 0-1.116.503-1.12.503-.38.101-.607.14-.898.19-.197.034-.423.073-.745.14-.09.017-.181.032-.273.046-.203.032-.407.064-.6.137-.584.223-.774.765-.499 1.356.328.697.855 1.152 1.481 1.467a5.002 5.002 0 0 0 1.178.41l.21.042c.16.03.32.055.482.076.147.019.252-.01.356-.16.162-.228.409-.252.503-.034.03.07.064.123.103.162l.002.002c.098.097.223.112.375.112h.02c.104 0 .201 0 .29-.03.106-.035.198-.113.274-.285.1-.227.37-.208.503 0 .242.378.717.315.911-.111.124-.271.385-.3.546-.068.233.344.712.276.902-.13.123-.262.385-.325.532-.107a.443.443 0 0 0 .097.109c.096.074.206.073.34.041l.08-.02h.003a19.67 19.67 0 0 0 1.53-.439c1.737-.571 3.4-1.355 5.094-2.152.345-.163.69-.326 1.039-.488a8.45 8.45 0 0 0 .717-.372.719.719 0 0 0 .242-.214Zm-10.73.016c.878-.421 1.752-.918 2.682-1.464l.01-.006.144-.083c.433-.252.986-.574 1.588-.869l.95-.52c-.383.084-.8.121-1.248.09l-2.06-.144-.14.204a5.592 5.592 0 0 1-.105.154l-.082.12c-.113.166-.236.342-.36.517l-.003.004-.184.257c-.298.417-.61.853-.927 1.28l-.014.02-.398.51.146-.07Zm-.552.253L11.44 20.64l1.212 1.363Zm8.412-4.67s-.011.01-.032.024a.225.225 0 0 1 .032-.025Z" clip-rule="evenodd"/></g><defs><linearGradient id="b" x1="32" x2="-1.71" y1="8" y2="12.005" gradientUnits="userSpaceOnUse"><stop stop-color="#038664"/><stop offset="1" stop-color="#075F96"/></linearGradient><linearGradient id="c" x1="24.185" x2="-23.361" y1="13.352" y2="-29.38" gradientUnits="userSpaceOnUse"><stop stop-color="#fff"/><stop offset="1" stop-color="#fff" stop-opacity="0"/></linearGradient><clipPath id="a"><path fill="#fff" d="M0 0h32v32H0z"/></clipPath></defs></svg>