<svg xmlns="http://www.w3.org/2000/svg" width="32" height="32" fill="none"><rect width="32" height="32" fill="#FD7D01" rx="4"/><path stroke="#fff" stroke-linecap="round" stroke-linejoin="round" stroke-width="1.5" d="M20.5 22.75h-9m9 0a3 3 0 0 1 3 3h-15a3 3 0 0 1 3-3m9 0v-3.375c0-.621-.503-1.125-1.125-1.125h-.871m-7.004 4.5v-3.375c0-.621.504-1.125 1.125-1.125h.872m5.007 0h-5.007m5.007 0a7.454 7.454 0 0 1-.982-3.172m-4.025 3.172c.561-.97.897-2.054.981-3.172M9.25 8.236c-.982.143-1.954.317-2.916.52a6.003 6.003 0 0 0 5.396 4.972M9.25 8.236V8.5c0 2.108.966 3.99 2.48 5.228M9.25 8.236V6.721A48.339 48.339 0 0 1 16 6.25c2.291 0 4.545.16 6.75.47v1.516m-11.02 5.492c.8.655 1.74 1.117 2.748 1.35m8.272-6.842V8.5c0 2.108-.966 3.99-2.48 5.228m2.48-5.492c.977.142 1.95.316 2.916.52a6.003 6.003 0 0 1-5.395 4.972m0 0a6.726 6.726 0 0 1-2.749 1.35m0 0a6.772 6.772 0 0 1-3.044 0"/></svg>