<svg width="32" height="32" viewBox="0 0 32 32" fill="none" xmlns="http://www.w3.org/2000/svg">
<rect width="32" height="32" rx="4" fill="url(#paint0_linear_1025_7130)"/>
<g clip-path="url(#clip0_1025_7130)">
<path d="M26.0833 8.44444H22.1111V6.91667C22.1111 6.40868 21.7024 6 21.1944 6H10.8056C10.2976 6 9.88889 6.40868 9.88889 6.91667V8.44444H5.91667C5.40868 8.44444 5 8.85312 5 9.36111V11.5C5 12.8635 5.85937 14.2653 7.36424 15.3462C8.56736 16.2132 10.0302 16.7632 11.5656 16.9389C12.7649 18.9288 14.1667 19.75 14.1667 19.75V22.5H12.3333C10.9851 22.5 9.88889 23.2906 9.88889 24.6389V25.0972C9.88889 25.3493 10.0951 25.5556 10.3472 25.5556H21.6528C21.9049 25.5556 22.1111 25.3493 22.1111 25.0972V24.6389C22.1111 23.2906 21.0149 22.5 19.6667 22.5H17.8333V19.75C17.8333 19.75 19.2351 18.9288 20.4344 16.9389C21.9736 16.7632 23.4365 16.2132 24.6358 15.3462C26.1368 14.2653 27 12.8635 27 11.5V9.36111C27 8.85312 26.5913 8.44444 26.0833 8.44444ZM8.79271 13.3639C7.86076 12.6917 7.44444 11.9431 7.44444 11.5V10.8889H9.89653C9.93472 12.134 10.1181 13.2264 10.3854 14.1812C9.80868 13.9826 9.27014 13.7076 8.79271 13.3639V13.3639ZM24.5556 11.5C24.5556 12.1149 23.8795 12.8788 23.2073 13.3639C22.7299 13.7076 22.1875 13.9826 21.6108 14.1812C21.8781 13.2264 22.0615 12.134 22.0997 10.8889H24.5556V11.5Z" fill="white"/>
</g>
<defs>
<linearGradient id="paint0_linear_1025_7130" x1="32" y1="8.52125" x2="-1.0543" y2="11.1897" gradientUnits="userSpaceOnUse">
<stop stop-color="#FFC43D"/>
<stop offset="1" stop-color="#EF476F"/>
</linearGradient>
<clipPath id="clip0_1025_7130">
<rect width="22" height="19.5556" fill="white" transform="translate(5 6)"/>
</clipPath>
</defs>
</svg>
