<svg xmlns="http://www.w3.org/2000/svg" width="32" height="32" fill="none"><g clip-path="url(#clip0_1273_48526)"><rect width="32" height="32" fill="#4CC94C" rx="4"/><circle cx="-3.5" cy="-3.5" r="32.5" fill="url(#paint0_linear_1273_48526)" opacity=".45" style="mix-blend-mode:soft-light"/><path fill="#fff" fill-rule="evenodd" d="M16 8a8 8 0 1 0 0 16 8 8 0 0 0 0-16ZM6 16c0-5.523 4.477-10 10-10s10 4.477 10 10-4.477 10-10 10S6 21.523 6 16Zm10-6a1 1 0 0 1 1 1v.092c.94.177 1.791.604 2.354 1.253a1 1 0 0 1-1.51 1.31c-.163-.187-.453-.377-.844-.504v1.941a4.535 4.535 0 0 1 1.676.662C19.398 16.234 20 17.009 20 18c0 .99-.602 1.765-1.324 2.246-.48.32-1.054.545-1.676.662V21a1 1 0 1 1-2 0v-.092c-.94-.177-1.791-.604-2.354-1.253a1 1 0 1 1 1.51-1.31c.163.187.453.377.844.504v-1.941a4.535 4.535 0 0 1-1.676-.662C12.602 15.766 12 14.991 12 14c0-.99.602-1.765 1.324-2.246A4.535 4.535 0 0 1 15 11.092V11a1 1 0 0 1 1-1Zm-1 3.151c-.22.071-.412.164-.567.267-.364.243-.433.468-.433.582 0 .114.07.34.433.582.155.103.346.196.567.267v-1.698Zm2 4v1.698c.22-.071.412-.164.567-.267.364-.243.433-.468.433-.582 0-.114-.07-.34-.433-.582A2.305 2.305 0 0 0 17 17.15Z" clip-rule="evenodd"/></g><defs><linearGradient id="paint0_linear_1273_48526" x1="24.185" x2="-23.361" y1="13.352" y2="-29.38" gradientUnits="userSpaceOnUse"><stop stop-color="#fff"/><stop offset="1" stop-color="#fff" stop-opacity="0"/></linearGradient><clipPath id="clip0_1273_48526"><path fill="#fff" d="M0 0h32v32H0z"/></clipPath></defs></svg>