<svg width="32" height="32" viewBox="0 0 32 32" fill="none" xmlns="http://www.w3.org/2000/svg">
<rect width="32" height="32" rx="4" fill="url(#paint0_linear_1025_7158)"/>
<path d="M14.12 12.9014C14.3057 12.7776 14.5352 12.6669 14.7999 12.5812L14.7999 14.6188C14.5352 14.5331 14.3057 14.4225 14.12 14.2986C13.683 14.0073 13.5999 13.7367 13.5999 13.6C13.5999 13.4633 13.683 13.1927 14.12 12.9014Z" fill="white"/>
<path d="M17.1999 19.4188L17.1999 17.3812C17.4646 17.4669 17.6941 17.5776 17.8799 17.7014C18.3168 17.9927 18.3999 18.2633 18.3999 18.4C18.3999 18.5367 18.3168 18.8073 17.8799 19.0986C17.6941 19.2225 17.4647 19.3331 17.1999 19.4188Z" fill="white"/>
<path fill-rule="evenodd" clip-rule="evenodd" d="M15.9999 25.6C21.3018 25.6 25.5999 21.302 25.5999 16C25.5999 10.6981 21.3018 6.40002 15.9999 6.40002C10.698 6.40002 6.3999 10.6981 6.3999 16C6.3999 21.302 10.698 25.6 15.9999 25.6ZM17.1999 10C17.1999 9.33728 16.6626 8.80002 15.9999 8.80002C15.3372 8.80002 14.7999 9.33728 14.7999 10V10.1104C14.054 10.2505 13.3641 10.5209 12.7887 10.9045C11.9227 11.4818 11.1999 12.4112 11.1999 13.6C11.1999 14.7888 11.9227 15.7182 12.7887 16.2955C13.3641 16.6791 14.054 16.9496 14.7999 17.0896L14.7999 19.4191C14.3307 19.2668 13.9829 19.0383 13.7879 18.8136C13.3536 18.313 12.5957 18.2593 12.0951 18.6937C11.5945 19.128 11.5408 19.8859 11.9752 20.3865C12.6502 21.1644 13.6714 21.677 14.7999 21.8892L14.7999 22C14.7999 22.6627 15.3371 23.2 15.9999 23.2C16.6626 23.2 17.1999 22.6628 17.1999 22L17.1999 21.8896C17.9458 21.7496 18.6357 21.4791 19.2112 21.0955C20.0772 20.5182 20.7999 19.5888 20.7999 18.4C20.7999 17.2112 20.0771 16.2818 19.2111 15.7045C18.6357 15.3209 17.9458 15.0505 17.1999 14.9104L17.1999 12.5809C17.6691 12.7333 18.0169 12.9617 18.2119 13.1865C18.6463 13.687 19.4042 13.7407 19.9047 13.3064C20.4053 12.872 20.459 12.1141 20.0246 11.6136C19.3497 10.8357 18.3284 10.323 17.1999 10.1109V10Z" fill="white"/>
<defs>
<linearGradient id="paint0_linear_1025_7158" x1="32" y1="8.16" x2="-1.05312" y2="11.2331" gradientUnits="userSpaceOnUse">
<stop stop-color="#198807"/>
<stop offset="1" stop-color="#017C6D"/>
</linearGradient>
</defs>
</svg>
