<svg xmlns="http://www.w3.org/2000/svg" width="32" height="32" fill="none"><g clip-path="url(#clip0_1277_48947)"><rect width="32" height="32" fill="url(#paint0_linear_1277_48947)" rx="4"/><circle cx="-3.5" cy="-3.5" r="32.5" fill="url(#paint1_linear_1277_48947)" opacity=".45" style="mix-blend-mode:soft-light"/><g fill="#fff" clip-path="url(#clip1_1277_48947)"><path d="M24.997 15.936c.036 4.326-3.057 8.195-7.448 8.922-3.31.547-6.121-.486-8.36-2.99-1.227-1.372-1.935-3.005-2.13-4.832-.276-2.583.416-4.893 2.107-6.876 1.449-1.699 3.296-2.719 5.503-3.055a8.814 8.814 0 0 1 4.99.676c.228.101.228.105.05.283-.225.225-.445.455-.676.673a1.02 1.02 0 0 0-.324.75c-.005.198-.013.202-.207.124a6.542 6.542 0 0 0-2.465-.472c-1.661.006-3.15.525-4.429 1.597-1.325 1.11-2.142 2.525-2.391 4.234-.296 2.023.207 3.85 1.519 5.428 1.105 1.329 2.53 2.131 4.237 2.389 2.877.433 5.677-.958 7.077-3.54a6.759 6.759 0 0 0 .819-3.227 6.603 6.603 0 0 0-.468-2.502c-.084-.211-.082-.212.143-.221.28-.012.52-.107.718-.313.232-.244.478-.474.711-.717.106-.11.165-.124.236.033.355.79.59 1.613.711 2.47.057.408.09.817.077 1.166Z"/><path d="M11.197 16.05c-.042-2.288 1.623-4.41 4.048-4.797a4.735 4.735 0 0 1 2.74.371c.14.063.146.117.038.223-.476.468-.95.938-1.414 1.416-.107.11-.219.102-.342.089-.754-.081-1.415.14-1.995.617-.808.664-1.14 1.81-.824 2.828a2.687 2.687 0 0 0 2.286 1.86 2.67 2.67 0 0 0 2.895-2.175c.046-.271.068-.543.02-.817-.02-.106.013-.187.093-.265.475-.469.948-.939 1.415-1.416.125-.128.17-.082.23.052 1.303 2.881-.524 6.246-3.652 6.721a4.83 4.83 0 0 1-5.49-4 3.317 3.317 0 0 1-.048-.707Z"/><path d="M22.003 8.664c.287-.327.58-.534.987-.488a.927.927 0 0 1 .578.279c.22.225.298.499.261.806-.036.302-.23.514-.488.744H24.4c.1 0 .2 0 .3.002a.286.286 0 0 1 .266.174.301.301 0 0 1-.037.333 1.317 1.317 0 0 1-.102.11c-.643.644-1.29 1.285-1.93 1.932a.529.529 0 0 1-.413.171c-.555-.007-1.11.002-1.665-.005a.418.418 0 0 0-.328.137c-1.254 1.259-2.513 2.512-3.768 3.77-.286.286-.617.396-1.006.28a.947.947 0 0 1-.442-1.517c.052-.062.11-.118.168-.175 1.23-1.23 2.46-2.46 3.693-3.687a.458.458 0 0 0 .15-.36c-.008-.555 0-1.11-.005-1.665a.473.473 0 0 1 .145-.367c.664-.658 1.325-1.32 1.985-1.982.115-.116.24-.184.4-.12.164.067.196.207.194.369-.004.399-.001.797-.001 1.26Z"/></g></g><defs><linearGradient id="paint0_linear_1277_48947" x1="32" x2="-1.054" y1="8.521" y2="11.19" gradientUnits="userSpaceOnUse"><stop stop-color="#EF476F"/><stop offset="1" stop-color="#9D41C9"/></linearGradient><linearGradient id="paint1_linear_1277_48947" x1="24.185" x2="-23.361" y1="13.352" y2="-29.38" gradientUnits="userSpaceOnUse"><stop stop-color="#fff"/><stop offset="1" stop-color="#fff" stop-opacity="0"/></linearGradient><clipPath id="clip0_1277_48947"><path fill="#fff" d="M0 0h32v32H0z"/></clipPath><clipPath id="clip1_1277_48947"><path fill="#fff" d="M7 7h18v18H7z"/></clipPath></defs></svg>