<svg xmlns="http://www.w3.org/2000/svg" width="32" height="32" fill="none"><rect width="32" height="32" fill="#B6B431" rx="4"/><path fill="#fff" fill-rule="evenodd" d="M11 8a1 1 0 0 0-1 1v11a1 1 0 1 1-2 0V9a3 3 0 0 1 3-3h5.586A2 2 0 0 1 18 6.586L23.414 12A2 2 0 0 1 24 13.414V23a3 3 0 0 1-3 3h-7a1 1 0 1 1 0-2h7a1 1 0 0 0 1-1v-9.586L16.586 8H11Zm5 8a2 2 0 1 0 0 4 2 2 0 0 0 0-4Zm-4 2a4 4 0 1 1 1.968 3.446l-4.26 4.261a1 1 0 0 1-1.415-1.414l4.261-4.261A3.984 3.984 0 0 1 12 18Z" clip-rule="evenodd"/></svg>