<svg xmlns="http://www.w3.org/2000/svg" width="32" height="32" fill="none"><g clip-path="url(#clip0_1273_48538)"><rect width="32" height="32" fill="#B6B431" rx="4"/><circle cx="-3.5" cy="-3.5" r="32.5" fill="url(#paint0_linear_1273_48538)" opacity=".45" style="mix-blend-mode:soft-light"/><path fill="#fff" fill-rule="evenodd" d="M11 8a1 1 0 0 0-1 1v11a1 1 0 1 1-2 0V9a3 3 0 0 1 3-3h5.586A2 2 0 0 1 18 6.586L23.414 12A2 2 0 0 1 24 13.414V23a3 3 0 0 1-3 3h-7a1 1 0 1 1 0-2h7a1 1 0 0 0 1-1v-9.586L16.586 8H11Zm5 8a2 2 0 1 0 0 4 2 2 0 0 0 0-4Zm-4 2a4 4 0 1 1 1.968 3.446l-4.26 4.261a1 1 0 0 1-1.415-1.414l4.261-4.261A3.984 3.984 0 0 1 12 18Z" clip-rule="evenodd"/></g><defs><linearGradient id="paint0_linear_1273_48538" x1="24.185" x2="-23.361" y1="13.352" y2="-29.38" gradientUnits="userSpaceOnUse"><stop stop-color="#fff"/><stop offset="1" stop-color="#fff" stop-opacity="0"/></linearGradient><clipPath id="clip0_1273_48538"><path fill="#fff" d="M0 0h32v32H0z"/></clipPath></defs></svg>