<svg width="32" height="32" viewBox="0 0 32 32" fill="none" xmlns="http://www.w3.org/2000/svg">
<rect width="32" height="32" rx="4" fill="url(#paint0_linear_1025_7238)"/>
<path d="M8.8001 8.80002C8.8001 7.47454 9.87461 6.40002 11.2001 6.40002H16.703C17.3396 6.40002 17.95 6.65288 18.4001 7.10297L22.4972 11.2C22.9472 11.6501 23.2001 12.2606 23.2001 12.8971V23.2C23.2001 24.5255 22.1256 25.6 20.8001 25.6H18.9668C20.1068 24.3262 20.8001 22.6441 20.8001 20.8C20.8001 16.8236 17.5765 13.6 13.6001 13.6C11.756 13.6 10.0739 14.2933 8.8001 15.4334V8.80002Z" fill="white"/>
<path fill-rule="evenodd" clip-rule="evenodd" d="M13.6001 16C10.9491 16 8.8001 18.1491 8.8001 20.8C8.8001 21.6897 9.04285 22.5237 9.46486 23.2382L7.95157 24.7515C7.48294 25.2201 7.48294 25.9799 7.95157 26.4486C8.4202 26.9172 9.18 26.9172 9.64863 26.4486L11.1619 24.9353C11.8764 25.3573 12.7104 25.6 13.6001 25.6C16.2511 25.6 18.4001 23.451 18.4001 20.8C18.4001 18.1491 16.2511 16 13.6001 16ZM11.2001 20.8C11.2001 19.4745 12.2746 18.4 13.6001 18.4C14.9256 18.4 16.0001 19.4745 16.0001 20.8C16.0001 22.1255 14.9256 23.2 13.6001 23.2C12.937 23.2 12.3387 22.9327 11.903 22.4971C11.4674 22.0615 11.2001 21.4631 11.2001 20.8Z" fill="white"/>
<defs>
<linearGradient id="paint0_linear_1025_7238" x1="0" y1="16" x2="32" y2="16" gradientUnits="userSpaceOnUse">
<stop stop-color="#652385"/>
<stop offset="1" stop-color="#8C384C"/>
</linearGradient>
</defs>
</svg>
