<svg xmlns="http://www.w3.org/2000/svg" width="32" height="32" fill="none"><rect width="32" height="32" fill="#1E94A3" rx="4"/><path fill="#fff" fill-rule="evenodd" d="M6 7a1 1 0 0 1 1-1h2a1 1 0 0 1 .98.804L10.22 8H25a1 1 0 0 1 .894 1.447l-4 8A1 1 0 0 1 21 18h-9.586l-2 2H21a3 3 0 1 1-2.83 2h-4.34a3 3 0 1 1-5.521-.326c-.98-.65-1.268-2.129-.309-3.088l1.914-1.915L8.18 8H7a1 1 0 0 1-1-1Zm5.82 9h8.562l3-6H10.62l1.2 6ZM11 22a1 1 0 1 0 0 2 1 1 0 0 0 0-2Zm10 0a1 1 0 1 0 0 2 1 1 0 0 0 0-2Z" clip-rule="evenodd"/></svg>