<svg xmlns="http://www.w3.org/2000/svg" width="32" height="32" fill="none"><g clip-path="url(#clip0_1273_48566)"><rect width="32" height="32" fill="#1E94A3" rx="4"/><circle cx="-3.5" cy="-3.5" r="32.5" fill="url(#paint0_linear_1273_48566)" opacity=".45" style="mix-blend-mode:soft-light"/><path fill="#fff" fill-rule="evenodd" d="M6 7a1 1 0 0 1 1-1h2a1 1 0 0 1 .98.804L10.22 8H25a1 1 0 0 1 .894 1.447l-4 8A1 1 0 0 1 21 18h-9.586l-2 2H21a3 3 0 1 1-2.83 2h-4.34a3 3 0 1 1-5.521-.326c-.98-.65-1.268-2.129-.309-3.088l1.914-1.915L8.18 8H7a1 1 0 0 1-1-1Zm5.82 9h8.562l3-6H10.62l1.2 6ZM11 22a1 1 0 1 0 0 2 1 1 0 0 0 0-2Zm10 0a1 1 0 1 0 0 2 1 1 0 0 0 0-2Z" clip-rule="evenodd"/></g><defs><linearGradient id="paint0_linear_1273_48566" x1="24.185" x2="-23.361" y1="13.352" y2="-29.38" gradientUnits="userSpaceOnUse"><stop stop-color="#fff"/><stop offset="1" stop-color="#fff" stop-opacity="0"/></linearGradient><clipPath id="clip0_1273_48566"><path fill="#fff" d="M0 0h32v32H0z"/></clipPath></defs></svg>