<svg width="32" height="32" viewBox="0 0 32 32" fill="none" xmlns="http://www.w3.org/2000/svg">
<rect width="32" height="32" rx="4" fill="url(#paint0_linear_1025_7110)"/>
<path d="M7.5999 5.20001C6.93716 5.20001 6.3999 5.73727 6.3999 6.40001C6.3999 7.06275 6.93716 7.60001 7.5999 7.60001H9.06297L9.42964 9.0667C9.43349 9.08366 9.4377 9.10048 9.44226 9.11716L11.0709 15.6319L9.99985 16.703C8.48793 18.2149 9.55873 20.8 11.6969 20.8H21.9998C22.6626 20.8 23.1998 20.2628 23.1998 19.6C23.1998 18.9373 22.6626 18.4 21.9998 18.4L11.6969 18.4L12.8969 17.2H20.7999C21.2544 17.2 21.6699 16.9432 21.8732 16.5367L25.4732 9.33667C25.6592 8.96468 25.6393 8.52291 25.4207 8.16913C25.202 7.81535 24.8158 7.60001 24.3999 7.60001H11.5368L11.1641 6.10897C11.0305 5.57477 10.5505 5.20001 9.9999 5.20001H7.5999Z" fill="white"/>
<path d="M23.1999 23.8C23.1999 24.7941 22.394 25.6 21.3999 25.6C20.4058 25.6 19.5999 24.7941 19.5999 23.8C19.5999 22.8059 20.4058 22 21.3999 22C22.394 22 23.1999 22.8059 23.1999 23.8Z" fill="white"/>
<path d="M11.7999 25.6C12.794 25.6 13.5999 24.7941 13.5999 23.8C13.5999 22.8059 12.794 22 11.7999 22C10.8058 22 9.9999 22.8059 9.9999 23.8C9.9999 24.7941 10.8058 25.6 11.7999 25.6Z" fill="white"/>
<defs>
<linearGradient id="paint0_linear_1025_7110" x1="-9.96235e-08" y1="23.84" x2="32.9623" y2="20.9115" gradientUnits="userSpaceOnUse">
<stop stop-color="#048467"/>
<stop offset="1" stop-color="#064871"/>
</linearGradient>
</defs>
</svg>
