<svg width="0" height="0">
  <symbol fill="none" xmlns="http://www.w3.org/2000/svg" viewBox="0 0 32 32" id="discussions">
    <rect width="32" height="32" rx="4" fill="url(#paint0_linear_1025_7198)"></rect>
    <path d="M6.3999 9.99998C6.3999 8.67449 7.47442 7.59998 8.7999 7.59998H17.1999C18.5254 7.59998 19.5999 8.67449 19.5999 9.99998V14.8C19.5999 16.1255 18.5254 17.2 17.1999 17.2H14.7999L11.1999 20.8V17.2H8.7999C7.47442 17.2 6.3999 16.1255 6.3999 14.8V9.99998Z" fill="white"></path>
    <path d="M21.9999 12.4V15.6C21.9999 17.8091 20.209 19.6 17.9999 19.6H15.794L13.674 21.72C14.0097 21.8987 14.393 22 14.7999 22H17.1999L20.7999 25.6V22H23.1999C24.5254 22 25.5999 20.9255 25.5999 19.6V14.8C25.5999 13.4745 24.5254 12.4 23.1999 12.4H21.9999Z" fill="white"></path>
    <defs>
      <linearGradient id="paint0_linear_1025_7198" x1="32" y1="8.52125" x2="-1.0543" y2="11.1897" gradientUnits="userSpaceOnUse">
        <stop stop-color="#EF476F"></stop>
        <stop offset="1" stop-color="#9D41C9"></stop>
      </linearGradient>
    </defs>
  </symbol>
  <symbol fill="none" xmlns="http://www.w3.org/2000/svg" viewBox="0 0 32 32" id="gigs">
    <rect width="32" height="32" rx="4" fill="url(#paint0_linear_1025_7218)"></rect>
    <path fill-rule="evenodd" clip-rule="evenodd" d="M11.1999 11.2V10C11.1999 8.0118 12.8117 6.40002 14.7999 6.40002H17.1999C19.1881 6.40002 20.7999 8.0118 20.7999 10V11.2H23.1999C24.5254 11.2 25.5999 12.2745 25.5999 13.6V17.8849C22.6115 18.9937 19.3778 19.6 15.9999 19.6C12.6221 19.6 9.38834 18.9937 6.3999 17.8849V13.6C6.3999 12.2745 7.47442 11.2 8.7999 11.2H11.1999ZM13.5999 10C13.5999 9.33728 14.1372 8.80002 14.7999 8.80002H17.1999C17.8626 8.80002 18.3999 9.33728 18.3999 10V11.2H13.5999V10ZM14.7999 16C14.7999 15.3373 15.3372 14.8 15.9999 14.8H16.0119C16.6746 14.8 17.2119 15.3373 17.2119 16C17.2119 16.6628 16.6746 17.2 16.0119 17.2H15.9999C15.3372 17.2 14.7999 16.6628 14.7999 16Z" fill="white"></path>
    <path d="M6.3999 20.4307V23.2C6.3999 24.5255 7.47442 25.6 8.7999 25.6H23.1999C24.5254 25.6 25.5999 24.5255 25.5999 23.2V20.4308C22.5846 21.4486 19.3556 22 15.9999 22C12.6443 22 9.41526 21.4486 6.3999 20.4307Z" fill="white"></path>
    <defs>
      <linearGradient id="paint0_linear_1025_7218" x1="6.01465e-08" y1="24.8" x2="33.5385" y2="21.0234" gradientUnits="userSpaceOnUse">
        <stop stop-color="#7B21A7"></stop>
        <stop offset="1" stop-color="#1974AD"></stop>
      </linearGradient>
    </defs>
  </symbol>
  <symbol fill="none" xmlns="http://www.w3.org/2000/svg" viewBox="0 0 32 32" id="mm">
    <rect width="32" height="32" rx="4" fill="url(#paint0_linear_1025_7130)"></rect>
    <g clip-path="url(#clip0_1025_7130)">
      <path d="M26.0833 8.44444H22.1111V6.91667C22.1111 6.40868 21.7024 6 21.1944 6H10.8056C10.2976 6 9.88889 6.40868 9.88889 6.91667V8.44444H5.91667C5.40868 8.44444 5 8.85312 5 9.36111V11.5C5 12.8635 5.85937 14.2653 7.36424 15.3462C8.56736 16.2132 10.0302 16.7632 11.5656 16.9389C12.7649 18.9288 14.1667 19.75 14.1667 19.75V22.5H12.3333C10.9851 22.5 9.88889 23.2906 9.88889 24.6389V25.0972C9.88889 25.3493 10.0951 25.5556 10.3472 25.5556H21.6528C21.9049 25.5556 22.1111 25.3493 22.1111 25.0972V24.6389C22.1111 23.2906 21.0149 22.5 19.6667 22.5H17.8333V19.75C17.8333 19.75 19.2351 18.9288 20.4344 16.9389C21.9736 16.7632 23.4365 16.2132 24.6358 15.3462C26.1368 14.2653 27 12.8635 27 11.5V9.36111C27 8.85312 26.5913 8.44444 26.0833 8.44444ZM8.79271 13.3639C7.86076 12.6917 7.44444 11.9431 7.44444 11.5V10.8889H9.89653C9.93472 12.134 10.1181 13.2264 10.3854 14.1812C9.80868 13.9826 9.27014 13.7076 8.79271 13.3639V13.3639ZM24.5556 11.5C24.5556 12.1149 23.8795 12.8788 23.2073 13.3639C22.7299 13.7076 22.1875 13.9826 21.6108 14.1812C21.8781 13.2264 22.0615 12.134 22.0997 10.8889H24.5556V11.5Z" fill="white"></path>
    </g>
    <defs>
      <linearGradient id="paint0_linear_1025_7130" x1="32" y1="8.52125" x2="-1.0543" y2="11.1897" gradientUnits="userSpaceOnUse">
        <stop stop-color="#FFC43D"></stop>
        <stop offset="1" stop-color="#EF476F"></stop>
      </linearGradient>
      <clipPath id="clip0_1025_7130">
        <rect width="22" height="19.5556" fill="white" transform="translate(5 6)"></rect>
      </clipPath>
    </defs>
  </symbol>
  <symbol fill="none" xmlns="http://www.w3.org/2000/svg" viewBox="0 0 32 32" id="payments">
    <rect width="32" height="32" rx="4" fill="url(#paint0_linear_1025_7158)"></rect>
    <path d="M14.12 12.9014C14.3057 12.7776 14.5352 12.6669 14.7999 12.5812L14.7999 14.6188C14.5352 14.5331 14.3057 14.4225 14.12 14.2986C13.683 14.0073 13.5999 13.7367 13.5999 13.6C13.5999 13.4633 13.683 13.1927 14.12 12.9014Z" fill="white"></path>
    <path d="M17.1999 19.4188L17.1999 17.3812C17.4646 17.4669 17.6941 17.5776 17.8799 17.7014C18.3168 17.9927 18.3999 18.2633 18.3999 18.4C18.3999 18.5367 18.3168 18.8073 17.8799 19.0986C17.6941 19.2225 17.4647 19.3331 17.1999 19.4188Z" fill="white"></path>
    <path fill-rule="evenodd" clip-rule="evenodd" d="M15.9999 25.6C21.3018 25.6 25.5999 21.302 25.5999 16C25.5999 10.6981 21.3018 6.40002 15.9999 6.40002C10.698 6.40002 6.3999 10.6981 6.3999 16C6.3999 21.302 10.698 25.6 15.9999 25.6ZM17.1999 10C17.1999 9.33728 16.6626 8.80002 15.9999 8.80002C15.3372 8.80002 14.7999 9.33728 14.7999 10V10.1104C14.054 10.2505 13.3641 10.5209 12.7887 10.9045C11.9227 11.4818 11.1999 12.4112 11.1999 13.6C11.1999 14.7888 11.9227 15.7182 12.7887 16.2955C13.3641 16.6791 14.054 16.9496 14.7999 17.0896L14.7999 19.4191C14.3307 19.2668 13.9829 19.0383 13.7879 18.8136C13.3536 18.313 12.5957 18.2593 12.0951 18.6937C11.5945 19.128 11.5408 19.8859 11.9752 20.3865C12.6502 21.1644 13.6714 21.677 14.7999 21.8892L14.7999 22C14.7999 22.6627 15.3371 23.2 15.9999 23.2C16.6626 23.2 17.1999 22.6628 17.1999 22L17.1999 21.8896C17.9458 21.7496 18.6357 21.4791 19.2112 21.0955C20.0772 20.5182 20.7999 19.5888 20.7999 18.4C20.7999 17.2112 20.0771 16.2818 19.2111 15.7045C18.6357 15.3209 17.9458 15.0505 17.1999 14.9104L17.1999 12.5809C17.6691 12.7333 18.0169 12.9617 18.2119 13.1865C18.6463 13.687 19.4042 13.7407 19.9047 13.3064C20.4053 12.872 20.459 12.1141 20.0246 11.6136C19.3497 10.8357 18.3284 10.323 17.1999 10.1109V10Z" fill="white"></path>
    <defs>
      <linearGradient id="paint0_linear_1025_7158" x1="32" y1="8.16" x2="-1.05312" y2="11.2331" gradientUnits="userSpaceOnUse">
        <stop stop-color="#198807"></stop>
        <stop offset="1" stop-color="#017C6D"></stop>
      </linearGradient>
    </defs>
  </symbol>
  <symbol fill="none" xmlns="http://www.w3.org/2000/svg" viewBox="0 0 32 32" id="review">
    <rect width="32" height="32" rx="4" fill="url(#paint0_linear_1025_7238)"></rect>
    <path d="M8.8001 8.80002C8.8001 7.47454 9.87461 6.40002 11.2001 6.40002H16.703C17.3396 6.40002 17.95 6.65288 18.4001 7.10297L22.4972 11.2C22.9472 11.6501 23.2001 12.2606 23.2001 12.8971V23.2C23.2001 24.5255 22.1256 25.6 20.8001 25.6H18.9668C20.1068 24.3262 20.8001 22.6441 20.8001 20.8C20.8001 16.8236 17.5765 13.6 13.6001 13.6C11.756 13.6 10.0739 14.2933 8.8001 15.4334V8.80002Z" fill="white"></path>
    <path fill-rule="evenodd" clip-rule="evenodd" d="M13.6001 16C10.9491 16 8.8001 18.1491 8.8001 20.8C8.8001 21.6897 9.04285 22.5237 9.46486 23.2382L7.95157 24.7515C7.48294 25.2201 7.48294 25.9799 7.95157 26.4486C8.4202 26.9172 9.18 26.9172 9.64863 26.4486L11.1619 24.9353C11.8764 25.3573 12.7104 25.6 13.6001 25.6C16.2511 25.6 18.4001 23.451 18.4001 20.8C18.4001 18.1491 16.2511 16 13.6001 16ZM11.2001 20.8C11.2001 19.4745 12.2746 18.4 13.6001 18.4C14.9256 18.4 16.0001 19.4745 16.0001 20.8C16.0001 22.1255 14.9256 23.2 13.6001 23.2C12.937 23.2 12.3387 22.9327 11.903 22.4971C11.4674 22.0615 11.2001 21.4631 11.2001 20.8Z" fill="white"></path>
    <defs>
      <linearGradient id="paint0_linear_1025_7238" x1="0" y1="16" x2="32" y2="16" gradientUnits="userSpaceOnUse">
        <stop stop-color="#652385"></stop>
        <stop offset="1" stop-color="#8C384C"></stop>
      </linearGradient>
    </defs>
  </symbol>
  <symbol fill="none" xmlns="http://www.w3.org/2000/svg" viewBox="0 0 32 32" id="self-service">
    <rect width="32" height="32" rx="4" fill="url(#paint0_linear_1025_7110)"></rect>
    <path d="M7.5999 5.20001C6.93716 5.20001 6.3999 5.73727 6.3999 6.40001C6.3999 7.06275 6.93716 7.60001 7.5999 7.60001H9.06297L9.42964 9.0667C9.43349 9.08366 9.4377 9.10048 9.44226 9.11716L11.0709 15.6319L9.99985 16.703C8.48793 18.2149 9.55873 20.8 11.6969 20.8H21.9998C22.6626 20.8 23.1998 20.2628 23.1998 19.6C23.1998 18.9373 22.6626 18.4 21.9998 18.4L11.6969 18.4L12.8969 17.2H20.7999C21.2544 17.2 21.6699 16.9432 21.8732 16.5367L25.4732 9.33667C25.6592 8.96468 25.6393 8.52291 25.4207 8.16913C25.202 7.81535 24.8158 7.60001 24.3999 7.60001H11.5368L11.1641 6.10897C11.0305 5.57477 10.5505 5.20001 9.9999 5.20001H7.5999Z" fill="white"></path>
    <path d="M23.1999 23.8C23.1999 24.7941 22.394 25.6 21.3999 25.6C20.4058 25.6 19.5999 24.7941 19.5999 23.8C19.5999 22.8059 20.4058 22 21.3999 22C22.394 22 23.1999 22.8059 23.1999 23.8Z" fill="white"></path>
    <path d="M11.7999 25.6C12.794 25.6 13.5999 24.7941 13.5999 23.8C13.5999 22.8059 12.794 22 11.7999 22C10.8058 22 9.9999 22.8059 9.9999 23.8C9.9999 24.7941 10.8058 25.6 11.7999 25.6Z" fill="white"></path>
    <defs>
      <linearGradient id="paint0_linear_1025_7110" x1="-9.96235e-08" y1="23.84" x2="32.9623" y2="20.9115" gradientUnits="userSpaceOnUse">
        <stop stop-color="#048467"></stop>
        <stop offset="1" stop-color="#064871"></stop>
      </linearGradient>
    </defs>
  </symbol>
  <symbol fill="none" xmlns="http://www.w3.org/2000/svg" viewBox="0 0 32 32" id="tcacademy">
    <rect width="32" height="32" rx="4" fill="url(#paint0_linear_1025_7306)"></rect>
    <path d="M17.0306 15.3591C13.9098 13.6619 10.3723 12.6412 6.61231 12.4924L6.6123 17.5162C6.6123 17.6313 6.65778 17.7416 6.73869 17.8229L12.5511 23.6628C13.4944 20.5868 15.0326 17.7735 17.0306 15.3591Z" fill="white"></path>
    <path opacity="0.2" d="M15.1083 18.0336C15.6889 17.0972 16.3316 16.2037 17.0306 15.3591C13.9098 13.6619 10.3723 12.6412 6.6123 12.4924L6.6123 12.5573C9.82794 13.7647 12.7167 15.6472 15.1083 18.0336Z" fill="white"></path>
    <path d="M24.2197 18.8711L25.2617 17.8229C25.3425 17.7416 25.3879 17.6314 25.3879 17.5164L25.3879 9.70789C22.9806 11.0596 20.8288 12.817 19.0239 14.8882C20.9342 15.975 22.6814 17.3181 24.2197 18.8711Z" fill="white"></path>
    <path opacity="0.2" d="M25.3721 9.71677C22.9712 11.0673 20.8249 12.8216 19.0239 14.8882C19.8144 15.3379 20.577 15.8316 21.3084 16.3658C22.3019 13.9232 23.682 11.6812 25.3721 9.71677Z" fill="white"></path>
    <path d="M17.9488 14.3124C20.0457 12.0561 22.5684 10.2055 25.3878 8.89032L25.3878 7.05596C25.3878 6.8166 25.195 6.62256 24.9572 6.62256L7.04294 6.62256C6.80511 6.62256 6.61231 6.8166 6.61231 7.05596L6.6123 11.7883C6.82337 11.7828 7.0351 11.78 7.24749 11.78C11.0934 11.78 14.7278 12.6918 17.9488 14.3124Z" fill="white"></path>
    <path opacity="0.2" d="M25.3878 8.89031C22.5684 10.2055 20.0457 12.0561 17.9488 14.3123C14.7278 12.6918 11.0934 11.78 7.24749 11.78C7.0351 11.78 6.82337 11.7828 6.6123 11.7883L6.6123 11.6327C10.2814 9.33596 14.6124 8.00943 19.2513 8.00943C21.3725 8.00943 23.4292 8.28678 25.3878 8.80742V8.89031Z" fill="white"></path>
    <path d="M13.7974 24.9148C14.6163 21.6186 16.1092 18.5912 18.12 15.9893C19.9454 17.1104 21.6102 18.4704 23.0715 20.026L16.3099 26.8274C16.1418 26.9965 15.8694 26.9966 15.7012 26.8276L13.7974 24.9148Z" fill="white"></path>
    <defs>
      <linearGradient id="paint0_linear_1025_7306" x1="-8.91804e-08" y1="24.32" x2="33.1479" y2="21.1011" gradientUnits="userSpaceOnUse">
        <stop stop-color="#05456D"></stop>
        <stop offset="1" stop-color="#0A7AC0"></stop>
      </linearGradient>
    </defs>
  </symbol>
  <symbol fill="none" xmlns="http://www.w3.org/2000/svg" viewBox="0 0 32 32" id="topcrowd">
    <rect width="32" height="32" rx="4" fill="url(#paint0_linear_1025_7336)"></rect>
    <g clip-path="url(#clip0_1025_7336)">
      <path d="M25.9999 8.09929C25.9037 8.16585 25.8086 8.23432 25.7112 8.29898C25.2992 8.57209 24.8983 8.86117 24.4967 9.14912C24.4164 9.20655 24.3951 9.26247 24.4134 9.36136C24.567 10.1845 24.6085 11.0103 24.4989 11.8448C24.4335 12.3446 24.3418 12.8376 24.2106 13.3233C23.9672 14.2256 23.6032 15.078 23.1456 15.892C22.8238 16.4644 22.4366 16.9905 22.041 17.5135C21.4754 18.2613 20.9368 19.0293 20.5149 19.8711C20.2414 20.4165 20.006 20.9764 19.893 21.5801C19.8622 21.7459 19.8485 21.9144 19.8455 22.0841C19.839 22.4085 19.6108 22.6444 19.2909 22.6858C18.971 22.7277 18.6511 22.7296 18.3301 22.7296C16.7538 22.7288 15.1775 22.7296 13.6016 22.7296C13.3156 22.7296 13.3137 22.7288 13.3757 22.4492C13.6146 21.3743 13.9485 20.3306 14.3708 19.3131C14.8584 18.1377 15.4651 17.0278 16.1775 15.9757C16.6233 15.318 17.111 14.6915 17.6347 14.0928C18.0718 13.5934 18.5279 13.113 19.0075 12.6546C19.6861 12.0061 20.4042 11.4047 21.1532 10.8391C21.7165 10.4139 22.2981 10.0148 22.8915 9.63333C23.6884 9.12059 24.513 8.65958 25.3985 8.3142C25.5944 8.23774 25.7857 8.14988 25.979 8.06696C25.9854 8.07761 25.9923 8.08826 25.9988 8.09891L25.9999 8.09929Z" fill="white"></path>
      <path d="M24.6736 2.01332C24.504 2.15064 24.3435 2.28491 24.178 2.4131C23.7307 2.76038 23.3009 3.1282 22.8748 3.50058C22.4808 3.8452 22.0939 4.19819 21.7151 4.55954C21.6379 4.63333 21.6394 4.67061 21.7238 4.74288C22.3701 5.29594 22.9186 5.93268 23.3678 6.65768C23.69 7.17764 23.9414 7.72842 24.1468 8.30279C24.1814 8.39978 24.1666 8.44809 24.0665 8.4827C23.6759 8.61888 23.2853 8.75505 22.898 8.90073C22.2259 9.1533 21.5683 9.44048 20.9197 9.7482C20.3933 9.99811 19.876 10.2663 19.3716 10.558C18.8303 10.8711 18.3031 11.2069 17.7923 11.5683C16.9768 12.1453 16.2111 12.7824 15.5082 13.4918C14.6394 14.3686 13.8798 15.3328 13.2617 16.404C12.7037 17.3705 12.2636 18.3872 11.9844 19.4709C11.9753 19.5067 11.9756 19.5557 11.9308 19.5626C11.8855 19.5694 11.8703 19.5211 11.8532 19.4903C11.5896 19.0171 11.2917 18.5664 10.9753 18.1278C10.9338 18.07 10.9543 18.0145 10.9711 17.9585C11.1757 17.2838 11.3902 16.6124 11.6439 15.9532C11.8459 15.4287 12.0567 14.9083 12.2925 14.3983C12.6557 13.6116 13.0555 12.8444 13.4971 12.0985C14.1571 10.984 14.8988 9.92698 15.7181 8.92432C16.2392 8.28643 16.7934 7.67822 17.3701 7.08978C17.8965 6.55269 18.442 6.03539 19.0125 5.54623C19.782 4.88666 20.5587 4.23698 21.4283 3.70598C22.1099 3.28986 22.8056 2.89997 23.5142 2.53291C23.8589 2.35452 24.2115 2.19058 24.561 2.02131C24.5892 2.00762 24.6196 1.98518 24.674 2.01332H24.6736Z" fill="white"></path>
      <path d="M8.00043 10.8494C8.00575 9.65271 8.2606 8.5135 8.77563 7.43096C9.2374 6.46025 9.86882 5.61468 10.6627 4.89539C11.4919 4.14416 12.4375 3.57968 13.498 3.21186C14.2001 2.96804 14.9202 2.8178 15.6615 2.76226C16.8722 2.67135 18.0449 2.84366 19.1845 3.25484C19.3907 3.3294 19.5908 3.42183 19.7931 3.50703C19.8266 3.52111 19.8741 3.52871 19.8738 3.57588C19.873 3.62 19.8281 3.63446 19.7954 3.65005C19.3728 3.85317 18.9597 4.07417 18.5497 4.30163C17.8882 4.66907 17.2465 5.06808 16.6212 5.4941C15.9746 5.93419 15.3546 6.4089 14.7589 6.91479C14.4211 7.20159 14.091 7.49714 13.7741 7.80829C13.18 8.39178 12.6098 8.99657 12.0925 9.64967C11.3907 10.5356 10.765 11.4713 10.2347 12.4713C9.79427 13.302 9.41808 14.159 9.11302 15.0479C9.10009 15.0852 9.10123 15.1449 9.04874 15.1445C9.00157 15.1442 8.99168 15.0863 8.97494 15.0506C8.82203 14.7208 8.68624 14.3838 8.56604 14.0411C8.32869 13.3655 8.16247 12.6717 8.0708 11.9612C8.02287 11.593 7.99625 11.2221 8.00043 10.8494Z" fill="white"></path>
      <path d="M16.2954 23.7969C17.2121 23.7969 18.1288 23.7942 19.0455 23.7984C19.3046 23.7995 19.5484 23.8612 19.7386 24.0567C19.9341 24.2579 19.9733 24.5196 19.8409 24.7664C19.8032 24.8368 19.7622 24.9076 19.7108 24.9688C19.5803 25.1244 19.5636 25.2948 19.6256 25.4804C19.6442 25.5363 19.6633 25.5926 19.6823 25.6485C19.7424 25.8258 19.7481 25.9958 19.6199 26.1502C19.4396 26.367 19.4153 26.6086 19.5195 26.8634C19.6865 27.2716 19.3917 27.6356 19.0296 27.7204C18.9679 27.7349 18.9048 27.7429 18.8432 27.7581C18.6009 27.8182 18.4282 27.9543 18.3468 28.1989C18.2232 28.5698 18.0528 28.6919 17.6629 28.6923C16.7671 28.693 15.8717 28.693 14.9759 28.6923C14.5708 28.6923 14.3787 28.558 14.2509 28.1738C14.1646 27.914 13.9862 27.7881 13.7222 27.7505C13.3483 27.6972 13.133 27.5104 13.0684 27.1928C13.0379 27.0437 13.0668 26.8969 13.1277 26.7604C13.2129 26.5705 13.1981 26.4176 13.0444 26.2556C12.842 26.0422 12.8242 25.7756 12.9436 25.5108C13.0254 25.3294 13.0143 25.17 12.8964 25.0118C12.8462 24.9445 12.8021 24.8729 12.7671 24.7946C12.5579 24.326 12.8489 23.9361 13.2814 23.8284C13.3803 23.8037 13.4807 23.7953 13.5826 23.7957C14.0345 23.7969 14.4868 23.7957 14.9386 23.7957C15.3905 23.7957 15.8428 23.7957 16.2947 23.7957L16.2954 23.7969Z" fill="white"></path>
    </g>
    <defs>
      <linearGradient id="paint0_linear_1025_7336" x1="16" y1="0" x2="16" y2="32" gradientUnits="userSpaceOnUse">
        <stop stop-color="#BAE1F9"></stop>
        <stop offset="1" stop-color="#45B7FF"></stop>
      </linearGradient>
      <clipPath id="clip0_1025_7336">
        <rect width="18" height="26.6927" fill="white" transform="translate(8 2)"></rect>
      </clipPath>
    </defs>
  </symbol>
  <symbol fill="none" xmlns="http://www.w3.org/2000/svg" viewBox="0 0 32 32" id="challenges">
    <rect width="32" height="32" rx="4" fill="url(#paint0_linear_1025_7178)"></rect>
    <path fill-rule="evenodd" clip-rule="evenodd" d="M7.6001 9.99998C7.6001 8.67449 8.67461 7.59998 10.0001 7.59998H22.0001C23.3256 7.59998 24.4001 8.67449 24.4001 9.99998V19.6C24.4001 20.9255 23.3256 22 22.0001 22H19.3371L19.4837 22.5865L20.4487 23.5514C20.7919 23.8946 20.8945 24.4108 20.7088 24.8592C20.5231 25.3076 20.0855 25.6 19.6001 25.6H12.4001C11.9148 25.6 11.4772 25.3076 11.2915 24.8592C11.1057 24.4108 11.2084 23.8946 11.5516 23.5514L12.5166 22.5865L12.6632 22H10.0001C8.67461 22 7.6001 20.9255 7.6001 19.6V9.99998ZM14.5257 18.4C14.508 18.3996 14.4904 18.3996 14.4728 18.4H10.0001V9.99998H22.0001V18.4H17.5275C17.5099 18.3996 17.4923 18.3996 17.4746 18.4H14.5257Z" fill="white"></path>
    <defs>
      <linearGradient id="paint0_linear_1025_7178" x1="32" y1="8.52125" x2="-1.0543" y2="11.1897" gradientUnits="userSpaceOnUse">
        <stop stop-color="#26B3C5"></stop>
        <stop offset="1" stop-color="#2C95D7"></stop>
      </linearGradient>
    </defs>
  </symbol>
  <symbol fill="none" xmlns="http://www.w3.org/2000/svg" viewBox="0 0 32 32" id="dev-center">
    <rect width="32" height="32" rx="4" fill="url(#paint0_linear_1025_7138)"></rect>
    <path fill-rule="evenodd" clip-rule="evenodd" d="M18.7794 7.66158C19.4082 7.87115 19.7479 8.55074 19.5384 9.17947L14.7384 23.5795C14.5288 24.2082 13.8492 24.548 13.2205 24.3384C12.5917 24.1288 12.252 23.4493 12.4615 22.8205L17.2615 8.42052C17.4711 7.79179 18.1507 7.452 18.7794 7.66158ZM10.8485 11.5515C11.3171 12.0201 11.3171 12.7799 10.8485 13.2485L8.09701 16L10.8485 18.7515C11.3171 19.2201 11.3171 19.9799 10.8485 20.4485C10.3798 20.9172 9.62005 20.9172 9.15142 20.4485L5.55142 16.8485C5.08279 16.3799 5.08279 15.6201 5.55142 15.1515L9.15142 11.5515C9.62005 11.0828 10.3798 11.0828 10.8485 11.5515ZM21.1514 11.5515C21.6201 11.0828 22.3798 11.0828 22.8485 11.5515L26.4485 15.1515C26.9171 15.6201 26.9171 16.3799 26.4485 16.8485L22.8485 20.4485C22.3798 20.9172 21.6201 20.9172 21.1514 20.4485C20.6828 19.9799 20.6828 19.2201 21.1514 18.7515L23.9029 16L21.1514 13.2485C20.6828 12.7799 20.6828 12.0201 21.1514 11.5515Z" fill="white"></path>
    <defs>
      <linearGradient id="paint0_linear_1025_7138" x1="32" y1="8.52125" x2="-1.0543" y2="11.1897" gradientUnits="userSpaceOnUse">
        <stop stop-color="#06D6A0"></stop>
        <stop offset="1" stop-color="#26B3C5"></stop>
      </linearGradient>
    </defs>
  </symbol>
  <symbol fill="none" xmlns="http://www.w3.org/2000/svg" viewBox="0 0 32 32" id="discord">
    <rect width="32" height="32" rx="4" fill="url(#paint0_linear_1025_7373)"></rect>
    <path d="M24.3303 8.22781C22.7767 7.50093 21.1156 6.97267 19.3789 6.67188C19.1656 7.05749 18.9164 7.57614 18.7446 7.98873C16.8985 7.71109 15.0693 7.71109 13.2572 7.98873C13.0854 7.57614 12.8306 7.05749 12.6154 6.67188C10.8768 6.97267 9.21376 7.50287 7.66019 8.23166C4.52664 12.9669 3.67719 17.5845 4.10192 22.1365C6.18025 23.6885 8.19441 24.6313 10.1746 25.2483C10.6635 24.5754 11.0995 23.8601 11.4752 23.1063C10.7598 22.8344 10.0745 22.499 9.42707 22.1095C9.59884 21.9822 9.76686 21.8492 9.92918 21.7123C13.8782 23.5594 18.1689 23.5594 22.0707 21.7123C22.235 21.8492 22.403 21.9822 22.5728 22.1095C21.9235 22.5009 21.2364 22.8363 20.521 23.1082C20.8966 23.8601 21.3308 24.5774 21.8216 25.2502C23.8036 24.6333 25.8197 23.6905 27.898 22.1365C28.3964 16.8595 27.0467 12.2843 24.3303 8.22781ZM12.0132 19.337C10.8277 19.337 9.85555 18.2303 9.85555 16.8826C9.85555 15.535 10.807 14.4264 12.0132 14.4264C13.2194 14.4264 14.1916 15.533 14.1708 16.8826C14.1727 18.2303 13.2194 19.337 12.0132 19.337ZM19.9867 19.337C18.8013 19.337 17.8291 18.2303 17.8291 16.8826C17.8291 15.535 18.7805 14.4264 19.9867 14.4264C21.193 14.4264 22.1651 15.533 22.1444 16.8826C22.1444 18.2303 21.193 19.337 19.9867 19.337Z" fill="white"></path>
    <defs>
      <linearGradient id="paint0_linear_1025_7373" x1="16" y1="0" x2="16" y2="32" gradientUnits="userSpaceOnUse">
        <stop stop-color="#616BD5"></stop>
        <stop offset="1" stop-color="#99A2FF"></stop>
      </linearGradient>
    </defs>
  </symbol>
</svg>
