<svg width="0" height="0">
  <symbol xmlns="http://www.w3.org/2000/svg" fill="none" viewBox="0 0 32 32" id="discord">
    <rect width="32" height="32" fill="#616BD5" rx="4"></rect>
    <path fill="#fff" d="M22.942 9.523a16.288 16.288 0 0 0-4.126-1.296c-.178.32-.386.753-.529 1.097a15.15 15.15 0 0 0-4.573 0 11.727 11.727 0 0 0-.534-1.097c-1.45.25-2.835.692-4.13 1.3-2.611 3.945-3.319 7.793-2.965 11.587a16.495 16.495 0 0 0 5.06 2.593c.408-.56.771-1.157 1.084-1.785a10.647 10.647 0 0 1-1.706-.83c.143-.107.283-.218.418-.332 3.29 1.54 6.866 1.54 10.118 0 .137.114.277.225.418.331a10.63 10.63 0 0 1-1.71.832c.314.627.675 1.225 1.084 1.786a16.464 16.464 0 0 0 5.064-2.595c.415-4.398-.71-8.21-2.973-11.59Zm-10.264 9.258c-.988 0-1.798-.922-1.798-2.046 0-1.122.792-2.046 1.798-2.046 1.005 0 1.815.922 1.798 2.046.001 1.124-.793 2.046-1.798 2.046Zm6.644 0c-.988 0-1.798-.922-1.798-2.046 0-1.122.793-2.046 1.798-2.046 1.006 0 1.816.922 1.798 2.046 0 1.124-.793 2.046-1.798 2.046Z"></path>
  </symbol>
  <symbol xmlns="http://www.w3.org/2000/svg" fill="none" viewBox="0 0 32 32" id="forums">
    <rect width="32" height="32" fill="#9D41C9" rx="4"></rect>
    <path fill="#fff" fill-rule="evenodd" d="M6 10a3 3 0 0 1 3-3h10a3 3 0 0 1 3 3v1h1a3 3 0 0 1 3 3v6a3 3 0 0 1-3 3h-1v3a1 1 0 0 1-1.707.707L16.586 23H13c-.463 0-.902-.105-1.293-.293A1 1 0 0 1 10 22v-3H9a3 3 0 0 1-3-3v-6Zm7.414 11H17a1 1 0 0 1 .707.293L20 23.586V22a1 1 0 0 1 1-1h2a1 1 0 0 0 1-1v-6a1 1 0 0 0-1-1h-1v3a3 3 0 0 1-3 3h-3.586l-2 2ZM20 10a1 1 0 0 0-1-1H9a1 1 0 0 0-1 1v6a1 1 0 0 0 1 1h2a1 1 0 0 1 1 1v1.586l2.293-2.293A1 1 0 0 1 15 17h4a1 1 0 0 0 1-1v-6Z" clip-rule="evenodd"></path>
  </symbol>
  <symbol xmlns="http://www.w3.org/2000/svg" fill="none" viewBox="0 0 32 32" id="gigs">
    <rect width="32" height="32" fill="#227681" rx="4"></rect>
    <path fill="#fff" fill-rule="evenodd" d="M11 8a3 3 0 0 1 3-3h4a3 3 0 0 1 3 3v1h2a3 3 0 0 1 3 3v10a3 3 0 0 1-3 3H9a3 3 0 0 1-3-3V12a3 3 0 0 1 3-3h2V8Zm-2 3a1 1 0 0 0-1 1v4.57A22.95 22.95 0 0 0 16 18c2.815 0 5.51-.505 8-1.43V12a1 1 0 0 0-1-1H9Zm10-2h-6V8a1 1 0 0 1 1-1h4a1 1 0 0 1 1 1v1Zm5 9.692A24.971 24.971 0 0 1 16 20c-2.796 0-5.487-.46-8-1.308V22a1 1 0 0 0 1 1h14a1 1 0 0 0 1-1v-3.308ZM15 16a1 1 0 0 1 1-1h.01a1 1 0 1 1 0 2H16a1 1 0 0 1-1-1Z" clip-rule="evenodd"></path>
  </symbol>
  <symbol xmlns="http://www.w3.org/2000/svg" fill="none" viewBox="0 0 32 32" id="mm">
    <rect width="32" height="32" fill="#FD7D01" rx="4"></rect>
    <path stroke="#fff" stroke-linecap="round" stroke-linejoin="round" stroke-width="1.5" d="M20.5 22.75h-9m9 0a3 3 0 0 1 3 3h-15a3 3 0 0 1 3-3m9 0v-3.375c0-.621-.503-1.125-1.125-1.125h-.871m-7.004 4.5v-3.375c0-.621.504-1.125 1.125-1.125h.872m5.007 0h-5.007m5.007 0a7.454 7.454 0 0 1-.982-3.172m-4.025 3.172c.561-.97.897-2.054.981-3.172M9.25 8.236c-.982.143-1.954.317-2.916.52a6.003 6.003 0 0 0 5.396 4.972M9.25 8.236V8.5c0 2.108.966 3.99 2.48 5.228M9.25 8.236V6.721A48.339 48.339 0 0 1 16 6.25c2.291 0 4.545.16 6.75.47v1.516m-11.02 5.492c.8.655 1.74 1.117 2.748 1.35m8.272-6.842V8.5c0 2.108-.966 3.99-2.48 5.228m2.48-5.492c.977.142 1.95.316 2.916.52a6.003 6.003 0 0 1-5.395 4.972m0 0a6.726 6.726 0 0 1-2.749 1.35m0 0a6.772 6.772 0 0 1-3.044 0"></path>
  </symbol>
  <symbol xmlns="http://www.w3.org/2000/svg" fill="none" viewBox="0 0 32 32" id="payments">
    <rect width="32" height="32" fill="#4CC94C" rx="4"></rect>
    <path fill="#fff" fill-rule="evenodd" d="M16 8a8 8 0 1 0 0 16 8 8 0 0 0 0-16ZM6 16c0-5.523 4.477-10 10-10s10 4.477 10 10-4.477 10-10 10S6 21.523 6 16Zm10-6a1 1 0 0 1 1 1v.092c.94.177 1.791.604 2.354 1.253a1 1 0 0 1-1.51 1.31c-.163-.187-.453-.377-.844-.504v1.941a4.535 4.535 0 0 1 1.676.662C19.398 16.234 20 17.009 20 18c0 .99-.602 1.765-1.324 2.246-.48.32-1.054.545-1.676.662V21a1 1 0 1 1-2 0v-.092c-.94-.177-1.791-.604-2.354-1.253a1 1 0 1 1 1.51-1.31c.163.187.453.377.844.504v-1.941a4.535 4.535 0 0 1-1.676-.662C12.602 15.766 12 14.991 12 14c0-.99.602-1.765 1.324-2.246A4.535 4.535 0 0 1 15 11.092V11a1 1 0 0 1 1-1Zm-1 3.151c-.22.071-.412.164-.567.267-.364.243-.433.468-.433.582 0 .114.07.34.433.582.155.103.346.196.567.267v-1.698Zm2 4v1.698c.22-.071.412-.164.567-.267.364-.243.433-.468.433-.582 0-.114-.07-.34-.433-.582A2.305 2.305 0 0 0 17 17.15Z" clip-rule="evenodd"></path>
  </symbol>
  <symbol xmlns="http://www.w3.org/2000/svg" fill="none" viewBox="0 0 32 32" id="review">
    <rect width="32" height="32" fill="#B6B431" rx="4"></rect>
    <path fill="#fff" fill-rule="evenodd" d="M11 8a1 1 0 0 0-1 1v11a1 1 0 1 1-2 0V9a3 3 0 0 1 3-3h5.586A2 2 0 0 1 18 6.586L23.414 12A2 2 0 0 1 24 13.414V23a3 3 0 0 1-3 3h-7a1 1 0 1 1 0-2h7a1 1 0 0 0 1-1v-9.586L16.586 8H11Zm5 8a2 2 0 1 0 0 4 2 2 0 0 0 0-4Zm-4 2a4 4 0 1 1 1.968 3.446l-4.26 4.261a1 1 0 0 1-1.415-1.414l4.261-4.261A3.984 3.984 0 0 1 12 18Z" clip-rule="evenodd"></path>
  </symbol>
  <symbol xmlns="http://www.w3.org/2000/svg" fill="none" viewBox="0 0 32 32" id="self-service">
    <rect width="32" height="32" fill="#1E94A3" rx="4"></rect>
    <path fill="#fff" fill-rule="evenodd" d="M6 7a1 1 0 0 1 1-1h2a1 1 0 0 1 .98.804L10.22 8H25a1 1 0 0 1 .894 1.447l-4 8A1 1 0 0 1 21 18h-9.586l-2 2H21a3 3 0 1 1-2.83 2h-4.34a3 3 0 1 1-5.521-.326c-.98-.65-1.268-2.129-.309-3.088l1.914-1.915L8.18 8H7a1 1 0 0 1-1-1Zm5.82 9h8.562l3-6H10.62l1.2 6ZM11 22a1 1 0 1 0 0 2 1 1 0 0 0 0-2Zm10 0a1 1 0 1 0 0 2 1 1 0 0 0 0-2Z" clip-rule="evenodd"></path>
  </symbol>
  <symbol xmlns="http://www.w3.org/2000/svg" fill="none" viewBox="0 0 32 32" id="srm">
    <rect width="32" height="32" fill="#BE405E" rx="4"></rect>
    <path fill="#fff" stroke="#fff" stroke-width=".5" d="M11.414 9.06h.25V7.182H7.75v18.392h3.914v-1.876h-1.73V9.059h1.48Zm9.47-1.877h-.25v1.876h1.748V23.7h-1.747v1.876h3.923V7.183h-3.673Z"></path>
  </symbol>
  <symbol xmlns="http://www.w3.org/2000/svg" fill="none" viewBox="0 0 32 32" id="tcacademy">
    <rect width="32" height="32" fill="#16679A" rx="6.095"></rect>
    <path fill="#2C95D7" d="M16.988 14.594A22.298 22.298 0 0 0 7 11.774v4.942c0 .113.044.222.121.302l5.572 5.744a23.92 23.92 0 0 1 4.295-8.168Z"></path>
    <path fill="#fff" d="M15.145 17.225c.557-.921 1.173-1.8 1.843-2.631A22.297 22.297 0 0 0 7 11.774v.064a22.92 22.92 0 0 1 8.145 5.387Z" opacity=".2"></path>
    <path fill="#0AB88A" d="m23.88 18.049.999-1.031a.433.433 0 0 0 .121-.302V9.035a23.237 23.237 0 0 0-6.101 5.096 23.155 23.155 0 0 1 4.981 3.918Z"></path>
    <path fill="#fff" d="M24.985 9.044a23.233 23.233 0 0 0-6.086 5.087c.758.442 1.489.928 2.19 1.453a23.873 23.873 0 0 1 3.896-6.54Z" opacity=".2"></path>
    <path fill="#EF476F" d="M17.868 13.564A23.084 23.084 0 0 1 25 8.231V6.426A.42.42 0 0 0 24.587 6H7.413A.42.42 0 0 0 7 6.426v4.655a22.291 22.291 0 0 1 10.868 2.483Z"></path>
    <path fill="#fff" d="M25 8.23a23.084 23.084 0 0 0-7.132 5.334A22.291 22.291 0 0 0 7 11.082v-.154a22.335 22.335 0 0 1 12.117-3.564c2.034 0 4.005.273 5.883.785v.082Z" opacity=".2"></path>
    <path fill="#fff" d="M13.888 23.994a23.96 23.96 0 0 1 4.144-8.78 23.24 23.24 0 0 1 4.747 3.97l-6.482 6.691a.404.404 0 0 1-.584 0l-1.825-1.881Z"></path>
  </symbol>
  <symbol xmlns="http://www.w3.org/2000/svg" fill="none" viewBox="0 0 32 32" id="challenges">
    <rect width="32" height="32" fill="#2C95D7" rx="4"></rect>
    <path fill="#fff" fill-rule="evenodd" d="M6 9a3 3 0 0 1 3-3h14a3 3 0 0 1 3 3v10a3 3 0 0 1-3 3h-3.47l.373 1.489.804.804A1 1 0 0 1 20 26h-8a1 1 0 0 1-.707-1.707l.804-.804.372-1.489H9a3 3 0 0 1-3-3V9Zm2 9v1a1 1 0 0 0 1 1H23a1 1 0 0 0 1-1v-1H8Zm16-2H8V9a1 1 0 0 1 1-1h14a1 1 0 0 1 1 1v7Zm-6.53 6h-2.94l-.5 2h3.94l-.5-2Z" clip-rule="evenodd"></path>
  </symbol>
  <symbol xmlns="http://www.w3.org/2000/svg" fill="none" viewBox="0 0 32 32" id="dev-center">
    <rect width="32" height="32" fill="#0AB88A" rx="4"></rect>
    <path fill="#fff" fill-rule="evenodd" d="M18.242 7.03a1 1 0 0 1 .728 1.213l-4 16a1 1 0 1 1-1.94-.485l4-16a1 1 0 0 1 1.212-.728Zm-7.535 4.263a1 1 0 0 1 0 1.414L7.414 16l3.293 3.293a1 1 0 0 1-1.414 1.414l-4-4a1 1 0 0 1 0-1.414l4-4a1 1 0 0 1 1.414 0Zm10.586 0a1 1 0 0 1 1.414 0l4 4a1 1 0 0 1 0 1.414l-4 4a1 1 0 0 1-1.414-1.414L24.586 16l-3.293-3.293a1 1 0 0 1 0-1.414Z" clip-rule="evenodd"></path>
  </symbol>
</svg>
