<svg width="0" height="0">
  <symbol fill="none" xmlns="http://www.w3.org/2000/svg" viewBox="0 0 32 32" id="connect">
    <g clip-path="url(#clip0_4683_36483)">
      <rect width="32" height="32" rx="4" fill="url(#paint0_linear_4683_36483)"></rect>
      <g opacity="0.45">
        <circle cx="-3.5" cy="-3.5" r="32.5" fill="url(#paint1_linear_4683_36483)"></circle>
      </g>
      <path fill-rule="evenodd" clip-rule="evenodd" d="M8.25203 14H9C10.6569 14 12 15.3431 12 17V18C12 18.5523 12.4477 19 13 19C14.6569 19 16 20.3431 16 22V24C16.6906 24 17.3608 23.9125 18 23.748V22C18 20.3431 19.3431 19 21 19H23.4185C23.7935 18.0736 24 17.0609 24 16C24 14.9391 23.7935 13.9264 23.4185 13L23 13C22.4477 13 22 13.4477 22 14C22 15.6569 20.6569 17 19 17C17.3431 17 16 15.6569 16 14C16 13.4477 15.5523 13 15 13H14.5C12.6503 13 11.1357 11.5651 11.0086 9.74772C9.67527 10.8136 8.69034 12.2971 8.25203 14ZM11.5556 7.03942C8.26289 8.67574 6 12.0736 6 16C6 21.5228 10.4772 26 16 26C21.5228 26 26 21.5228 26 16C26 14.4039 25.6261 12.8951 24.961 11.5565C24.9607 11.5559 24.9604 11.5552 24.9601 11.5546C23.3236 8.26243 19.926 6 16 6C14.4035 6 12.8945 6.3741 11.5556 7.03942ZM13 8.58152V9.5C13 10.3284 13.6716 11 14.5 11H15C16.6569 11 18 12.3431 18 14C18 14.5523 18.4477 15 19 15C19.5523 15 20 14.5523 20 14C20 12.5811 20.9851 11.3922 22.3087 11.08C20.8446 9.20531 18.563 8 16 8C14.9391 8 13.9264 8.20651 13 8.58152ZM22.2454 21H21C20.4477 21 20 21.4477 20 22V22.9297C20.8634 22.4303 21.6249 21.7741 22.2454 21ZM14 23.748C10.5495 22.8599 8 19.7277 8 16H9C9.55228 16 10 16.4477 10 17V18C10 19.6569 11.3431 21 13 21C13.5523 21 14 21.4477 14 22V23.748Z" fill="white"></path>
    </g>
    <defs>
      <linearGradient id="paint0_linear_4683_36483" x1="6.01465e-08" y1="24.8" x2="33.5385" y2="21.0234" gradientUnits="userSpaceOnUse">
        <stop stop-color="#7B21A7"></stop>
        <stop offset="1" stop-color="#1974AD"></stop>
      </linearGradient>
      <linearGradient id="paint1_linear_4683_36483" x1="24.1852" y1="13.3519" x2="-23.3611" y2="-29.3796" gradientUnits="userSpaceOnUse">
        <stop stop-color="white"></stop>
        <stop offset="1" stop-color="white" stop-opacity="0"></stop>
      </linearGradient>
      <clipPath id="clip0_4683_36483">
        <rect width="32" height="32" rx="4" fill="white"></rect>
      </clipPath>
    </defs>
  </symbol>
  <symbol xmlns="http://www.w3.org/2000/svg" fill="none" viewBox="0 0 32 32" id="dev-center">
    <g clip-path="url(#clip0_1273_48556)">
      <rect width="32" height="32" fill="#0AB88A" rx="4"></rect>
      <circle cx="-3.5" cy="-3.5" r="32.5" fill="url(#paint0_linear_1273_48556)" opacity=".45"></circle>
      <path fill="#fff" fill-rule="evenodd" d="M18.242 7.03a1 1 0 0 1 .728 1.213l-4 16a1 1 0 1 1-1.94-.485l4-16a1 1 0 0 1 1.212-.728Zm-7.535 4.263a1 1 0 0 1 0 1.414L7.414 16l3.293 3.293a1 1 0 0 1-1.414 1.414l-4-4a1 1 0 0 1 0-1.414l4-4a1 1 0 0 1 1.414 0Zm10.586 0a1 1 0 0 1 1.414 0l4 4a1 1 0 0 1 0 1.414l-4 4a1 1 0 0 1-1.414-1.414L24.586 16l-3.293-3.293a1 1 0 0 1 0-1.414Z" clip-rule="evenodd"></path>
    </g>
    <defs>
      <linearGradient id="paint0_linear_1273_48556" x1="24.185" x2="-23.361" y1="13.352" y2="-29.38" gradientUnits="userSpaceOnUse">
        <stop stop-color="#fff"></stop>
        <stop offset="1" stop-color="#fff" stop-opacity="0"></stop>
      </linearGradient>
      <clipPath id="clip0_1273_48556">
        <path fill="#fff" d="M0 0h32v32H0z"></path>
      </clipPath>
    </defs>
  </symbol>
  <symbol xmlns="http://www.w3.org/2000/svg" fill="none" viewBox="0 0 32 32" id="discord">
    <g clip-path="url(#clip0_1273_48510)">
      <rect width="32" height="32" fill="#616BD5" rx="4"></rect>
      <circle cx="-3.5" cy="-3.5" r="32.5" fill="url(#paint0_linear_1273_48510)" opacity=".45"></circle>
      <path fill="#fff" d="M22.942 9.523a16.288 16.288 0 0 0-4.126-1.296c-.178.32-.386.753-.529 1.097a15.15 15.15 0 0 0-4.573 0 11.727 11.727 0 0 0-.534-1.097c-1.45.25-2.835.692-4.13 1.3-2.611 3.945-3.319 7.793-2.965 11.587a16.495 16.495 0 0 0 5.06 2.593c.408-.56.771-1.157 1.084-1.785a10.647 10.647 0 0 1-1.706-.83c.143-.107.283-.218.418-.332 3.29 1.54 6.866 1.54 10.118 0 .137.114.277.225.418.331a10.63 10.63 0 0 1-1.71.832c.314.627.675 1.225 1.084 1.786a16.464 16.464 0 0 0 5.064-2.595c.415-4.398-.71-8.21-2.973-11.59Zm-10.264 9.258c-.988 0-1.798-.922-1.798-2.046 0-1.122.792-2.046 1.798-2.046 1.005 0 1.815.922 1.798 2.046.001 1.124-.793 2.046-1.798 2.046Zm6.644 0c-.988 0-1.798-.922-1.798-2.046 0-1.122.793-2.046 1.798-2.046 1.006 0 1.816.922 1.798 2.046 0 1.124-.793 2.046-1.798 2.046Z"></path>
    </g>
    <defs>
      <linearGradient id="paint0_linear_1273_48510" x1="24.185" x2="-23.361" y1="13.352" y2="-29.38" gradientUnits="userSpaceOnUse">
        <stop stop-color="#fff"></stop>
        <stop offset="1" stop-color="#fff" stop-opacity="0"></stop>
      </linearGradient>
      <clipPath id="clip0_1273_48510">
        <path fill="#fff" d="M0 0h32v32H0z"></path>
      </clipPath>
    </defs>
  </symbol>
  <symbol xmlns="http://www.w3.org/2000/svg" fill="none" viewBox="0 0 32 32" id="forums">
    <g clip-path="url(#clip0_1273_48532)">
      <rect width="32" height="32" fill="#9D41C9" rx="4"></rect>
      <circle cx="-3.5" cy="-3.5" r="32.5" fill="url(#paint0_linear_1273_48532)" opacity=".45"></circle>
      <path fill="#fff" fill-rule="evenodd" d="M6 10a3 3 0 0 1 3-3h10a3 3 0 0 1 3 3v1h1a3 3 0 0 1 3 3v6a3 3 0 0 1-3 3h-1v3a1 1 0 0 1-1.707.707L16.586 23H13c-.463 0-.902-.105-1.293-.293A1 1 0 0 1 10 22v-3H9a3 3 0 0 1-3-3v-6Zm7.414 11H17a1 1 0 0 1 .707.293L20 23.586V22a1 1 0 0 1 1-1h2a1 1 0 0 0 1-1v-6a1 1 0 0 0-1-1h-1v3a3 3 0 0 1-3 3h-3.586l-2 2ZM20 10a1 1 0 0 0-1-1H9a1 1 0 0 0-1 1v6a1 1 0 0 0 1 1h2a1 1 0 0 1 1 1v1.586l2.293-2.293A1 1 0 0 1 15 17h4a1 1 0 0 0 1-1v-6Z" clip-rule="evenodd"></path>
    </g>
    <defs>
      <linearGradient id="paint0_linear_1273_48532" x1="24.185" x2="-23.361" y1="13.352" y2="-29.38" gradientUnits="userSpaceOnUse">
        <stop stop-color="#fff"></stop>
        <stop offset="1" stop-color="#fff" stop-opacity="0"></stop>
      </linearGradient>
      <clipPath id="clip0_1273_48532">
        <path fill="#fff" d="M0 0h32v32H0z"></path>
      </clipPath>
    </defs>
  </symbol>
  <symbol xmlns="http://www.w3.org/2000/svg" fill="none" viewBox="0 0 32 32" id="gigs">
    <g clip-path="url(#clip0_1273_48544)">
      <rect width="32" height="32" fill="#227681" rx="4"></rect>
      <circle cx="-3.5" cy="-3.5" r="32.5" fill="url(#paint0_linear_1273_48544)" opacity=".45"></circle>
      <path fill="#fff" fill-rule="evenodd" d="M11 8a3 3 0 0 1 3-3h4a3 3 0 0 1 3 3v1h2a3 3 0 0 1 3 3v10a3 3 0 0 1-3 3H9a3 3 0 0 1-3-3V12a3 3 0 0 1 3-3h2V8Zm-2 3a1 1 0 0 0-1 1v4.57A22.95 22.95 0 0 0 16 18c2.815 0 5.51-.505 8-1.43V12a1 1 0 0 0-1-1H9Zm10-2h-6V8a1 1 0 0 1 1-1h4a1 1 0 0 1 1 1v1Zm5 9.692A24.971 24.971 0 0 1 16 20c-2.796 0-5.487-.46-8-1.308V22a1 1 0 0 0 1 1h14a1 1 0 0 0 1-1v-3.308ZM15 16a1 1 0 0 1 1-1h.01a1 1 0 1 1 0 2H16a1 1 0 0 1-1-1Z" clip-rule="evenodd"></path>
    </g>
    <defs>
      <linearGradient id="paint0_linear_1273_48544" x1="24.185" x2="-23.361" y1="13.352" y2="-29.38" gradientUnits="userSpaceOnUse">
        <stop stop-color="#fff"></stop>
        <stop offset="1" stop-color="#fff" stop-opacity="0"></stop>
      </linearGradient>
      <clipPath id="clip0_1273_48544">
        <path fill="#fff" d="M0 0h32v32H0z"></path>
      </clipPath>
    </defs>
  </symbol>
  <symbol xmlns="http://www.w3.org/2000/svg" fill="none" viewBox="0 0 32 32" id="mm">
    <g clip-path="url(#a)">
      <rect width="32" height="32" fill="url(#b)" rx="4"></rect>
      <circle cx="-3.5" cy="-3.5" r="32.5" fill="url(#c)" opacity=".45"></circle>
      <path fill="#fff" fill-rule="evenodd" d="M23.934 21.734a.481.481 0 0 0 .01-.015c.074-.125.076-.271 0-.452l-.009-.018-.001-.003h.01l-.002-.004a19.592 19.592 0 0 0-.503-1.062l-.16-.314a.42.42 0 0 1-.016-.036c-.04-.102-.121-.305-.45-.148l-.94.426c-.023.012-.122.07-.22.128a9.322 9.322 0 0 1-.22.128l-2.469 1.196-.679.344a563.202 563.202 0 0 0-1.093.605l-.003.002a49 49 0 0 1-1.631.857 30.31 30.31 0 0 1-.732.35l-.008.004a37.227 37.227 0 0 1-.553.249h-.002c-.297.127-.597.242-.9.343l-.023.007a10.647 10.647 0 0 1-1.322.346c-.303.057-.607.1-.915.126h-.005a13.627 13.627 0 0 1-.284.022c-.172.01-.319.016-.45.016a3.4 3.4 0 0 1-.733-.075h-.005l-.003-.002a11.735 11.735 0 0 1-.537-.129 8.609 8.609 0 0 0 .595.029h.016c.187 0 .378-.01.652-.029a10.176 10.176 0 0 0 .664-.069c.027-.003.055-.007.082-.012.005 0 .01 0 .015-.002.232-.035.457-.079.677-.131l.06-.015a8.632 8.632 0 0 0 1.192-.388 14.96 14.96 0 0 0 1.015-.447l.011-.006.33-.161c.157-.078.312-.158.467-.24a48.123 48.123 0 0 0 2.182-1.228c.295-.171.615-.357.954-.54l.02-.01c.171-.092.347-.183.528-.27l4.21-2.3c0-.126-.09-.242-.16-.305l-.009-.006c-.207-.136-.379-.376-.534-.664a9.415 9.415 0 0 1-.341-.733l-.03-.07a8.145 8.145 0 0 0-.44-.922l-.006-.009c-.37-.618-.843-.905-1.657-.12a4.087 4.087 0 0 0-.155.161 2.55 2.55 0 0 1-1.24.708l-.007.002a2.4 2.4 0 0 1-.708.055 7.872 7.872 0 0 0 .643-.379c.382-.251.695-.514.908-.772a1.81 1.81 0 0 0 .086-.112l-.08.027-.008.003-.053.018-.009.002c-.337.11-.666.187-.98.237h-.003a6.935 6.935 0 0 1-.974.089h-.024a9.095 9.095 0 0 1-1.025-.038.464.464 0 0 1-.071-.014 1.33 1.33 0 0 1-.198-.074c-.076-.034-.15-.072-.213-.104l-.03-.016a.85.85 0 0 1 .27-.05c.053-.003.108-.003.17-.003l.095-.001h.004l.113-.003c.202-.007.436-.024.688-.053l.03-.004h.01l.086-.011.014-.002a10.247 10.247 0 0 0 .954-.168c.222-.05.442-.113.66-.19l.017-.005.035-.013.008-.003.017-.006a6.072 6.072 0 0 0 2.277-1.475 5.083 5.083 0 0 0 .44-.529 3.885 3.885 0 0 0 .391-.665c.08-.17.145-.345.195-.523h-.003c-.02.007-.125.076-.24.15-.11.073-.23.15-.289.184a14.498 14.498 0 0 1-1.225.622 13.86 13.86 0 0 1-1.813.669c-.28.082-.552.152-.817.215l-.01.003a21.902 21.902 0 0 1-.835.181l-.07.015a.61.61 0 0 1-.133.006h-.006a1.974 1.974 0 0 1-.179-.018l-.148-.023-.028-.005a5.93 5.93 0 0 1-.039-.007l-.099-.016a.95.95 0 0 1 .437-.213l.133-.03h.003l.058-.014.008-.002a16.202 16.202 0 0 0 .378-.092l.065-.017.075-.02.303-.084.011-.003a15.417 15.417 0 0 0 3.285-1.375 3.457 3.457 0 0 0 .386-.25 4.435 4.435 0 0 0 .59-.53 4.726 4.726 0 0 0 .842-1.242c.19-.403.308-.82.333-1.215v-.01a2.288 2.288 0 0 0-.005-.345 2.47 2.47 0 0 1-.074.054.867.867 0 0 0-.12.096c-.411.4-.85.763-1.304 1.093-.472.344-.959.65-1.443.92-.768.43-1.531.77-2.218 1.025a13.999 13.999 0 0 1-1.232.394l-.018.005-.202.05-.015.004a.51.51 0 0 1-.064.01h-.01a.803.803 0 0 1-.112.002 2.822 2.822 0 0 1-.194-.018 4.132 4.132 0 0 0-.128-.014c.072-.08.088-.088.153-.12a2.328 2.328 0 0 0 .15-.078l.007-.004c.025-.013.077-.033.133-.053h.001c.076-.027.158-.054.192-.064.33-.127.65-.258.96-.394a23.17 23.17 0 0 0 3.054-1.63c.235-.146.47-.298.709-.455.287-.19.547-.442.767-.729.11-.143.209-.294.297-.45l.008-.016c.06-.108.116-.22.165-.332.2-.458.302-.94.27-1.368a2.466 2.466 0 0 0-.029-.22A1.552 1.552 0 0 0 22.491 6a1.947 1.947 0 0 1-.068.039c-.046.026-.088.05-.127.082a48.194 48.194 0 0 1-6.231 4.104l-.028.016-.034.019-.095.052-.022.011-.066.036-.009.005-.015.009c-.173.094-.348.188-.523.28l-.046.025c-.252.132-.504.263-.758.391l-.057.029c-1.258.63-1.514 1.322-.95 2.372a2.8 2.8 0 0 1 .296.59 5.33 5.33 0 0 1 .127.364c.038.111.066.218.09.325a3.904 3.904 0 0 1 .094 1.355 4.132 4.132 0 0 1-.26 1.08 3.625 3.625 0 0 1-.517.908l-.006.007-.004.005h.01l-.004.005-.006.008c-.106.156-.217.316-.327.47l-.004.006-.185.258c-.298.417-.597.835-.903 1.247l-.423.543s-.63.561-1.181.91c0 0-1.116.503-1.12.503-.38.101-.607.14-.898.19-.197.034-.423.073-.745.14-.09.017-.181.032-.273.046-.203.032-.407.064-.6.137-.584.223-.774.765-.499 1.356.328.697.855 1.152 1.481 1.467a5.002 5.002 0 0 0 1.178.41l.21.042c.16.03.32.055.482.076.147.019.252-.01.356-.16.162-.228.409-.252.503-.034.03.07.064.123.103.162l.002.002c.098.097.223.112.375.112h.02c.104 0 .201 0 .29-.03.106-.035.198-.113.274-.285.1-.227.37-.208.503 0 .242.378.717.315.911-.111.124-.271.385-.3.546-.068.233.344.712.276.902-.13.123-.262.385-.325.532-.107a.443.443 0 0 0 .097.109c.096.074.206.073.34.041l.08-.02h.003a19.67 19.67 0 0 0 1.53-.439c1.737-.571 3.4-1.355 5.094-2.152.345-.163.69-.326 1.039-.488a8.45 8.45 0 0 0 .717-.372.719.719 0 0 0 .242-.214Zm-10.73.016c.878-.421 1.752-.918 2.682-1.464l.01-.006.144-.083c.433-.252.986-.574 1.588-.869l.95-.52c-.383.084-.8.121-1.248.09l-2.06-.144-.14.204a5.592 5.592 0 0 1-.105.154l-.082.12c-.113.166-.236.342-.36.517l-.003.004-.184.257c-.298.417-.61.853-.927 1.28l-.014.02-.398.51.146-.07Zm-.552.253L11.44 20.64l1.212 1.363Zm8.412-4.67s-.011.01-.032.024a.225.225 0 0 1 .032-.025Z" clip-rule="evenodd"></path>
    </g>
    <defs>
      <linearGradient id="b" x1="32" x2="-1.71" y1="8" y2="12.005" gradientUnits="userSpaceOnUse">
        <stop stop-color="#038664"></stop>
        <stop offset="1" stop-color="#075F96"></stop>
      </linearGradient>
      <linearGradient id="c" x1="24.185" x2="-23.361" y1="13.352" y2="-29.38" gradientUnits="userSpaceOnUse">
        <stop stop-color="#fff"></stop>
        <stop offset="1" stop-color="#fff" stop-opacity="0"></stop>
      </linearGradient>
      <clipPath id="a">
        <path fill="#fff" d="M0 0h32v32H0z"></path>
      </clipPath>
    </defs>
  </symbol>
  <symbol xmlns="http://www.w3.org/2000/svg" fill="none" viewBox="0 0 32 32" id="payments">
    <g clip-path="url(#clip0_1273_48526)">
      <rect width="32" height="32" fill="#4CC94C" rx="4"></rect>
      <circle cx="-3.5" cy="-3.5" r="32.5" fill="url(#paint0_linear_1273_48526)" opacity=".45"></circle>
      <path fill="#fff" fill-rule="evenodd" d="M16 8a8 8 0 1 0 0 16 8 8 0 0 0 0-16ZM6 16c0-5.523 4.477-10 10-10s10 4.477 10 10-4.477 10-10 10S6 21.523 6 16Zm10-6a1 1 0 0 1 1 1v.092c.94.177 1.791.604 2.354 1.253a1 1 0 0 1-1.51 1.31c-.163-.187-.453-.377-.844-.504v1.941a4.535 4.535 0 0 1 1.676.662C19.398 16.234 20 17.009 20 18c0 .99-.602 1.765-1.324 2.246-.48.32-1.054.545-1.676.662V21a1 1 0 1 1-2 0v-.092c-.94-.177-1.791-.604-2.354-1.253a1 1 0 1 1 1.51-1.31c.163.187.453.377.844.504v-1.941a4.535 4.535 0 0 1-1.676-.662C12.602 15.766 12 14.991 12 14c0-.99.602-1.765 1.324-2.246A4.535 4.535 0 0 1 15 11.092V11a1 1 0 0 1 1-1Zm-1 3.151c-.22.071-.412.164-.567.267-.364.243-.433.468-.433.582 0 .114.07.34.433.582.155.103.346.196.567.267v-1.698Zm2 4v1.698c.22-.071.412-.164.567-.267.364-.243.433-.468.433-.582 0-.114-.07-.34-.433-.582A2.305 2.305 0 0 0 17 17.15Z" clip-rule="evenodd"></path>
    </g>
    <defs>
      <linearGradient id="paint0_linear_1273_48526" x1="24.185" x2="-23.361" y1="13.352" y2="-29.38" gradientUnits="userSpaceOnUse">
        <stop stop-color="#fff"></stop>
        <stop offset="1" stop-color="#fff" stop-opacity="0"></stop>
      </linearGradient>
      <clipPath id="clip0_1273_48526">
        <path fill="#fff" d="M0 0h32v32H0z"></path>
      </clipPath>
    </defs>
  </symbol>
  <symbol xmlns="http://www.w3.org/2000/svg" fill="none" viewBox="0 0 32 32" id="practice">
    <g clip-path="url(#clip0_1277_48947)">
      <rect width="32" height="32" fill="url(#paint0_linear_1277_48947)" rx="4"></rect>
      <circle cx="-3.5" cy="-3.5" r="32.5" fill="url(#paint1_linear_1277_48947)" opacity=".45"></circle>
      <g fill="#fff" clip-path="url(#clip1_1277_48947)">
        <path d="M24.997 15.936c.036 4.326-3.057 8.195-7.448 8.922-3.31.547-6.121-.486-8.36-2.99-1.227-1.372-1.935-3.005-2.13-4.832-.276-2.583.416-4.893 2.107-6.876 1.449-1.699 3.296-2.719 5.503-3.055a8.814 8.814 0 0 1 4.99.676c.228.101.228.105.05.283-.225.225-.445.455-.676.673a1.02 1.02 0 0 0-.324.75c-.005.198-.013.202-.207.124a6.542 6.542 0 0 0-2.465-.472c-1.661.006-3.15.525-4.429 1.597-1.325 1.11-2.142 2.525-2.391 4.234-.296 2.023.207 3.85 1.519 5.428 1.105 1.329 2.53 2.131 4.237 2.389 2.877.433 5.677-.958 7.077-3.54a6.759 6.759 0 0 0 .819-3.227 6.603 6.603 0 0 0-.468-2.502c-.084-.211-.082-.212.143-.221.28-.012.52-.107.718-.313.232-.244.478-.474.711-.717.106-.11.165-.124.236.033.355.79.59 1.613.711 2.47.057.408.09.817.077 1.166Z"></path>
        <path d="M11.197 16.05c-.042-2.288 1.623-4.41 4.048-4.797a4.735 4.735 0 0 1 2.74.371c.14.063.146.117.038.223-.476.468-.95.938-1.414 1.416-.107.11-.219.102-.342.089-.754-.081-1.415.14-1.995.617-.808.664-1.14 1.81-.824 2.828a2.687 2.687 0 0 0 2.286 1.86 2.67 2.67 0 0 0 2.895-2.175c.046-.271.068-.543.02-.817-.02-.106.013-.187.093-.265.475-.469.948-.939 1.415-1.416.125-.128.17-.082.23.052 1.303 2.881-.524 6.246-3.652 6.721a4.83 4.83 0 0 1-5.49-4 3.317 3.317 0 0 1-.048-.707Z"></path>
        <path d="M22.003 8.664c.287-.327.58-.534.987-.488a.927.927 0 0 1 .578.279c.22.225.298.499.261.806-.036.302-.23.514-.488.744H24.4c.1 0 .2 0 .3.002a.286.286 0 0 1 .266.174.301.301 0 0 1-.037.333 1.317 1.317 0 0 1-.102.11c-.643.644-1.29 1.285-1.93 1.932a.529.529 0 0 1-.413.171c-.555-.007-1.11.002-1.665-.005a.418.418 0 0 0-.328.137c-1.254 1.259-2.513 2.512-3.768 3.77-.286.286-.617.396-1.006.28a.947.947 0 0 1-.442-1.517c.052-.062.11-.118.168-.175 1.23-1.23 2.46-2.46 3.693-3.687a.458.458 0 0 0 .15-.36c-.008-.555 0-1.11-.005-1.665a.473.473 0 0 1 .145-.367c.664-.658 1.325-1.32 1.985-1.982.115-.116.24-.184.4-.12.164.067.196.207.194.369-.004.399-.001.797-.001 1.26Z"></path>
      </g>
    </g>
    <defs>
      <linearGradient id="paint0_linear_1277_48947" x1="32" x2="-1.054" y1="8.521" y2="11.19" gradientUnits="userSpaceOnUse">
        <stop stop-color="#EF476F"></stop>
        <stop offset="1" stop-color="#9D41C9"></stop>
      </linearGradient>
      <linearGradient id="paint1_linear_1277_48947" x1="24.185" x2="-23.361" y1="13.352" y2="-29.38" gradientUnits="userSpaceOnUse">
        <stop stop-color="#fff"></stop>
        <stop offset="1" stop-color="#fff" stop-opacity="0"></stop>
      </linearGradient>
      <clipPath id="clip0_1277_48947">
        <path fill="#fff" d="M0 0h32v32H0z"></path>
      </clipPath>
      <clipPath id="clip1_1277_48947">
        <path fill="#fff" d="M7 7h18v18H7z"></path>
      </clipPath>
    </defs>
  </symbol>
  <symbol xmlns="http://www.w3.org/2000/svg" fill="none" viewBox="0 0 32 32" id="rdm">
    <g clip-path="url(#clip0_1273_48522)">
      <rect width="32" height="32" fill="#FD7D01" rx="4"></rect>
      <circle cx="-3.5" cy="-3.5" r="32.5" fill="url(#paint0_linear_1273_48522)" opacity=".45"></circle>
      <path stroke="#fff" stroke-linecap="round" stroke-linejoin="round" stroke-width="2" d="M20.5 22.75h-9m9 0a3 3 0 0 1 3 3h-15a3 3 0 0 1 3-3m9 0v-3.375c0-.621-.503-1.125-1.125-1.125h-.871m-7.004 4.5v-3.375c0-.621.504-1.125 1.125-1.125h.872m5.007 0h-5.007m5.007 0a7.454 7.454 0 0 1-.982-3.172m-4.025 3.172c.561-.97.897-2.054.981-3.172M9.25 8.236c-.982.143-1.954.317-2.916.52a6.003 6.003 0 0 0 5.396 4.972M9.25 8.236V8.5c0 2.108.966 3.99 2.48 5.228M9.25 8.236V6.721A48.339 48.339 0 0 1 16 6.25c2.291 0 4.545.16 6.75.47v1.516m-11.02 5.492c.8.655 1.74 1.117 2.748 1.35m8.272-6.842V8.5c0 2.108-.966 3.99-2.48 5.228m2.48-5.492c.977.142 1.95.316 2.916.52a6.003 6.003 0 0 1-5.395 4.972m0 0a6.726 6.726 0 0 1-2.749 1.35m0 0a6.772 6.772 0 0 1-3.044 0"></path>
    </g>
    <defs>
      <linearGradient id="paint0_linear_1273_48522" x1="24.185" x2="-23.361" y1="13.352" y2="-29.38" gradientUnits="userSpaceOnUse">
        <stop stop-color="#fff"></stop>
        <stop offset="1" stop-color="#fff" stop-opacity="0"></stop>
      </linearGradient>
      <clipPath id="clip0_1273_48522">
        <path fill="#fff" d="M0 0h32v32H0z"></path>
      </clipPath>
    </defs>
  </symbol>
  <symbol xmlns="http://www.w3.org/2000/svg" fill="none" viewBox="0 0 32 32" id="review">
    <g clip-path="url(#clip0_1273_48538)">
      <rect width="32" height="32" fill="#B6B431" rx="4"></rect>
      <circle cx="-3.5" cy="-3.5" r="32.5" fill="url(#paint0_linear_1273_48538)" opacity=".45"></circle>
      <path fill="#fff" fill-rule="evenodd" d="M11 8a1 1 0 0 0-1 1v11a1 1 0 1 1-2 0V9a3 3 0 0 1 3-3h5.586A2 2 0 0 1 18 6.586L23.414 12A2 2 0 0 1 24 13.414V23a3 3 0 0 1-3 3h-7a1 1 0 1 1 0-2h7a1 1 0 0 0 1-1v-9.586L16.586 8H11Zm5 8a2 2 0 1 0 0 4 2 2 0 0 0 0-4Zm-4 2a4 4 0 1 1 1.968 3.446l-4.26 4.261a1 1 0 0 1-1.415-1.414l4.261-4.261A3.984 3.984 0 0 1 12 18Z" clip-rule="evenodd"></path>
    </g>
    <defs>
      <linearGradient id="paint0_linear_1273_48538" x1="24.185" x2="-23.361" y1="13.352" y2="-29.38" gradientUnits="userSpaceOnUse">
        <stop stop-color="#fff"></stop>
        <stop offset="1" stop-color="#fff" stop-opacity="0"></stop>
      </linearGradient>
      <clipPath id="clip0_1273_48538">
        <path fill="#fff" d="M0 0h32v32H0z"></path>
      </clipPath>
    </defs>
  </symbol>
  <symbol xmlns="http://www.w3.org/2000/svg" fill="none" viewBox="0 0 32 32" id="self-service">
    <g clip-path="url(#clip0_1273_48566)">
      <rect width="32" height="32" fill="#1E94A3" rx="4"></rect>
      <circle cx="-3.5" cy="-3.5" r="32.5" fill="url(#paint0_linear_1273_48566)" opacity=".45"></circle>
      <path fill="#fff" fill-rule="evenodd" d="M6 7a1 1 0 0 1 1-1h2a1 1 0 0 1 .98.804L10.22 8H25a1 1 0 0 1 .894 1.447l-4 8A1 1 0 0 1 21 18h-9.586l-2 2H21a3 3 0 1 1-2.83 2h-4.34a3 3 0 1 1-5.521-.326c-.98-.65-1.268-2.129-.309-3.088l1.914-1.915L8.18 8H7a1 1 0 0 1-1-1Zm5.82 9h8.562l3-6H10.62l1.2 6ZM11 22a1 1 0 1 0 0 2 1 1 0 0 0 0-2Zm10 0a1 1 0 1 0 0 2 1 1 0 0 0 0-2Z" clip-rule="evenodd"></path>
    </g>
    <defs>
      <linearGradient id="paint0_linear_1273_48566" x1="24.185" x2="-23.361" y1="13.352" y2="-29.38" gradientUnits="userSpaceOnUse">
        <stop stop-color="#fff"></stop>
        <stop offset="1" stop-color="#fff" stop-opacity="0"></stop>
      </linearGradient>
      <clipPath id="clip0_1273_48566">
        <path fill="#fff" d="M0 0h32v32H0z"></path>
      </clipPath>
    </defs>
  </symbol>
  <symbol xmlns="http://www.w3.org/2000/svg" fill="none" viewBox="0 0 32 32" id="srm">
    <g clip-path="url(#clip0_1273_48519)">
      <rect width="32" height="32" fill="#BE405E" rx="4"></rect>
      <circle cx="-3.5" cy="-3.5" r="32.5" fill="url(#paint0_linear_1273_48519)" opacity=".45"></circle>
      <path fill="#fff" stroke="#fff" stroke-width=".5" d="M11.414 9.06h.25V7.182H7.75v18.392h3.914v-1.876h-1.73V9.059h1.48Zm9.47-1.877h-.25v1.876h1.748V23.7h-1.747v1.876h3.923V7.183h-3.673Z"></path>
    </g>
    <defs>
      <linearGradient id="paint0_linear_1273_48519" x1="24.185" x2="-23.361" y1="13.352" y2="-29.38" gradientUnits="userSpaceOnUse">
        <stop stop-color="#fff"></stop>
        <stop offset="1" stop-color="#fff" stop-opacity="0"></stop>
      </linearGradient>
      <clipPath id="clip0_1273_48519">
        <path fill="#fff" d="M0 0h32v32H0z"></path>
      </clipPath>
    </defs>
  </symbol>
  <symbol xmlns="http://www.w3.org/2000/svg" fill="none" viewBox="0 0 32 32" id="talent-search">
    <g clip-path="url(#clip0_5561_2639)">
      <rect width="32" height="32" fill="url(#paint0_linear_5561_2639)" rx="4"></rect>
      <circle cx="-3.5" cy="-3.5" r="32.5" fill="url(#paint1_linear_5561_2639)" opacity=".45"></circle>
      <path fill="#fff" fill-rule="evenodd" d="M14.5 7.5a7 7 0 0 0-5.773 10.96 13.075 13.075 0 0 1 5.773-1.335c2.07 0 4.03.48 5.773 1.335A7 7 0 0 0 14.5 7.5Zm6.698 12.631A8.75 8.75 0 1 0 7.803 8.87 8.75 8.75 0 0 0 21.198 20.13Zm-2.15-.31a11.334 11.334 0 0 0-4.548-.946c-1.618 0-3.156.337-4.549.946A6.972 6.972 0 0 0 14.5 21.5a6.972 6.972 0 0 0 4.549-1.68ZM14.5 11a1.75 1.75 0 1 0 0 3.5 1.75 1.75 0 0 0 0-3.5ZM11 12.75a3.5 3.5 0 1 1 7 0 3.5 3.5 0 0 1-7 0ZM22.327 20.903l-1.424 1.404 2.387 2.388a1 1 0 0 0 1.414-1.415l-2.377-2.377Z" clip-rule="evenodd"></path>
    </g>
    <defs>
      <linearGradient id="paint0_linear_5561_2639" x1="0" x2="32" y1="16" y2="16" gradientUnits="userSpaceOnUse">
        <stop stop-color="#652385"></stop>
        <stop offset="1" stop-color="#8C384C"></stop>
      </linearGradient>
      <linearGradient id="paint1_linear_5561_2639" x1="24.185" x2="-23.361" y1="13.352" y2="-29.38" gradientUnits="userSpaceOnUse">
        <stop stop-color="#fff"></stop>
        <stop offset="1" stop-color="#fff" stop-opacity="0"></stop>
      </linearGradient>
      <clipPath id="clip0_5561_2639">
        <rect width="32" height="32" fill="#fff" rx="4"></rect>
      </clipPath>
    </defs>
  </symbol>
  <symbol xmlns="http://www.w3.org/2000/svg" fill="none" viewBox="0 0 32 32" id="tcacademy">
    <g clip-path="url(#clip0_1273_48562)">
      <rect width="32" height="32" fill="#16679A" rx="4"></rect>
      <path fill="#fff" d="M16.988 14.594A22.299 22.299 0 0 0 7 11.774v4.942c0 .113.044.222.121.302l5.572 5.744a23.92 23.92 0 0 1 4.295-8.168Z"></path>
      <path fill="#fff" d="M15.145 17.225c.557-.921 1.173-1.8 1.843-2.631A22.298 22.298 0 0 0 7 11.774v.064a22.92 22.92 0 0 1 8.145 5.387Z" opacity=".2"></path>
      <path fill="#fff" d="m23.88 18.049.999-1.031a.433.433 0 0 0 .121-.302V9.035a23.237 23.237 0 0 0-6.101 5.096 23.155 23.155 0 0 1 4.981 3.918Z"></path>
      <path fill="#fff" d="M24.985 9.044a23.233 23.233 0 0 0-6.086 5.087c.758.442 1.489.928 2.19 1.453a23.873 23.873 0 0 1 3.896-6.54Z" opacity=".2"></path>
      <path fill="#fff" d="M17.868 13.564A23.084 23.084 0 0 1 25 8.231V6.426A.42.42 0 0 0 24.587 6H7.413A.42.42 0 0 0 7 6.426v4.655a22.291 22.291 0 0 1 10.868 2.483Z"></path>
      <path fill="#fff" d="M25 8.23a23.082 23.082 0 0 0-7.132 5.334A22.29 22.29 0 0 0 7 11.081v-.153a22.336 22.336 0 0 1 12.117-3.564c2.034 0 4.005.273 5.883.785v.082Z" opacity=".2"></path>
      <path fill="#fff" d="M13.888 23.994a23.961 23.961 0 0 1 4.144-8.78 23.24 23.24 0 0 1 4.747 3.97l-6.482 6.691a.404.404 0 0 1-.584 0l-1.825-1.881Z"></path>
      <circle cx="-3.5" cy="-3.5" r="32.5" fill="url(#paint0_linear_1273_48562)" opacity=".25"></circle>
    </g>
    <defs>
      <linearGradient id="paint0_linear_1273_48562" x1="24.185" x2="-23.361" y1="13.352" y2="-29.38" gradientUnits="userSpaceOnUse">
        <stop stop-color="#fff"></stop>
        <stop offset="1" stop-color="#fff" stop-opacity="0"></stop>
      </linearGradient>
      <clipPath id="clip0_1273_48562">
        <rect width="32" height="32" fill="#fff" rx="4"></rect>
      </clipPath>
    </defs>
  </symbol>
  <symbol xmlns="http://www.w3.org/2000/svg" fill="none" viewBox="0 0 32 32" id="topcrowd">
    <g clip-path="url(#clip0_1273_48564)">
      <rect width="32" height="32" fill="#0D61BF" rx="4"></rect>
      <path fill="#fff" fill-rule="evenodd" d="m15.946 4.126-.027.047h.054l-.026-.047Zm-2.7 5.539a3.17 3.17 0 0 1-.222-.472l-3.202 5.553a.477.477 0 0 0 0 .477L13.2 21.07a.477.477 0 0 0 .826.001l1.321-2.275a.477.477 0 0 0 .001-.479l-2-3.464a.477.477 0 0 1 .415-.716l7.155.033c.368.002.6-.397.415-.716l-2.434-4.216a3.145 3.145 0 0 1-5.651.426Zm4.511-2.378a2.065 2.065 0 1 1-3.577 2.065 2.065 2.065 0 0 1 3.577-2.065Z" clip-rule="evenodd"></path>
      <path fill="#fff" fill-rule="evenodd" d="M25.132 20.475c.109 0 .216.006.322.016l-3.044-5.267a.477.477 0 0 0-.414-.238h-6.753a.477.477 0 0 0-.414.715l1.31 2.282c.085.148.243.24.414.24h4c.37 0 .599.4.413.718L17.36 25.12a.477.477 0 0 0 .412.718h5.133a3.145 3.145 0 0 1 2.228-5.363Zm-.144 5.174a2.065 2.065 0 1 1 0-4.13 2.065 2.065 0 0 1 0 4.13Z" clip-rule="evenodd"></path>
      <path fill="#fff" fill-rule="evenodd" d="M9.579 25.406a3.167 3.167 0 0 1-.32.455l6.416-.003c.17 0 .328-.091.413-.239l3.376-5.848a.477.477 0 0 0-.412-.716l-2.631-.007c-.171 0-.33.09-.415.239l-2 3.464a.477.477 0 0 1-.828-.002L9.63 16.537a.477.477 0 0 0-.828-.002l-2.42 4.19a3.145 3.145 0 0 1 3.196 4.68ZM5.2 22.592a2.065 2.065 0 1 1 3.577 2.065A2.065 2.065 0 0 1 5.2 22.592Z" clip-rule="evenodd"></path>
      <circle cx="-3.5" cy="-3.5" r="32.5" fill="url(#paint0_linear_1273_48564)" opacity=".45"></circle>
    </g>
    <defs>
      <linearGradient id="paint0_linear_1273_48564" x1="24.185" x2="-23.361" y1="13.352" y2="-29.38" gradientUnits="userSpaceOnUse">
        <stop stop-color="#fff"></stop>
        <stop offset="1" stop-color="#fff" stop-opacity="0"></stop>
      </linearGradient>
      <clipPath id="clip0_1273_48564">
        <rect width="32" height="32" fill="#fff" rx="4"></rect>
      </clipPath>
    </defs>
  </symbol>
  <symbol fill="none" xmlns="http://www.w3.org/2000/svg" viewBox="0 0 32 32" id="work-manager">
    <g clip-path="url(#clip0_4683_36419)">
      <rect width="32" height="32" rx="4" fill="url(#paint0_linear_4683_36419)"></rect>
      <g opacity="0.45">
        <circle cx="-3.5" cy="-3.5" r="32.5" fill="url(#paint1_linear_4683_36419)"></circle>
      </g>
      <path fill-rule="evenodd" clip-rule="evenodd" d="M10 9C10 7.34315 11.3431 6 13 6H19C20.6569 6 22 7.34315 22 9V10.1707C23.1652 10.5825 24 11.6938 24 13V14.1707C25.1652 14.5825 26 15.6938 26 17V23C26 24.6569 24.6569 26 23 26H9C7.34315 26 6 24.6569 6 23V17C6 15.6938 6.83481 14.5825 8 14.1707V13C8 11.6938 8.83481 10.5825 10 10.1707V9ZM12 10H20V9C20 8.44772 19.5523 8 19 8H13C12.4477 8 12 8.44772 12 9V10ZM10 14H22V13C22 12.4477 21.5523 12 21 12H11C10.4477 12 10 12.4477 10 13V14ZM9 16C8.44772 16 8 16.4477 8 17V23C8 23.5523 8.44772 24 9 24H23C23.5523 24 24 23.5523 24 23V17C24 16.4477 23.5523 16 23 16H9Z" fill="white"></path>
    </g>
    <defs>
      <linearGradient id="paint0_linear_4683_36419" x1="-8.91804e-08" y1="24.32" x2="33.1479" y2="21.1011" gradientUnits="userSpaceOnUse">
        <stop stop-color="#05456D"></stop>
        <stop offset="1" stop-color="#0A7AC0"></stop>
      </linearGradient>
      <linearGradient id="paint1_linear_4683_36419" x1="24.1852" y1="13.3519" x2="-23.3611" y2="-29.3796" gradientUnits="userSpaceOnUse">
        <stop stop-color="white"></stop>
        <stop offset="1" stop-color="white" stop-opacity="0"></stop>
      </linearGradient>
      <clipPath id="clip0_4683_36419">
        <rect width="32" height="32" rx="4" fill="white"></rect>
      </clipPath>
    </defs>
  </symbol>
  <symbol fill="none" xmlns="http://www.w3.org/2000/svg" viewBox="0 0 40 40" id="ai-chat">
    <rect width="40" height="40" rx="20" fill="url(#paint0_linear_88_3594)"></rect>
    <path d="M19.0966 11.2607C17.2274 11.2607 15.5669 12.4915 14.9882 14.3091L14.7796 15.5573V19.6944C14.7796 19.9013 14.8834 20.085 15.0571 20.1914L18.3093 22.1107V16.4255H18.3102V16.1558L21.602 14.2086C21.9203 14.0198 22.267 13.8909 22.626 13.8235L22.3091 12.7225C21.4915 11.7866 20.3219 11.2549 19.0966 11.2607ZM19.0966 12.3967L19.0909 12.4025C19.8433 12.4025 20.5664 12.6684 21.1451 13.1605C21.1215 13.1721 21.0752 13.2021 21.0413 13.2195L17.6381 15.2267C17.4644 15.3272 17.3605 15.5167 17.3605 15.7236V20.435L15.8964 19.5707V15.6762C15.8954 13.8673 17.3275 12.3996 19.0966 12.3967Z" fill="white"></path>
    <path d="M26.938 14.829C26.0035 13.1712 24.1325 12.3137 22.3062 12.7093L21.1464 13.1483L17.6481 15.2169C17.4732 15.3204 17.3698 15.5043 17.3667 15.7116L17.3698 19.5558L22.1771 16.7132L22.1776 16.714L22.4057 16.5791L25.6981 18.5252C26.0168 18.7132 26.2992 18.9562 26.5357 19.2409L27.3082 18.4093C27.6908 17.2163 27.5556 15.913 26.938 14.829ZM25.9774 15.3971L25.9697 15.3949C26.3459 16.0623 26.4826 16.8366 26.3558 17.5959C26.3342 17.5808 26.2858 17.5548 26.254 17.5333L22.8552 15.5184C22.6834 15.4146 22.4712 15.4173 22.2963 15.5207L18.3124 17.8764L18.3112 16.1456L21.6042 14.1983C23.1334 13.293 25.0904 13.8294 25.9774 15.3971Z" fill="white"></path>
    <path d="M27.8415 23.5683C28.776 21.9104 28.5656 19.8222 27.3179 18.4001L26.3668 17.5909L22.8685 15.5223C22.6936 15.4189 22.4863 15.4191 22.3096 15.52L19.0605 17.4449L23.8678 20.2875L23.8673 20.2883L24.0954 20.4232L24.0961 24.3165C24.0965 24.6932 24.0322 25.0652 23.9097 25.4173L24.9991 25.6867C26.1992 25.4295 27.2337 24.658 27.8415 23.5683ZM26.8809 23.0002L26.8788 22.9923C26.5026 23.6596 25.9162 24.1681 25.2107 24.4353C25.2127 24.4086 25.2105 24.3525 25.2128 24.3137L25.2172 20.2916C25.219 20.0873 25.1107 19.9004 24.9357 19.797L20.9518 17.4413L22.4148 16.5748L25.7079 18.522C27.2379 19.4256 27.7629 21.4297 26.8809 23.0002Z" fill="white"></path>
    <path d="M20.9034 28.7393C22.7726 28.7393 24.4331 27.5085 25.0118 25.6909L25.2204 24.4427V20.3056C25.2204 20.0987 25.1166 19.915 24.9429 19.8086L21.6907 17.8893V23.5745H21.6898V23.8442L18.398 25.7914C18.0797 25.9802 17.733 26.1091 17.374 26.1765L17.6909 27.2775C18.5085 28.2134 19.6781 28.7451 20.9034 28.7393ZM20.9034 27.6033L20.9091 27.5975C20.1567 27.5975 19.4336 27.3316 18.8549 26.8395C18.8785 26.8279 18.9248 26.7979 18.9587 26.7805L22.3619 24.7733C22.5356 24.6728 22.6395 24.4833 22.6395 24.2764V19.565L24.1036 20.4293V24.3238C24.1046 26.1327 22.6725 27.6004 20.9034 27.6033Z" fill="white"></path>
    <path d="M13.062 25.171C13.9965 26.8288 15.8675 27.6863 17.6938 27.2907L18.8536 26.8517L22.3519 24.7831C22.5268 24.6796 22.6302 24.4957 22.6333 24.2884L22.6302 20.4442L17.8229 23.2868L17.8224 23.286L17.5943 23.4209L14.3019 21.4748C13.9832 21.2868 13.7008 21.0438 13.4643 20.7591L12.6918 21.5907C12.3092 22.7837 12.4444 24.087 13.062 25.171ZM14.0226 24.6029L14.0303 24.6051C13.6541 23.9377 13.5174 23.1634 13.6442 22.4041C13.6658 22.4192 13.7142 22.4452 13.746 22.4667L17.1448 24.4816C17.3166 24.5854 17.5288 24.5827 17.7037 24.4793L21.6876 22.1236L21.6888 23.8544L18.3958 25.8017C16.8666 26.707 14.9096 26.1706 14.0226 24.6029Z" fill="white"></path>
    <path d="M12.1585 16.4316C11.224 18.0895 11.4344 20.1777 12.6821 21.5998L13.6332 22.409L17.1315 24.4775C17.3064 24.581 17.5137 24.5807 17.6904 24.4798L20.9395 22.555L16.1322 19.7124L16.1327 19.7115L15.9046 19.5767L15.9039 15.6834C15.9035 15.3067 15.9678 14.9347 16.0903 14.5826L15.0009 14.3132C13.8008 14.5703 12.7663 15.3419 12.1585 16.4316ZM13.1191 16.9996L13.1212 17.0076C13.4974 16.3402 14.0838 15.8318 14.7893 15.5646C14.7873 15.5913 14.7895 15.6473 14.7872 15.6862L14.7828 19.7083C14.781 19.9126 14.8893 20.0995 15.0643 20.2029L19.0482 22.5586L17.5852 23.4251L14.2921 21.4779C12.7621 20.5743 12.2371 18.5702 13.1191 16.9996Z" fill="white"></path>
    <defs>
      <linearGradient id="paint0_linear_88_3594" x1="20" y1="0" x2="20" y2="40" gradientUnits="userSpaceOnUse">
        <stop stop-color="#1C6DFF"></stop>
        <stop offset="1" stop-color="#C025FF"></stop>
      </linearGradient>
    </defs>
  </symbol>
  <symbol xmlns="http://www.w3.org/2000/svg" fill="none" viewBox="0 0 32 32" id="articles">
    <g clip-path="url(#clip0_1277_48957)">
      <rect width="32" height="32" fill="url(#paint0_linear_1277_48957)" rx="4"></rect>
      <circle cx="-3.5" cy="-3.5" r="32.5" fill="url(#paint1_linear_1277_48957)" opacity=".45"></circle>
      <path fill="#fff" fill-rule="evenodd" d="M6 10a3 3 0 0 1 3-3h10a3 3 0 0 1 3 3h1a3 3 0 0 1 3 3v9a3 3 0 0 1-3 3H9a3 3 0 0 1-3-3V10Zm14.17 13H9a1 1 0 0 1-1-1V10a1 1 0 0 1 1-1h10a1 1 0 0 1 1 1v12c0 .35.06.687.17 1ZM22 12v10a1 1 0 1 0 2 0v-9a1 1 0 0 0-1-1h-1Zm-12 0a1 1 0 0 1 1-1h6a1 1 0 0 1 1 1v4a1 1 0 0 1-1 1h-6a1 1 0 0 1-1-1v-4Zm2 1v2h4v-2h-4Zm-2 7a1 1 0 0 1 1-1h6a1 1 0 1 1 0 2h-6a1 1 0 0 1-1-1Z" clip-rule="evenodd"></path>
    </g>
    <defs>
      <linearGradient id="paint0_linear_1277_48957" x1="32" x2="-1.054" y1="8.521" y2="11.19" gradientUnits="userSpaceOnUse">
        <stop stop-color="#26B3C5"></stop>
        <stop offset="1" stop-color="#2C95D7"></stop>
      </linearGradient>
      <linearGradient id="paint1_linear_1277_48957" x1="24.185" x2="-23.361" y1="13.352" y2="-29.38" gradientUnits="userSpaceOnUse">
        <stop stop-color="#fff"></stop>
        <stop offset="1" stop-color="#fff" stop-opacity="0"></stop>
      </linearGradient>
      <clipPath id="clip0_1277_48957">
        <path fill="#fff" d="M0 0h32v32H0z"></path>
      </clipPath>
    </defs>
  </symbol>
  <symbol xmlns="http://www.w3.org/2000/svg" fill="none" viewBox="0 0 32 32" id="challenges">
    <g clip-path="url(#clip0_1273_48550)">
      <rect width="32" height="32" fill="#2C95D7" rx="4"></rect>
      <circle cx="-3.5" cy="-3.5" r="32.5" fill="url(#paint0_linear_1273_48550)" opacity=".45"></circle>
      <path fill="#fff" fill-rule="evenodd" d="M6 9a3 3 0 0 1 3-3h14a3 3 0 0 1 3 3v10a3 3 0 0 1-3 3h-3.47l.373 1.489.804.804A1 1 0 0 1 20 26h-8a1 1 0 0 1-.707-1.707l.804-.804.372-1.489H9a3 3 0 0 1-3-3V9Zm2 9v1a1 1 0 0 0 1 1H23a1 1 0 0 0 1-1v-1H8Zm16-2H8V9a1 1 0 0 1 1-1h14a1 1 0 0 1 1 1v7Zm-6.53 6h-2.94l-.5 2h3.94l-.5-2Z" clip-rule="evenodd"></path>
    </g>
    <defs>
      <linearGradient id="paint0_linear_1273_48550" x1="24.185" x2="-23.361" y1="13.352" y2="-29.38" gradientUnits="userSpaceOnUse">
        <stop stop-color="#fff"></stop>
        <stop offset="1" stop-color="#fff" stop-opacity="0"></stop>
      </linearGradient>
      <clipPath id="clip0_1273_48550">
        <path fill="#fff" d="M0 0h32v32H0z"></path>
      </clipPath>
    </defs>
  </symbol>
</svg>
