<svg xmlns="http://www.w3.org/2000/svg" width="32" height="32" fill="none" viewBox="0 0 32 32"><g clip-path="url(#clip0_5561_2639)"><rect width="32" height="32" fill="url(#paint0_linear_5561_2639)" rx="4"/><circle cx="-3.5" cy="-3.5" r="32.5" fill="url(#paint1_linear_5561_2639)" opacity=".45" style="mix-blend-mode:soft-light"/><path fill="#fff" fill-rule="evenodd" d="M14.5 7.5a7 7 0 0 0-5.773 10.96 13.075 13.075 0 0 1 5.773-1.335c2.07 0 4.03.48 5.773 1.335A7 7 0 0 0 14.5 7.5Zm6.698 12.631A8.75 8.75 0 1 0 7.803 8.87 8.75 8.75 0 0 0 21.198 20.13Zm-2.15-.31a11.334 11.334 0 0 0-4.548-.946c-1.618 0-3.156.337-4.549.946A6.972 6.972 0 0 0 14.5 21.5a6.972 6.972 0 0 0 4.549-1.68ZM14.5 11a1.75 1.75 0 1 0 0 3.5 1.75 1.75 0 0 0 0-3.5ZM11 12.75a3.5 3.5 0 1 1 7 0 3.5 3.5 0 0 1-7 0ZM22.327 20.903l-1.424 1.404 2.387 2.388a1 1 0 0 0 1.414-1.415l-2.377-2.377Z" clip-rule="evenodd"/></g><defs><linearGradient id="paint0_linear_5561_2639" x1="0" x2="32" y1="16" y2="16" gradientUnits="userSpaceOnUse"><stop stop-color="#652385"/><stop offset="1" stop-color="#8C384C"/></linearGradient><linearGradient id="paint1_linear_5561_2639" x1="24.185" x2="-23.361" y1="13.352" y2="-29.38" gradientUnits="userSpaceOnUse"><stop stop-color="#fff"/><stop offset="1" stop-color="#fff" stop-opacity="0"/></linearGradient><clipPath id="clip0_5561_2639"><rect width="32" height="32" fill="#fff" rx="4"/></clipPath></defs></svg>
