<svg width="32" height="32" viewBox="0 0 32 32" fill="none" xmlns="http://www.w3.org/2000/svg">
<rect width="32" height="32" rx="4" fill="url(#paint0_linear_1025_7306)"/>
<path d="M17.0306 15.3591C13.9098 13.6619 10.3723 12.6412 6.61231 12.4924L6.6123 17.5162C6.6123 17.6313 6.65778 17.7416 6.73869 17.8229L12.5511 23.6628C13.4944 20.5868 15.0326 17.7735 17.0306 15.3591Z" fill="white"/>
<path opacity="0.2" d="M15.1083 18.0336C15.6889 17.0972 16.3316 16.2037 17.0306 15.3591C13.9098 13.6619 10.3723 12.6412 6.6123 12.4924L6.6123 12.5573C9.82794 13.7647 12.7167 15.6472 15.1083 18.0336Z" fill="white"/>
<path d="M24.2197 18.8711L25.2617 17.8229C25.3425 17.7416 25.3879 17.6314 25.3879 17.5164L25.3879 9.70789C22.9806 11.0596 20.8288 12.817 19.0239 14.8882C20.9342 15.975 22.6814 17.3181 24.2197 18.8711Z" fill="white"/>
<path opacity="0.2" d="M25.3721 9.71677C22.9712 11.0673 20.8249 12.8216 19.0239 14.8882C19.8144 15.3379 20.577 15.8316 21.3084 16.3658C22.3019 13.9232 23.682 11.6812 25.3721 9.71677Z" fill="white"/>
<path d="M17.9488 14.3124C20.0457 12.0561 22.5684 10.2055 25.3878 8.89032L25.3878 7.05596C25.3878 6.8166 25.195 6.62256 24.9572 6.62256L7.04294 6.62256C6.80511 6.62256 6.61231 6.8166 6.61231 7.05596L6.6123 11.7883C6.82337 11.7828 7.0351 11.78 7.24749 11.78C11.0934 11.78 14.7278 12.6918 17.9488 14.3124Z" fill="white"/>
<path opacity="0.2" d="M25.3878 8.89031C22.5684 10.2055 20.0457 12.0561 17.9488 14.3123C14.7278 12.6918 11.0934 11.78 7.24749 11.78C7.0351 11.78 6.82337 11.7828 6.6123 11.7883L6.6123 11.6327C10.2814 9.33596 14.6124 8.00943 19.2513 8.00943C21.3725 8.00943 23.4292 8.28678 25.3878 8.80742V8.89031Z" fill="white"/>
<path d="M13.7974 24.9148C14.6163 21.6186 16.1092 18.5912 18.12 15.9893C19.9454 17.1104 21.6102 18.4704 23.0715 20.026L16.3099 26.8274C16.1418 26.9965 15.8694 26.9966 15.7012 26.8276L13.7974 24.9148Z" fill="white"/>
<defs>
<linearGradient id="paint0_linear_1025_7306" x1="-8.91804e-08" y1="24.32" x2="33.1479" y2="21.1011" gradientUnits="userSpaceOnUse">
<stop stop-color="#05456D"/>
<stop offset="1" stop-color="#0A7AC0"/>
</linearGradient>
</defs>
</svg>
