<svg xmlns="http://www.w3.org/2000/svg" width="32" height="32" fill="none"><rect width="32" height="32" fill="#16679A" rx="6.095"/><path fill="#2C95D7" d="M16.988 14.594A22.298 22.298 0 0 0 7 11.774v4.942c0 .113.044.222.121.302l5.572 5.744a23.92 23.92 0 0 1 4.295-8.168Z"/><path fill="#fff" d="M15.145 17.225c.557-.921 1.173-1.8 1.843-2.631A22.297 22.297 0 0 0 7 11.774v.064a22.92 22.92 0 0 1 8.145 5.387Z" opacity=".2"/><path fill="#0AB88A" d="m23.88 18.049.999-1.031a.433.433 0 0 0 .121-.302V9.035a23.237 23.237 0 0 0-6.101 5.096 23.155 23.155 0 0 1 4.981 3.918Z"/><path fill="#fff" d="M24.985 9.044a23.233 23.233 0 0 0-6.086 5.087c.758.442 1.489.928 2.19 1.453a23.873 23.873 0 0 1 3.896-6.54Z" opacity=".2"/><path fill="#EF476F" d="M17.868 13.564A23.084 23.084 0 0 1 25 8.231V6.426A.42.42 0 0 0 24.587 6H7.413A.42.42 0 0 0 7 6.426v4.655a22.291 22.291 0 0 1 10.868 2.483Z"/><path fill="#fff" d="M25 8.23a23.084 23.084 0 0 0-7.132 5.334A22.291 22.291 0 0 0 7 11.082v-.154a22.335 22.335 0 0 1 12.117-3.564c2.034 0 4.005.273 5.883.785v.082Z" opacity=".2"/><path fill="#fff" d="M13.888 23.994a23.96 23.96 0 0 1 4.144-8.78 23.24 23.24 0 0 1 4.747 3.97l-6.482 6.691a.404.404 0 0 1-.584 0l-1.825-1.881Z"/></svg>