<svg width="32" height="32" viewBox="0 0 32 32" fill="none" xmlns="http://www.w3.org/2000/svg">
<rect width="32" height="32" rx="4" fill="url(#paint0_linear_1025_7336)"/>
<g clip-path="url(#clip0_1025_7336)">
<path d="M25.9999 8.09929C25.9037 8.16585 25.8086 8.23432 25.7112 8.29898C25.2992 8.57209 24.8983 8.86117 24.4967 9.14912C24.4164 9.20655 24.3951 9.26247 24.4134 9.36136C24.567 10.1845 24.6085 11.0103 24.4989 11.8448C24.4335 12.3446 24.3418 12.8376 24.2106 13.3233C23.9672 14.2256 23.6032 15.078 23.1456 15.892C22.8238 16.4644 22.4366 16.9905 22.041 17.5135C21.4754 18.2613 20.9368 19.0293 20.5149 19.8711C20.2414 20.4165 20.006 20.9764 19.893 21.5801C19.8622 21.7459 19.8485 21.9144 19.8455 22.0841C19.839 22.4085 19.6108 22.6444 19.2909 22.6858C18.971 22.7277 18.6511 22.7296 18.3301 22.7296C16.7538 22.7288 15.1775 22.7296 13.6016 22.7296C13.3156 22.7296 13.3137 22.7288 13.3757 22.4492C13.6146 21.3743 13.9485 20.3306 14.3708 19.3131C14.8584 18.1377 15.4651 17.0278 16.1775 15.9757C16.6233 15.318 17.111 14.6915 17.6347 14.0928C18.0718 13.5934 18.5279 13.113 19.0075 12.6546C19.6861 12.0061 20.4042 11.4047 21.1532 10.8391C21.7165 10.4139 22.2981 10.0148 22.8915 9.63333C23.6884 9.12059 24.513 8.65958 25.3985 8.3142C25.5944 8.23774 25.7857 8.14988 25.979 8.06696C25.9854 8.07761 25.9923 8.08826 25.9988 8.09891L25.9999 8.09929Z" fill="white"/>
<path d="M24.6736 2.01332C24.504 2.15064 24.3435 2.28491 24.178 2.4131C23.7307 2.76038 23.3009 3.1282 22.8748 3.50058C22.4808 3.8452 22.0939 4.19819 21.7151 4.55954C21.6379 4.63333 21.6394 4.67061 21.7238 4.74288C22.3701 5.29594 22.9186 5.93268 23.3678 6.65768C23.69 7.17764 23.9414 7.72842 24.1468 8.30279C24.1814 8.39978 24.1666 8.44809 24.0665 8.4827C23.6759 8.61888 23.2853 8.75505 22.898 8.90073C22.2259 9.1533 21.5683 9.44048 20.9197 9.7482C20.3933 9.99811 19.876 10.2663 19.3716 10.558C18.8303 10.8711 18.3031 11.2069 17.7923 11.5683C16.9768 12.1453 16.2111 12.7824 15.5082 13.4918C14.6394 14.3686 13.8798 15.3328 13.2617 16.404C12.7037 17.3705 12.2636 18.3872 11.9844 19.4709C11.9753 19.5067 11.9756 19.5557 11.9308 19.5626C11.8855 19.5694 11.8703 19.5211 11.8532 19.4903C11.5896 19.0171 11.2917 18.5664 10.9753 18.1278C10.9338 18.07 10.9543 18.0145 10.9711 17.9585C11.1757 17.2838 11.3902 16.6124 11.6439 15.9532C11.8459 15.4287 12.0567 14.9083 12.2925 14.3983C12.6557 13.6116 13.0555 12.8444 13.4971 12.0985C14.1571 10.984 14.8988 9.92698 15.7181 8.92432C16.2392 8.28643 16.7934 7.67822 17.3701 7.08978C17.8965 6.55269 18.442 6.03539 19.0125 5.54623C19.782 4.88666 20.5587 4.23698 21.4283 3.70598C22.1099 3.28986 22.8056 2.89997 23.5142 2.53291C23.8589 2.35452 24.2115 2.19058 24.561 2.02131C24.5892 2.00762 24.6196 1.98518 24.674 2.01332H24.6736Z" fill="white"/>
<path d="M8.00043 10.8494C8.00575 9.65271 8.2606 8.5135 8.77563 7.43096C9.2374 6.46025 9.86882 5.61468 10.6627 4.89539C11.4919 4.14416 12.4375 3.57968 13.498 3.21186C14.2001 2.96804 14.9202 2.8178 15.6615 2.76226C16.8722 2.67135 18.0449 2.84366 19.1845 3.25484C19.3907 3.3294 19.5908 3.42183 19.7931 3.50703C19.8266 3.52111 19.8741 3.52871 19.8738 3.57588C19.873 3.62 19.8281 3.63446 19.7954 3.65005C19.3728 3.85317 18.9597 4.07417 18.5497 4.30163C17.8882 4.66907 17.2465 5.06808 16.6212 5.4941C15.9746 5.93419 15.3546 6.4089 14.7589 6.91479C14.4211 7.20159 14.091 7.49714 13.7741 7.80829C13.18 8.39178 12.6098 8.99657 12.0925 9.64967C11.3907 10.5356 10.765 11.4713 10.2347 12.4713C9.79427 13.302 9.41808 14.159 9.11302 15.0479C9.10009 15.0852 9.10123 15.1449 9.04874 15.1445C9.00157 15.1442 8.99168 15.0863 8.97494 15.0506C8.82203 14.7208 8.68624 14.3838 8.56604 14.0411C8.32869 13.3655 8.16247 12.6717 8.0708 11.9612C8.02287 11.593 7.99625 11.2221 8.00043 10.8494Z" fill="white"/>
<path d="M16.2954 23.7969C17.2121 23.7969 18.1288 23.7942 19.0455 23.7984C19.3046 23.7995 19.5484 23.8612 19.7386 24.0567C19.9341 24.2579 19.9733 24.5196 19.8409 24.7664C19.8032 24.8368 19.7622 24.9076 19.7108 24.9688C19.5803 25.1244 19.5636 25.2948 19.6256 25.4804C19.6442 25.5363 19.6633 25.5926 19.6823 25.6485C19.7424 25.8258 19.7481 25.9958 19.6199 26.1502C19.4396 26.367 19.4153 26.6086 19.5195 26.8634C19.6865 27.2716 19.3917 27.6356 19.0296 27.7204C18.9679 27.7349 18.9048 27.7429 18.8432 27.7581C18.6009 27.8182 18.4282 27.9543 18.3468 28.1989C18.2232 28.5698 18.0528 28.6919 17.6629 28.6923C16.7671 28.693 15.8717 28.693 14.9759 28.6923C14.5708 28.6923 14.3787 28.558 14.2509 28.1738C14.1646 27.914 13.9862 27.7881 13.7222 27.7505C13.3483 27.6972 13.133 27.5104 13.0684 27.1928C13.0379 27.0437 13.0668 26.8969 13.1277 26.7604C13.2129 26.5705 13.1981 26.4176 13.0444 26.2556C12.842 26.0422 12.8242 25.7756 12.9436 25.5108C13.0254 25.3294 13.0143 25.17 12.8964 25.0118C12.8462 24.9445 12.8021 24.8729 12.7671 24.7946C12.5579 24.326 12.8489 23.9361 13.2814 23.8284C13.3803 23.8037 13.4807 23.7953 13.5826 23.7957C14.0345 23.7969 14.4868 23.7957 14.9386 23.7957C15.3905 23.7957 15.8428 23.7957 16.2947 23.7957L16.2954 23.7969Z" fill="white"/>
</g>
<defs>
<linearGradient id="paint0_linear_1025_7336" x1="16" y1="0" x2="16" y2="32" gradientUnits="userSpaceOnUse">
<stop stop-color="#BAE1F9"/>
<stop offset="1" stop-color="#45B7FF"/>
</linearGradient>
<clipPath id="clip0_1025_7336">
<rect width="18" height="26.6927" fill="white" transform="translate(8 2)"/>
</clipPath>
</defs>
</svg>
