<svg xmlns="http://www.w3.org/2000/svg" width="32" height="32" fill="none"><g clip-path="url(#clip0_1273_48564)"><rect width="32" height="32" fill="#0D61BF" rx="4"/><path fill="#fff" fill-rule="evenodd" d="m15.946 4.126-.027.047h.054l-.026-.047Zm-2.7 5.539a3.17 3.17 0 0 1-.222-.472l-3.202 5.553a.477.477 0 0 0 0 .477L13.2 21.07a.477.477 0 0 0 .826.001l1.321-2.275a.477.477 0 0 0 .001-.479l-2-3.464a.477.477 0 0 1 .415-.716l7.155.033c.368.002.6-.397.415-.716l-2.434-4.216a3.145 3.145 0 0 1-5.651.426Zm4.511-2.378a2.065 2.065 0 1 1-3.577 2.065 2.065 2.065 0 0 1 3.577-2.065Z" clip-rule="evenodd"/><path fill="#fff" fill-rule="evenodd" d="M25.132 20.475c.109 0 .216.006.322.016l-3.044-5.267a.477.477 0 0 0-.414-.238h-6.753a.477.477 0 0 0-.414.715l1.31 2.282c.085.148.243.24.414.24h4c.37 0 .599.4.413.718L17.36 25.12a.477.477 0 0 0 .412.718h5.133a3.145 3.145 0 0 1 2.228-5.363Zm-.144 5.174a2.065 2.065 0 1 1 0-4.13 2.065 2.065 0 0 1 0 4.13Z" clip-rule="evenodd"/><path fill="#fff" fill-rule="evenodd" d="M9.579 25.406a3.167 3.167 0 0 1-.32.455l6.416-.003c.17 0 .328-.091.413-.239l3.376-5.848a.477.477 0 0 0-.412-.716l-2.631-.007c-.171 0-.33.09-.415.239l-2 3.464a.477.477 0 0 1-.828-.002L9.63 16.537a.477.477 0 0 0-.828-.002l-2.42 4.19a3.145 3.145 0 0 1 3.196 4.68ZM5.2 22.592a2.065 2.065 0 1 1 3.577 2.065A2.065 2.065 0 0 1 5.2 22.592Z" clip-rule="evenodd"/><circle cx="-3.5" cy="-3.5" r="32.5" fill="url(#paint0_linear_1273_48564)" opacity=".45" style="mix-blend-mode:soft-light"/></g><defs><linearGradient id="paint0_linear_1273_48564" x1="24.185" x2="-23.361" y1="13.352" y2="-29.38" gradientUnits="userSpaceOnUse"><stop stop-color="#fff"/><stop offset="1" stop-color="#fff" stop-opacity="0"/></linearGradient><clipPath id="clip0_1273_48564"><rect width="32" height="32" fill="#fff" rx="4"/></clipPath></defs></svg>