<svg width="32" height="32" fill="none" xmlns="http://www.w3.org/2000/svg">
<g clip-path="url(#clip0_4683_36419)">
<rect width="32" height="32" rx="4" fill="url(#paint0_linear_4683_36419)"/>
<g style="mix-blend-mode:soft-light" opacity="0.45">
<circle cx="-3.5" cy="-3.5" r="32.5" fill="url(#paint1_linear_4683_36419)"/>
</g>
<path fill-rule="evenodd" clip-rule="evenodd" d="M10 9C10 7.34315 11.3431 6 13 6H19C20.6569 6 22 7.34315 22 9V10.1707C23.1652 10.5825 24 11.6938 24 13V14.1707C25.1652 14.5825 26 15.6938 26 17V23C26 24.6569 24.6569 26 23 26H9C7.34315 26 6 24.6569 6 23V17C6 15.6938 6.83481 14.5825 8 14.1707V13C8 11.6938 8.83481 10.5825 10 10.1707V9ZM12 10H20V9C20 8.44772 19.5523 8 19 8H13C12.4477 8 12 8.44772 12 9V10ZM10 14H22V13C22 12.4477 21.5523 12 21 12H11C10.4477 12 10 12.4477 10 13V14ZM9 16C8.44772 16 8 16.4477 8 17V23C8 23.5523 8.44772 24 9 24H23C23.5523 24 24 23.5523 24 23V17C24 16.4477 23.5523 16 23 16H9Z" fill="white"/>
</g>
<defs>
<linearGradient id="paint0_linear_4683_36419" x1="-8.91804e-08" y1="24.32" x2="33.1479" y2="21.1011" gradientUnits="userSpaceOnUse">
<stop stop-color="#05456D"/>
<stop offset="1" stop-color="#0A7AC0"/>
</linearGradient>
<linearGradient id="paint1_linear_4683_36419" x1="24.1852" y1="13.3519" x2="-23.3611" y2="-29.3796" gradientUnits="userSpaceOnUse">
<stop stop-color="white"/>
<stop offset="1" stop-color="white" stop-opacity="0"/>
</linearGradient>
<clipPath id="clip0_4683_36419">
<rect width="32" height="32" rx="4" fill="white"/>
</clipPath>
</defs>
</svg>
